{"glyphs":{"0":{"ha":786,"x_min":85,"x_max":756,"o":"m 349 64 l 368 64 q 467 99 417 64 q 625 364 572 172 q 648 532 648 450 l 648 562 q 605 741 648 677 q 484 805 562 805 q 285 669 369 805 q 219 505 244 604 q 194 325 194 406 l 194 305 q 238 125 194 186 q 349 64 283 64 m 85 302 l 85 340 q 119 537 85 429 q 334 838 184 751 q 488 880 408 880 l 514 880 q 617 854 569 880 q 694 787 665 827 q 756 564 756 700 l 756 538 q 724 331 756 434 q 517 37 659 123 q 353 -13 437 -13 l 328 -13 q 230 10 277 -13 q 155 70 184 33 q 85 302 85 159 z "},"1":{"ha":584,"x_min":146,"x_max":477,"o":"m 288 -1 l 262 -1 q 180 17 214 -1 q 146 60 146 35 q 194 124 146 85 q 259 219 241 162 q 299 455 276 276 q 322 673 322 634 q 277 718 322 718 l 256 715 l 237 715 q 193 736 193 715 q 257 791 193 760 q 450 865 405 865 q 477 834 477 865 q 467 771 477 819 q 449 681 456 723 q 408 443 442 639 q 374 210 374 248 q 401 135 374 173 q 429 79 429 98 q 384 23 429 47 q 288 -1 338 -1 z "},"2":{"ha":720,"x_min":63,"x_max":668,"o":"m 93 6 q 63 44 63 14 q 102 118 63 75 q 280 284 142 160 q 467 467 419 408 q 549 638 549 566 q 515 749 549 710 q 424 787 480 787 q 332 763 368 787 q 259 694 296 739 q 201 650 221 650 q 175 686 175 650 q 200 744 175 703 q 274 819 225 786 q 451 871 351 871 q 610 815 552 871 q 668 666 668 760 q 588 471 668 572 q 384 276 531 399 q 237 115 237 153 q 331 92 237 92 q 504 111 426 92 q 589 129 581 129 q 610 90 610 129 q 566 24 610 50 q 439 -2 523 -2 l 418 -2 l 187 3 q 93 6 106 3 z "},"3":{"ha":709,"x_min":59,"x_max":641,"o":"m 459 875 q 641 737 641 875 q 527 519 641 628 q 478 467 478 473 q 522 434 479 461 q 618 255 618 375 q 516 41 618 134 q 400 -29 466 -5 q 275 -53 334 -53 l 255 -53 q 119 -21 178 -53 q 59 49 59 12 q 96 87 59 87 q 172 58 114 87 q 288 29 229 29 q 440 90 376 29 q 504 250 504 151 q 466 350 504 311 q 362 405 429 389 q 296 442 296 422 q 362 496 296 463 q 464 566 429 530 q 530 691 530 634 q 500 767 530 747 q 420 787 470 787 q 340 773 371 787 q 277 739 310 760 q 232 718 245 718 q 195 742 195 718 q 271 834 195 793 q 438 875 347 875 l 459 875 z "},"4":{"ha":742,"x_min":60,"x_max":665,"o":"m 526 687 l 526 698 l 525 700 q 340 490 522 700 q 159 274 159 281 l 159 271 q 181 268 159 268 l 287 268 l 294 269 l 307 268 l 313 268 q 459 285 448 268 q 479 381 466 295 q 506 558 492 468 l 515 616 q 526 687 526 685 m 460 -61 l 435 -61 q 396 14 396 -61 q 408 66 396 28 q 419 120 419 104 q 347 179 419 155 q 211 187 321 187 q 87 193 101 187 q 60 229 60 203 l 60 237 q 79 281 60 254 q 485 756 202 446 q 603 844 566 844 l 615 844 q 646 793 646 844 q 621 624 646 779 q 596 404 596 468 q 618 300 596 340 q 653 249 641 260 q 665 231 665 238 q 604 157 665 179 q 557 132 563 142 q 551 91 551 121 q 519 -30 551 23 q 460 -61 500 -61 z "},"5":{"ha":713,"x_min":67,"x_max":693,"o":"m 320 453 l 205 444 q 170 497 170 444 q 205 653 170 513 q 257 822 239 793 q 297 856 275 850 q 419 862 319 862 l 526 861 q 603 868 552 861 q 660 875 654 875 q 693 855 693 875 q 651 786 693 805 q 475 768 609 768 q 326 753 341 768 q 287 666 311 739 q 263 555 263 592 q 307 534 263 534 q 457 524 416 534 q 537 484 498 514 q 624 291 624 419 q 516 51 624 149 q 253 -47 408 -47 q 122 -18 177 -47 q 67 41 67 12 q 121 85 67 85 q 178 60 122 85 q 279 35 233 35 q 282 35 281 35 q 447 107 382 35 q 511 270 511 180 q 463 406 511 359 q 320 453 414 453 z "},"6":{"ha":745,"x_min":87,"x_max":681,"o":"m 428 500 l 401 500 q 257 432 319 500 q 194 262 194 365 l 194 235 q 237 110 194 163 q 345 56 279 56 l 366 56 q 509 133 442 56 q 575 308 575 210 l 575 341 q 531 456 575 412 q 428 500 488 500 m 681 335 l 681 319 q 654 194 681 256 q 580 84 628 131 q 357 -14 408 -14 q 349 -13 353 -14 q 153 61 218 -13 q 87 260 87 136 l 87 277 q 134 498 87 382 q 255 700 180 614 q 433 845 329 786 q 633 903 538 903 l 646 903 q 681 877 681 903 q 580 826 681 859 q 298 600 398 767 q 273 534 273 558 q 282 527 273 527 q 342 542 291 527 q 452 557 394 557 q 617 493 553 557 q 681 335 681 429 z "},"7":{"ha":697,"x_min":146,"x_max":705,"o":"m 705 827 l 705 815 q 259 -14 705 777 q 195 -52 238 -52 q 152 -22 152 -52 q 353 368 152 10 q 464 544 362 385 q 566 742 566 702 q 418 772 566 772 q 300 765 326 772 q 258 751 275 758 l 232 741 q 172 728 199 728 q 146 758 146 728 l 146 772 q 172 840 146 812 q 241 867 199 867 l 272 867 l 320 865 q 387 863 369 863 l 504 861 q 666 858 644 861 q 705 827 705 852 z "},"8":{"ha":736,"x_min":77,"x_max":701,"o":"m 477 868 l 456 868 q 340 818 390 868 q 290 700 290 768 l 290 694 q 322 603 290 643 q 438 542 372 542 l 443 542 q 555 610 493 542 q 601 730 601 661 l 601 745 q 565 832 601 797 q 477 868 530 868 m 557 260 l 557 272 q 511 385 557 338 q 384 450 446 450 l 378 450 q 248 379 313 450 q 182 241 182 309 l 181 229 l 181 205 q 228 96 181 136 q 331 56 275 56 l 351 56 q 494 115 431 56 q 557 260 557 173 m 268 497 q 243 534 268 500 q 189 686 189 605 q 273 865 189 795 q 469 936 357 936 q 641 884 581 936 q 701 757 701 831 q 672 637 701 683 q 595 549 644 591 q 547 494 547 507 q 569 471 547 490 q 604 439 590 453 q 640 385 617 426 q 663 279 663 343 q 567 68 663 152 q 334 -15 471 -15 l 319 -15 q 150 40 224 -15 q 77 193 77 96 l 77 208 q 204 435 77 338 q 268 497 268 484 z "},"9":{"ha":745,"x_min":129,"x_max":718,"o":"m 234 557 l 234 517 q 278 405 234 450 q 405 361 323 361 q 549 427 488 361 q 611 600 611 494 l 611 620 q 570 747 611 692 q 458 802 530 802 l 451 802 l 444 802 q 299 726 365 802 q 234 557 234 650 m 130 535 q 130 538 130 537 q 155 665 130 603 q 334 845 205 789 q 463 871 395 871 l 479 871 q 575 852 528 871 q 654 796 623 833 q 718 600 718 721 l 718 583 q 669 349 718 466 q 382 14 568 112 q 194 -41 278 -41 l 180 -41 q 129 -14 129 -41 l 129 -5 q 236 42 129 3 q 403 131 344 82 q 495 233 463 180 q 528 311 528 286 q 509 323 528 323 q 458 311 508 323 q 376 298 408 298 q 198 365 266 298 q 130 535 130 431 z "},"\u0000":{"ha":781,"x_min":36,"x_max":741,"o":"m 552 44 q 626 51 626 44 q 458 310 626 65 q 421 366 452 318 q 387 414 390 414 l 354 363 l 351 357 l 325 318 q 317 307 322 313 q 150 47 150 63 q 162 47 150 47 l 169 46 l 175 45 l 222 44 l 552 44 m 102 492 l 102 242 q 105 109 102 109 q 180 218 109 109 l 221 279 q 245 315 236 302 q 268 350 254 328 q 315 418 283 372 q 347 467 347 463 l 347 474 q 257 610 347 479 q 163 749 168 741 l 104 835 q 102 492 102 835 m 673 431 l 673 511 q 670 836 673 836 q 633 785 667 836 q 514 611 600 734 q 429 477 429 488 q 480 391 429 465 q 599 214 532 317 q 670 112 666 112 q 673 431 673 112 m 459 903 l 438 903 l 431 902 l 390 902 q 149 896 149 902 q 184 839 149 890 q 238 759 219 788 q 271 709 256 730 q 336 611 286 688 q 390 533 387 533 q 433 594 393 533 q 478 664 472 654 q 494 687 484 673 l 577 813 q 631 897 631 890 q 459 903 631 903 m 36 27 l 36 163 l 37 180 l 37 486 q 38 958 37 955 q 94 970 43 970 l 667 970 q 737 959 734 970 q 740 686 740 948 l 740 399 l 741 331 l 741 9 q 719 -17 741 -15 q 532 -20 698 -20 l 227 -20 q 43 -16 50 -20 q 36 27 36 -12 z "}," ":{"ha":380,"x_min":0,"x_max":0,"o":""},"!":{"ha":396,"x_min":87,"x_max":374,"o":"m 374 941 q 236 319 374 849 q 191 266 222 266 l 184 266 q 164 284 164 266 q 181 420 164 319 q 201 545 198 522 q 208 590 204 568 q 214 634 211 611 q 225 708 217 657 q 241 812 234 760 q 258 909 248 864 q 324 969 271 969 l 332 969 q 374 941 374 969 m 140 -3 q 87 44 87 -3 l 87 63 l 90 79 q 114 125 90 106 q 168 144 137 144 l 176 144 l 195 141 q 230 104 230 141 l 232 90 l 232 83 l 229 64 q 211 23 229 45 q 170 0 193 0 q 162 -1 164 -1 l 151 -3 l 140 -3 z "},"\"":{"ha":506,"x_min":148,"x_max":498,"o":"m 261 987 q 288 968 288 987 l 288 964 l 288 960 l 288 957 l 283 925 q 214 685 283 839 q 169 652 199 652 l 161 652 q 148 667 148 652 l 149 670 l 149 674 q 155 703 149 682 l 167 762 l 174 800 q 180 845 180 836 l 182 866 l 182 902 l 183 910 l 183 918 l 184 930 l 185 947 q 234 985 185 985 l 242 987 l 261 987 m 456 987 l 471 987 q 498 972 498 987 l 498 961 q 496 942 496 951 q 431 705 496 884 q 382 653 412 653 l 371 653 q 357 663 357 653 l 357 671 l 387 820 q 391 849 391 840 l 392 861 l 392 874 l 393 882 l 393 913 l 393 926 l 395 942 q 456 987 395 987 z "},"#":{"ha":833,"x_min":75,"x_max":798,"o":"m 547 582 l 526 582 l 522 581 l 489 578 l 471 578 q 366 564 376 578 q 351 525 355 550 q 328 442 347 499 q 309 373 309 385 l 309 370 q 319 363 309 363 l 348 363 l 352 364 l 454 363 l 472 363 q 509 392 496 363 q 560 572 560 505 l 560 575 q 547 582 560 582 m 437 45 q 416 73 416 45 q 438 175 416 100 q 460 272 460 250 q 384 294 460 294 q 288 271 307 294 q 256 186 281 261 q 224 94 232 112 q 174 47 201 47 q 147 77 147 47 q 163 143 147 81 q 179 234 179 205 q 157 283 179 262 l 143 291 l 125 294 l 105 298 q 75 327 75 309 q 127 365 75 355 q 231 392 222 383 q 257 459 239 401 q 275 538 275 518 q 230 574 275 570 q 144 600 144 581 q 174 640 144 626 q 235 651 191 647 q 303 674 280 656 q 351 766 326 693 l 359 788 l 366 811 q 387 876 385 871 q 433 900 401 900 q 454 862 454 900 q 431 765 454 848 q 407 672 407 682 q 418 656 407 662 q 495 650 430 650 q 572 659 560 650 q 612 756 583 669 q 648 858 640 844 q 701 896 667 896 q 719 877 719 896 q 705 804 719 858 q 691 715 691 750 q 706 668 691 681 q 752 655 707 668 q 798 615 798 642 q 738 579 798 584 q 637 553 651 572 q 594 405 594 493 q 646 373 594 378 q 725 341 725 366 q 699 307 725 317 q 641 296 688 302 q 565 266 593 290 q 513 165 536 242 q 483 75 491 89 q 437 45 465 45 z "},"$":{"ha":739,"x_min":75,"x_max":705,"o":"m 458 848 l 458 854 q 450 861 458 861 l 439 861 q 329 809 374 861 q 283 694 283 758 l 283 690 q 318 605 283 649 q 387 560 353 560 l 391 560 q 404 578 399 560 q 458 848 458 777 m 359 77 l 359 66 q 369 58 359 58 l 374 59 l 378 59 q 515 127 454 59 q 559 242 559 176 l 559 256 q 517 355 559 307 q 439 402 475 402 l 436 402 q 422 389 426 402 q 359 77 359 134 m 289 -120 q 266 -76 271 -120 q 242 -15 260 -32 q 180 17 224 1 q 120 45 136 33 q 75 126 75 80 q 90 187 75 173 q 122 201 105 201 q 184 147 139 201 q 262 93 229 93 q 307 142 292 93 q 353 399 353 297 q 296 480 353 435 q 214 571 239 526 q 189 691 189 615 q 256 836 189 768 q 342 896 294 875 q 423 928 391 917 q 463 947 454 939 l 474 961 l 490 991 q 524 1015 505 1015 q 549 991 542 1015 l 552 976 q 562 947 556 956 q 637 901 568 939 q 705 821 705 863 l 705 804 q 667 758 705 758 q 608 790 648 758 q 554 823 568 823 q 507 768 523 823 q 468 588 468 635 q 478 526 468 540 q 509 497 489 511 l 525 486 q 626 392 594 441 q 657 277 657 342 q 581 90 657 172 q 481 23 542 48 q 357 -29 359 -27 q 329 -81 343 -41 q 289 -120 314 -120 z "},"%":{"ha":1040,"x_min":146,"x_max":972,"o":"m 449 741 l 449 768 q 423 850 449 824 q 361 876 397 876 q 265 818 307 876 q 222 677 222 760 l 222 663 q 245 582 222 614 q 311 550 268 550 l 315 551 q 405 605 370 551 q 449 741 449 674 m 732 78 l 745 78 q 829 123 792 78 q 885 263 885 191 l 886 273 l 887 287 l 887 306 q 885 329 885 320 q 861 390 885 366 q 807 414 838 414 l 802 414 q 702 351 747 414 q 656 204 656 288 l 656 191 q 677 109 656 139 q 732 78 699 78 m 364 926 l 385 926 q 492 882 448 926 q 536 758 536 838 l 536 745 q 471 566 536 641 q 390 503 433 522 q 312 484 347 484 l 298 484 q 191 528 236 484 q 146 646 146 573 l 146 673 q 214 848 146 770 q 364 926 281 926 m 174 45 q 245 143 174 53 q 530 516 316 234 q 821 888 745 799 q 885 932 858 932 l 896 932 q 926 925 926 932 l 926 917 q 902 878 926 912 q 294 92 640 517 q 208 29 243 29 q 174 45 174 29 m 795 464 l 823 464 q 931 415 890 464 q 972 296 972 367 l 972 275 q 895 86 972 176 q 831 40 873 61 q 740 19 789 19 l 732 20 q 620 66 663 20 q 576 182 576 113 l 576 209 q 645 388 576 309 q 721 445 677 425 q 795 464 764 464 z "},"&":{"ha":975,"x_min":95,"x_max":930,"o":"m 469 593 l 476 593 q 525 617 480 593 q 609 686 570 642 q 648 777 648 730 l 648 802 q 621 862 648 838 q 557 886 593 886 l 543 886 q 448 842 487 886 q 409 745 409 798 l 409 724 q 444 615 409 665 q 469 593 460 593 m 378 69 l 404 69 q 535 105 467 69 q 604 171 604 142 l 604 176 q 555 247 604 178 q 457 389 506 315 q 387 462 408 462 q 262 364 339 462 q 218 234 218 307 l 218 228 q 267 111 218 152 q 378 69 315 69 m 832 38 q 759 52 786 52 q 702 47 731 52 q 590 35 673 43 q 503 15 578 33 q 387 -4 428 -4 l 366 -4 q 172 51 244 -4 q 113 125 131 83 q 95 207 95 168 q 136 356 95 294 q 251 475 177 417 q 326 566 326 532 q 317 601 326 576 l 304 640 q 296 719 296 673 q 371 891 296 823 q 537 959 446 959 q 679 916 629 959 q 729 806 729 873 q 654 630 729 739 q 618 568 623 583 q 592 437 592 472 q 632 377 592 403 q 691 366 649 366 q 743 377 733 366 q 761 416 745 378 q 797 472 778 454 q 893 526 856 526 q 930 495 930 526 q 861 351 930 471 q 791 176 791 231 q 810 125 791 170 q 840 65 830 79 q 850 44 850 50 q 832 38 850 38 z "},"'":{"ha":309,"x_min":162,"x_max":302,"o":"m 162 670 l 191 803 q 194 827 191 811 l 196 857 l 196 885 q 208 968 196 951 q 260 985 219 985 l 275 985 q 302 966 302 985 l 302 959 l 302 956 l 302 951 q 247 734 302 865 q 190 652 213 652 l 174 652 q 162 663 162 652 l 162 670 z "},"(":{"ha":467,"x_min":117,"x_max":516,"o":"m 326 -201 q 298 -229 326 -229 q 242 -191 270 -229 q 157 -26 197 -131 q 117 224 117 78 l 117 253 q 144 479 117 351 q 349 906 195 717 q 481 1023 446 1023 q 516 1000 516 1023 q 463 926 516 985 q 368 805 409 867 q 286 634 327 743 q 212 240 212 442 q 269 -80 212 38 q 326 -201 326 -197 z "},")":{"ha":471,"x_min":-3,"x_max":394,"o":"m 189 991 q 224 1024 189 1024 q 254 1003 234 1024 q 349 834 303 952 q 394 581 394 716 l 394 537 q 367 318 394 441 q 286 86 340 195 q 176 -91 231 -24 q 22 -229 63 -229 q -3 -210 -3 -229 q 43 -141 -3 -191 q 230 168 159 -18 q 302 573 302 354 q 210 945 302 793 q 189 991 189 981 z "},"*":{"ha":609,"x_min":156,"x_max":558,"o":"m 185 564 q 169 591 169 564 q 226 664 169 618 q 250 695 250 684 q 228 716 250 706 q 193 732 205 726 q 156 787 156 755 q 197 824 156 824 q 263 796 215 824 q 315 768 312 768 q 324 829 324 768 q 335 917 324 890 q 374 944 347 944 q 413 903 413 944 q 405 831 413 873 q 396 785 396 789 q 403 780 396 780 q 458 807 410 780 q 532 834 506 834 q 558 812 558 834 q 519 755 558 791 q 481 730 506 743 q 457 713 457 716 l 483 680 q 509 627 509 646 q 481 587 509 587 l 408 600 q 380 553 397 600 q 341 524 370 524 q 300 559 312 524 q 283 595 288 595 q 185 564 224 564 z "},"+":{"ha":751,"x_min":97,"x_max":692,"o":"m 442 456 q 567 440 442 440 q 692 417 692 440 q 675 369 692 377 q 550 361 659 361 q 435 355 441 361 q 415 235 428 349 q 399 115 401 121 q 365 97 392 97 l 353 97 q 323 124 323 97 l 345 345 q 221 355 345 355 q 97 376 97 355 q 123 429 97 420 q 246 434 140 434 q 358 448 352 434 q 372 557 360 452 q 386 669 385 663 q 425 695 393 695 l 436 695 q 465 666 465 695 l 442 456 z "},",":{"ha":349,"x_min":27,"x_max":226,"o":"m 226 106 l 226 83 q 169 -79 226 18 q 100 -160 138 -132 q 45 -187 62 -187 q 27 -170 27 -187 l 27 -167 q 49 -136 27 -163 q 109 -15 109 -62 q 97 25 109 -5 q 85 81 85 55 q 106 127 85 106 q 157 148 127 148 l 180 148 q 226 106 226 148 z "},"-":{"ha":534,"x_min":94,"x_max":473,"o":"m 473 399 l 473 391 q 452 334 473 340 q 269 328 430 328 l 254 328 l 245 328 l 222 328 l 214 327 l 145 327 l 132 326 l 110 326 q 94 341 94 326 l 94 349 q 114 406 94 400 q 298 412 135 412 l 412 414 l 456 414 q 473 399 473 414 z "},".":{"ha":342,"x_min":77,"x_max":227,"o":"m 227 79 q 205 13 227 35 q 150 -9 182 -9 l 134 -9 q 77 45 77 -9 l 77 66 q 96 120 77 98 q 134 143 115 143 q 146 146 144 146 l 161 147 l 163 147 q 224 104 224 147 l 227 94 l 227 90 l 227 82 l 227 79 z "},"/":{"ha":540,"x_min":-16,"x_max":602,"o":"m 502 948 q 565 1000 528 1000 q 602 981 602 1000 q 91 -43 602 950 q 26 -109 57 -109 l 15 -109 q -16 -92 -16 -109 q 502 948 -16 -56 z "},":":{"ha":376,"x_min":87,"x_max":322,"o":"m 322 572 l 322 551 q 301 494 322 515 q 256 473 279 473 l 241 471 l 231 471 q 173 530 173 471 l 173 537 l 174 540 l 174 547 q 176 559 176 558 q 194 601 176 578 q 234 623 212 623 q 241 624 239 624 l 252 625 l 264 625 l 281 623 q 322 572 322 623 m 155 -5 l 150 -5 q 87 54 87 -5 l 87 64 l 90 85 q 107 125 90 104 q 146 146 125 146 q 155 149 153 149 l 168 150 l 178 150 q 234 108 234 150 q 235 100 235 104 l 237 91 l 237 81 l 233 58 q 205 9 233 23 q 155 -5 176 -5 z "},";":{"ha":377,"x_min":45,"x_max":326,"o":"m 244 461 l 235 461 l 232 462 l 227 462 q 220 463 223 463 q 180 512 180 463 l 180 532 l 182 549 q 203 592 182 571 q 243 612 224 612 q 251 614 249 614 l 263 615 l 271 615 q 326 560 326 615 l 326 548 l 322 526 q 300 483 322 505 q 244 461 279 461 m 73 -168 l 65 -168 q 45 -150 45 -168 l 45 -146 q 68 -114 46 -141 q 123 -3 123 -45 q 112 40 123 13 q 101 96 101 68 q 125 143 101 124 q 184 162 149 162 l 189 162 l 194 161 q 233 149 222 161 q 245 104 245 136 l 245 96 q 187 -65 245 26 q 119 -142 155 -117 q 73 -168 83 -168 z "},"<":{"ha":755,"x_min":111,"x_max":703,"o":"m 443 525 q 339 469 443 525 q 236 402 236 412 q 406 282 236 391 q 585 165 575 173 q 621 113 621 138 q 595 69 621 69 q 149 345 557 69 q 111 398 111 371 q 162 454 111 425 q 688 731 644 731 q 703 715 703 731 q 659 644 703 675 q 443 525 649 637 z "},"=":{"ha":793,"x_min":104,"x_max":734,"o":"m 709 556 q 734 536 734 556 q 702 484 734 490 q 414 481 686 481 l 353 481 l 326 481 l 165 481 q 132 500 132 481 q 148 547 132 538 q 264 556 163 556 l 420 556 l 427 555 l 649 556 l 709 556 m 674 315 q 706 296 706 315 q 673 243 706 249 q 378 240 654 240 l 176 240 l 149 239 l 142 239 q 104 254 104 239 l 104 265 q 130 311 104 303 q 270 315 146 315 l 317 315 l 323 315 l 633 315 l 674 315 z "},">":{"ha":751,"x_min":87,"x_max":673,"o":"m 558 401 q 401 513 558 412 q 209 641 243 614 q 174 700 174 667 q 191 732 174 732 q 621 465 225 732 q 673 402 673 429 q 632 349 673 374 q 159 94 518 279 q 99 69 111 69 q 87 91 87 69 q 146 167 87 130 q 365 286 172 183 q 558 401 558 388 z "},"?":{"ha":627,"x_min":174,"x_max":613,"o":"m 276 252 q 245 315 245 252 q 272 417 245 378 q 368 523 299 457 q 470 642 436 589 q 504 750 504 696 q 474 832 504 804 q 394 859 444 859 q 286 818 345 859 q 203 777 227 777 q 180 809 180 777 l 180 819 q 200 860 180 830 q 271 917 221 890 q 393 945 321 945 l 405 945 q 554 893 496 945 q 613 768 613 841 q 580 637 613 694 q 459 502 547 580 q 361 411 371 423 q 321 308 321 363 q 286 252 321 252 l 276 252 m 324 113 l 324 97 q 299 32 324 61 q 239 2 275 2 l 222 2 q 177 38 177 2 l 175 47 l 175 52 l 174 62 l 174 67 q 197 144 174 107 q 244 164 208 164 l 261 164 q 277 162 269 162 q 324 113 324 162 z "},"@":{"ha":1183,"x_min":115,"x_max":1118,"o":"m 686 584 l 670 584 q 592 561 635 584 q 516 496 549 538 q 446 318 446 409 l 446 295 q 449 267 446 288 l 453 234 q 498 177 453 177 l 514 177 q 595 204 541 177 q 681 272 650 232 q 734 393 711 313 q 758 533 758 473 l 758 544 q 686 584 758 584 m 804 285 q 855 214 804 214 q 957 283 909 214 q 1000 377 987 326 q 1012 457 1012 428 q 937 694 1012 607 q 672 804 843 804 q 370 670 502 804 q 266 511 302 602 q 229 331 229 422 q 315 51 229 153 q 607 -72 420 -72 q 713 -56 654 -72 l 780 -36 l 808 -30 q 837 -44 837 -30 q 746 -102 837 -73 q 583 -131 654 -131 l 543 -131 q 540 -131 541 -131 q 365 -94 445 -131 q 115 321 115 22 q 162 546 115 435 q 289 734 210 657 q 471 857 368 810 q 688 903 573 903 q 1015 780 897 903 q 1118 495 1118 672 q 1048 269 1118 370 q 940 168 1002 203 q 839 132 878 132 q 750 159 801 132 q 694 186 700 186 q 624 153 688 186 q 506 119 559 119 q 413 161 452 119 q 373 284 373 203 q 408 431 373 366 q 486 540 442 496 q 681 632 578 632 l 713 630 l 743 622 l 770 618 l 792 621 l 813 622 q 850 574 850 622 l 846 539 l 823 427 q 804 285 804 334 z "},"A":{"ha":911,"x_min":24,"x_max":831,"o":"m 604 400 q 642 425 642 400 l 641 431 l 641 436 q 615 637 641 484 q 585 805 589 791 q 575 818 580 818 q 458 617 570 818 q 345 408 345 417 q 463 398 345 398 l 574 398 q 604 400 593 400 m 688 886 q 736 548 697 850 q 774 217 774 245 q 796 155 781 178 q 831 84 831 104 q 795 39 831 63 q 724 14 760 14 q 642 47 642 14 q 652 87 642 59 q 663 148 663 116 q 618 300 663 263 q 456 321 592 321 q 291 294 319 321 q 205 155 244 250 q 183 82 191 121 q 172 35 176 42 q 102 11 157 11 q 48 34 73 11 q 24 74 24 57 q 43 115 24 92 q 283 484 155 257 q 527 886 411 711 q 621 953 572 953 q 688 886 670 953 z "},"B":{"ha":824,"x_min":58,"x_max":790,"o":"m 336 536 l 415 536 q 659 652 601 536 q 679 736 679 692 l 679 749 q 632 849 679 813 q 495 884 586 884 l 470 884 q 372 861 384 884 q 345 741 361 838 l 315 572 q 313 561 313 563 l 313 550 q 336 536 313 536 m 299 77 l 370 77 q 625 203 562 77 q 647 291 647 247 l 647 320 q 579 436 647 394 q 431 468 528 468 l 389 468 q 355 466 368 466 q 292 440 301 466 q 280 377 292 438 q 267 312 268 317 l 263 292 q 246 203 260 275 q 232 106 232 132 l 232 95 q 299 77 232 77 m 761 302 q 659 87 761 169 q 382 5 557 5 l 349 4 l 282 4 l 266 5 l 217 5 q 58 20 58 5 q 86 73 58 35 q 127 166 114 112 q 200 555 155 289 q 244 841 244 821 q 232 887 244 861 q 220 924 220 913 q 408 955 220 955 l 474 955 q 711 907 641 955 q 771 841 751 880 q 790 764 790 802 l 790 730 q 747 611 790 672 q 672 541 721 574 q 623 504 623 508 l 673 470 q 734 409 707 448 q 761 302 761 370 z "},"C":{"ha":866,"x_min":95,"x_max":878,"o":"m 95 388 q 137 600 95 490 q 416 917 223 825 q 599 960 506 960 l 620 960 q 829 927 779 960 q 878 832 878 893 q 862 778 878 798 q 823 759 845 759 q 774 797 812 759 q 695 857 736 834 q 582 880 653 880 q 439 836 510 880 q 240 537 298 745 q 219 380 219 460 q 288 151 219 229 q 475 74 357 74 q 654 127 568 74 q 747 180 739 180 q 777 160 777 180 q 762 115 777 136 q 676 35 730 66 q 442 -11 599 -11 q 190 94 286 -11 q 95 388 95 199 z "},"D":{"ha":942,"x_min":63,"x_max":920,"o":"m 800 554 l 800 589 q 713 814 800 730 q 512 880 645 880 l 488 880 q 393 864 425 880 q 367 827 375 856 q 297 455 358 798 q 237 102 237 112 q 339 75 237 75 l 351 75 q 522 102 448 76 q 758 347 677 157 q 800 554 800 448 m 63 28 q 104 93 63 29 q 152 253 120 117 q 211 588 184 388 q 238 818 238 787 q 227 875 238 849 q 215 909 215 901 q 248 936 215 930 q 465 951 331 951 l 515 951 q 811 854 701 951 q 891 740 861 810 q 920 583 920 669 l 920 551 q 872 327 920 438 q 554 33 777 106 q 313 2 463 2 l 199 2 l 107 5 q 63 28 63 5 z "},"E":{"ha":810,"x_min":67,"x_max":809,"o":"m 288 -1 q 106 8 146 -1 q 67 39 67 17 l 67 56 q 92 99 67 56 q 130 201 116 142 q 248 824 248 709 q 236 869 248 840 q 224 910 224 898 q 278 943 224 932 q 607 954 332 954 l 688 954 q 787 943 765 954 q 809 894 809 932 q 792 839 809 857 q 764 821 776 821 q 722 835 752 821 q 644 862 691 848 q 487 875 596 875 q 394 831 422 875 q 355 724 378 808 q 332 602 332 639 q 361 553 332 565 q 439 541 390 541 q 543 553 489 541 q 608 566 597 566 q 638 553 620 566 q 656 506 656 541 q 633 443 656 471 q 558 415 611 415 l 539 421 l 504 438 q 411 448 475 448 q 290 399 317 448 q 256 153 256 339 q 279 99 256 121 q 356 77 302 77 q 507 89 454 77 q 613 123 559 102 q 671 144 666 144 q 703 126 703 144 q 652 19 703 47 q 477 1 618 1 l 423 0 l 396 -1 l 288 -1 z "},"F":{"ha":770,"x_min":77,"x_max":800,"o":"m 165 9 l 147 9 q 97 25 117 9 q 77 66 77 40 q 102 126 77 93 q 141 211 127 160 q 202 529 155 262 q 249 823 249 795 q 236 879 249 851 q 223 909 223 907 q 264 941 223 934 q 473 951 328 951 l 495 952 q 539 953 517 953 l 606 953 q 673 954 629 953 l 736 956 l 756 956 q 800 905 800 956 q 774 829 800 854 q 754 820 766 820 q 718 841 742 820 q 662 872 694 861 q 529 883 631 883 q 406 854 427 883 q 365 742 385 826 q 345 611 345 657 q 367 549 345 565 q 429 534 389 534 q 522 549 470 534 q 590 564 574 564 q 626 541 607 564 q 644 478 644 517 q 627 425 644 439 q 596 411 610 411 q 551 425 583 411 q 487 439 519 439 q 311 387 347 439 q 273 292 292 360 q 255 127 255 224 l 267 63 q 242 27 267 45 q 165 9 218 9 z "},"G":{"ha":924,"x_min":99,"x_max":882,"o":"m 602 950 l 628 950 q 823 926 768 950 q 867 888 852 914 q 882 839 882 861 q 864 794 882 817 q 819 771 846 771 q 768 803 806 771 q 690 852 729 836 q 579 869 650 869 q 442 830 509 869 q 329 729 376 790 q 251 581 282 668 q 220 412 220 494 q 364 120 220 194 q 479 92 419 92 q 642 140 583 92 q 700 264 700 189 q 670 344 700 312 q 618 406 618 399 q 704 425 618 425 q 815 410 791 425 q 827 369 827 403 q 782 158 827 335 q 736 57 763 84 q 622 5 709 31 q 473 -20 535 -20 l 449 -20 q 311 13 382 -20 q 191 104 240 46 q 99 391 99 214 q 141 609 99 506 q 256 791 184 711 q 421 910 328 870 q 602 950 513 950 z "},"H":{"ha":993,"x_min":60,"x_max":1002,"o":"m 806 879 q 838 924 806 907 q 936 941 869 941 q 1002 890 1002 941 q 976 850 1002 878 q 945 802 951 822 q 932 741 939 783 q 910 632 924 699 q 880 485 896 566 q 843 302 864 405 q 822 132 822 200 q 839 86 822 111 q 856 58 856 60 q 794 9 856 9 q 701 24 733 9 q 654 77 654 45 q 677 123 654 89 q 707 180 700 158 q 739 373 739 283 q 682 447 739 438 q 431 452 646 452 q 310 420 334 452 q 268 299 292 396 q 244 177 244 203 q 253 114 244 151 q 261 73 261 77 q 109 3 261 3 q 60 33 60 3 q 89 93 60 62 q 128 163 119 124 q 202 543 159 287 q 245 816 245 798 q 227 859 245 834 q 210 891 210 884 q 276 932 210 932 q 411 871 411 932 q 388 830 411 861 q 358 773 365 800 q 331 612 331 673 q 364 536 331 551 q 618 526 387 526 q 766 556 745 526 q 803 667 781 577 q 825 785 825 758 q 815 843 825 812 q 806 879 806 873 z "},"I":{"ha":454,"x_min":68,"x_max":456,"o":"m 196 -1 l 157 -1 q 92 13 116 -1 q 68 37 68 26 l 68 47 q 102 94 68 62 q 145 163 135 126 q 206 476 155 200 q 257 804 257 752 q 235 845 257 821 q 213 885 213 868 q 252 932 213 916 q 353 948 292 948 l 391 948 q 437 936 418 948 q 456 907 456 924 q 414 849 456 891 q 379 777 391 826 q 318 457 368 728 q 268 154 268 186 q 288 97 268 122 q 309 54 309 72 q 292 24 309 35 q 196 -1 254 -1 z "},"J":{"ha":551,"x_min":-13,"x_max":519,"o":"m 334 436 q 350 652 350 507 q 327 821 350 796 q 304 874 304 846 q 339 924 304 903 q 422 945 374 945 l 437 945 q 491 920 462 945 q 519 865 519 895 l 519 854 q 434 330 519 747 q 350 72 410 210 q 238 -82 307 -26 q 88 -137 169 -137 l 74 -137 q 3 -117 36 -137 q -13 -90 -13 -106 q 64 -30 -13 -49 q 163 7 140 -11 q 242 118 208 44 q 334 436 277 192 z "},"K":{"ha":886,"x_min":77,"x_max":871,"o":"m 738 916 q 820 940 768 940 q 871 911 871 940 q 793 829 871 896 q 690 736 715 762 q 496 503 496 534 q 631 246 496 471 q 736 102 684 157 q 789 24 789 48 q 722 -7 789 -7 q 624 30 654 -7 q 564 144 609 48 q 461 338 518 241 q 378 435 404 435 q 293 352 330 435 q 256 189 256 270 q 260 144 256 176 l 265 105 q 216 31 265 64 q 131 10 185 10 q 77 43 77 10 q 100 92 77 63 q 131 158 123 121 q 241 805 241 666 q 230 863 241 830 q 218 898 218 897 q 298 935 218 935 q 365 921 335 935 q 395 873 395 907 q 377 819 395 859 q 319 581 320 689 q 339 552 319 552 q 524 682 382 552 q 699 862 667 812 q 738 916 732 911 z "},"L":{"ha":760,"x_min":64,"x_max":699,"o":"m 566 -4 l 496 -4 l 478 -3 l 388 -2 q 131 4 198 -2 q 64 40 64 9 q 103 111 64 59 q 202 556 137 156 q 240 806 240 785 q 225 856 240 827 q 210 899 210 884 q 234 931 210 913 q 303 949 258 949 l 321 949 q 425 896 425 949 q 396 844 425 879 q 354 755 368 808 q 294 433 341 703 q 246 145 246 163 q 283 85 246 98 q 395 75 309 75 q 530 92 481 75 q 617 130 580 109 q 682 151 655 151 q 699 124 699 151 q 678 34 699 59 q 566 -4 646 -4 z "},"M":{"ha":1185,"x_min":72,"x_max":1165,"o":"m 237 885 q 237 886 237 885 q 309 932 237 932 q 428 845 387 932 q 557 449 470 758 q 588 345 582 361 l 601 320 q 779 557 616 320 q 822 621 800 589 l 865 685 q 968 834 943 801 l 988 861 q 1119 926 1044 926 q 1165 896 1165 926 q 1147 853 1165 893 q 1115 747 1128 813 l 1108 709 q 1089 578 1103 677 q 1050 327 1076 479 q 1025 150 1025 174 q 1037 96 1025 125 q 1049 44 1049 67 q 998 16 1049 16 q 917 38 947 16 q 887 94 887 59 q 901 145 887 107 q 925 221 916 182 q 960 472 935 259 q 986 700 986 685 q 981 714 986 714 q 817 471 964 714 q 630 176 669 227 q 550 124 590 124 q 513 166 530 124 l 502 201 q 482 275 494 226 q 454 379 469 325 l 428 490 q 385 648 406 581 q 340 715 365 715 q 278 486 330 715 q 222 223 227 257 q 216 144 218 190 q 209 83 214 98 q 181 49 205 67 q 115 31 157 31 q 72 68 72 31 l 82 94 l 117 147 q 146 250 130 174 q 243 834 243 705 l 239 863 l 237 885 z "},"N":{"ha":1004,"x_min":64,"x_max":1020,"o":"m 956 937 q 1020 879 1020 937 q 990 825 1020 867 q 945 728 961 783 q 886 450 928 673 q 832 145 843 227 q 820 57 821 62 q 782 20 810 20 q 703 70 736 20 q 515 440 661 136 q 338 745 370 745 q 322 726 328 745 q 273 485 315 707 q 231 224 231 262 q 238 151 231 186 q 245 103 245 115 q 205 39 245 67 q 114 12 164 12 q 64 40 64 12 q 93 102 64 59 q 135 205 122 144 q 247 827 247 718 q 239 874 247 848 l 231 894 l 227 910 q 273 933 227 933 q 363 906 319 933 q 439 833 408 878 q 609 503 470 788 q 764 218 749 218 l 772 233 q 819 470 778 252 q 859 783 859 687 l 858 806 q 857 848 857 829 q 956 937 857 937 z "},"O":{"ha":983,"x_min":97,"x_max":963,"o":"m 843 568 l 843 592 q 777 810 843 731 q 600 889 710 889 q 337 748 447 889 q 251 581 283 679 q 218 399 218 482 l 218 351 q 218 347 218 349 q 237 235 218 291 q 456 66 336 96 q 724 208 616 66 q 810 375 778 280 q 843 568 843 470 m 963 592 l 963 562 q 923 351 963 459 q 812 159 884 243 q 647 31 741 75 q 468 -12 553 -12 l 437 -12 q 296 18 362 -12 q 121 215 170 74 q 97 360 97 283 l 97 376 l 98 391 q 141 613 98 502 q 258 805 184 724 q 422 926 332 886 q 608 966 513 966 l 623 966 q 762 939 696 966 q 940 737 892 884 q 963 592 963 666 z "},"P":{"ha":800,"x_min":79,"x_max":826,"o":"m 350 473 l 392 473 l 399 473 l 449 475 q 463 476 456 476 q 640 545 560 476 q 692 621 672 572 q 713 712 713 669 l 713 734 q 662 847 713 806 q 517 887 612 887 l 503 887 l 496 886 q 379 854 394 886 q 342 675 374 844 q 310 499 310 506 l 310 487 q 350 473 310 473 m 234 913 q 285 944 234 935 q 488 960 376 960 l 522 960 q 804 831 743 960 q 826 739 826 787 l 826 722 q 798 599 826 659 q 600 427 739 472 q 465 404 547 410 q 337 367 382 397 q 276 304 291 336 q 261 201 261 271 q 268 158 261 199 q 274 100 274 117 q 238 31 274 62 q 150 0 201 0 l 136 0 q 79 52 79 0 q 119 146 79 68 q 157 283 135 180 q 247 849 247 704 q 240 879 247 861 q 234 913 234 898 z "},"Q":{"ha":999,"x_min":110,"x_max":975,"o":"m 210 403 l 210 378 q 284 150 210 234 q 477 65 359 65 l 490 65 q 614 106 550 65 q 784 258 714 170 q 847 389 823 307 q 871 547 871 471 l 871 571 q 798 801 871 714 q 604 888 724 888 l 591 888 q 318 734 434 888 q 240 578 269 669 q 210 403 210 487 m 950 735 q 963 700 950 735 q 975 584 975 665 q 957 426 975 502 q 893 264 938 350 q 773 103 848 178 q 697 17 697 27 q 783 -70 697 -11 q 844 -95 813 -91 q 874 -105 874 -98 q 859 -122 874 -112 q 770 -148 819 -148 l 754 -148 q 543 -91 681 -148 q 248 60 310 5 q 148 202 186 115 q 110 397 110 289 q 262 808 110 635 q 415 922 326 880 q 606 964 505 964 l 625 964 q 772 935 702 964 q 884 855 842 905 q 950 735 926 806 z "},"R":{"ha":846,"x_min":59,"x_max":792,"o":"m 338 504 l 411 504 q 610 562 536 504 q 684 724 684 621 l 684 738 q 634 845 684 806 q 503 884 585 884 l 456 884 q 368 863 380 884 q 344 767 356 842 q 317 621 332 692 q 302 532 302 550 l 302 520 q 338 504 302 504 m 210 24 q 120 7 181 7 q 59 44 59 7 l 59 59 q 88 112 59 71 q 127 199 117 153 q 199 579 160 337 q 238 843 238 822 q 234 879 238 864 l 229 893 q 221 916 221 913 q 255 947 221 939 q 395 954 290 954 l 480 954 q 706 907 633 954 q 792 739 792 851 q 661 494 792 589 q 587 419 587 439 q 673 184 587 374 q 729 105 692 142 q 766 50 766 68 q 699 1 766 1 l 680 1 q 595 59 629 1 q 538 212 574 96 q 475 366 503 328 q 377 419 435 419 q 283 361 318 419 q 248 202 248 302 l 262 104 q 210 24 262 55 z "},"S":{"ha":750,"x_min":59,"x_max":734,"o":"m 717 905 q 725 890 717 905 q 734 845 734 876 q 716 794 734 814 q 682 774 699 774 q 629 812 666 774 q 474 886 557 886 q 341 841 391 886 q 292 731 292 796 q 349 616 292 665 q 481 535 378 591 q 631 425 583 479 q 680 270 680 370 q 652 165 680 218 q 469 13 597 54 q 362 -7 406 -7 q 224 8 317 -7 q 110 36 132 24 q 59 128 59 64 q 77 191 59 172 q 106 210 94 210 q 171 164 130 210 q 253 96 211 119 q 371 73 294 73 q 505 122 448 73 q 563 243 563 172 q 514 363 563 314 q 375 453 486 391 q 223 569 264 515 q 182 709 182 623 q 203 798 182 749 q 359 941 246 896 q 467 964 417 964 l 489 964 q 676 943 614 964 q 717 905 701 935 z "},"T":{"ha":817,"x_min":132,"x_max":885,"o":"m 885 907 q 833 815 885 815 q 785 844 829 815 q 688 873 740 873 q 566 805 593 873 q 500 480 553 770 q 447 168 447 191 q 463 111 447 144 q 479 66 479 78 q 435 12 479 33 q 349 -1 406 -1 q 271 18 292 -1 q 250 49 250 37 q 284 114 250 78 q 332 211 318 150 q 435 798 435 674 q 346 869 435 869 q 248 846 296 869 q 208 820 242 843 q 157 797 174 797 q 156 797 157 797 q 132 838 132 797 q 194 947 132 922 q 439 960 228 960 l 477 960 l 496 960 l 574 959 q 848 956 834 959 q 885 907 885 949 z "},"U":{"ha":966,"x_min":153,"x_max":983,"o":"m 345 770 q 268 265 268 355 q 322 125 268 175 q 460 75 376 75 q 715 244 637 75 q 786 513 745 308 q 828 791 828 718 q 823 830 828 807 l 819 847 q 812 882 812 876 q 830 929 812 916 q 905 943 848 943 l 927 943 q 963 923 943 943 q 983 879 983 904 q 955 808 983 854 q 921 743 927 761 q 889 568 916 725 q 845 329 863 412 q 779 164 826 245 q 647 42 731 84 q 475 0 562 0 q 232 68 311 0 q 153 260 153 137 l 153 310 q 172 468 153 340 q 205 669 191 595 q 220 765 220 743 q 207 818 220 786 q 193 856 193 849 q 237 930 193 899 q 299 943 254 943 q 367 928 344 943 q 389 898 389 913 q 370 844 389 882 q 345 770 351 806 z "},"V":{"ha":907,"x_min":150,"x_max":968,"o":"m 417 167 q 713 665 451 167 q 780 861 780 793 q 815 928 780 905 q 913 951 851 951 l 934 951 q 968 916 968 951 q 954 871 968 892 q 714 500 779 614 q 473 96 555 222 q 369 3 412 3 q 322 22 338 3 q 294 96 306 41 q 260 361 282 150 q 208 750 238 572 q 175 840 200 799 q 150 888 150 882 q 205 944 150 944 q 350 864 350 944 l 339 785 q 372 472 339 750 q 409 181 406 195 q 417 167 412 167 z "},"W":{"ha":1310,"x_min":195,"x_max":1311,"o":"m 242 904 q 349 743 349 904 l 346 713 q 343 649 343 682 q 372 316 343 508 q 401 261 380 261 q 423 283 408 261 q 570 543 508 404 q 642 760 631 681 q 682 864 651 838 q 757 890 713 890 q 818 864 801 890 q 836 765 836 839 q 846 623 836 692 q 865 415 857 555 q 880 261 874 276 q 897 246 885 246 l 908 256 q 1037 470 961 315 q 1126 661 1114 626 q 1157 764 1139 695 q 1196 866 1175 833 q 1277 916 1228 916 q 1311 877 1311 916 q 1275 764 1311 854 q 1018 222 1164 485 q 850 82 941 82 q 812 111 836 82 q 732 385 762 168 q 697 602 703 602 q 583 416 692 602 q 404 140 473 231 q 314 81 359 81 q 277 118 300 81 q 245 223 254 155 q 220 570 220 433 q 208 759 220 707 q 195 841 195 810 q 211 888 195 871 q 242 904 226 904 z "},"X":{"ha":889,"x_min":31,"x_max":920,"o":"m 793 37 q 717 3 793 3 l 692 3 q 608 23 637 3 q 578 102 578 43 q 494 335 578 160 q 458 385 470 385 q 278 171 422 385 q 232 83 248 126 q 213 38 215 41 q 109 6 186 6 q 31 32 31 6 q 76 90 31 57 q 173 179 122 123 q 314 350 223 235 q 404 512 404 465 q 290 767 404 559 q 231 842 266 812 q 195 896 195 873 q 235 930 195 920 q 327 937 257 937 q 388 904 370 937 q 393 857 393 895 q 484 631 393 793 q 509 600 501 600 q 669 762 552 600 q 722 860 703 808 q 751 918 742 911 q 853 945 786 945 q 920 922 920 945 l 920 911 q 845 844 920 903 q 739 728 820 824 q 567 495 567 522 q 692 178 567 439 q 753 97 713 134 q 793 37 793 59 z "},"Y":{"ha":836,"x_min":151,"x_max":880,"o":"m 459 536 q 661 758 492 536 q 703 819 698 806 q 715 857 708 831 q 732 893 722 882 q 823 924 758 924 l 851 924 q 880 907 880 924 q 813 839 880 898 q 679 665 781 810 q 539 451 577 519 q 480 295 501 383 q 459 171 459 206 q 473 107 459 136 q 487 62 487 77 q 461 27 487 47 q 390 6 435 6 l 353 6 q 290 20 314 6 q 266 54 266 34 q 294 112 266 74 q 330 172 322 151 q 358 358 358 254 q 279 670 358 463 q 229 784 246 754 q 181 843 211 814 q 151 888 151 873 q 227 916 151 916 q 324 881 302 916 q 331 835 328 876 q 363 733 335 794 q 459 536 454 536 z "},"Z":{"ha":831,"x_min":53,"x_max":857,"o":"m 53 45 q 361 459 53 95 q 669 839 669 824 q 652 868 669 863 q 557 872 635 872 l 530 871 q 479 871 504 871 q 340 843 399 871 q 231 798 245 798 q 199 850 199 798 q 255 932 199 903 q 395 951 293 951 l 472 951 l 498 951 l 709 951 q 810 950 804 951 q 857 909 857 945 q 549 518 857 906 q 241 112 241 130 q 279 78 241 85 q 420 74 302 74 q 580 85 538 74 q 670 125 621 96 q 730 154 718 154 q 761 104 761 154 q 709 22 761 54 q 564 -10 657 -10 l 537 -10 l 198 -2 q 78 7 103 -2 q 53 45 53 16 z "},"[":{"ha":484,"x_min":80,"x_max":536,"o":"m 446 1023 l 497 1023 q 536 1002 536 1023 q 503 960 536 970 q 438 953 488 956 q 374 944 387 950 q 329 876 348 932 q 276 575 309 819 q 212 144 242 332 q 182 -84 182 -43 q 199 -138 182 -125 q 266 -157 216 -151 q 332 -171 315 -162 q 348 -208 348 -179 q 302 -228 348 -228 l 201 -228 q 101 -217 122 -228 q 80 -159 80 -206 q 123 165 80 -113 q 173 485 167 442 q 249 953 230 900 q 293 1014 269 1006 q 446 1023 317 1023 z "},"\\":{"ha":552,"x_min":99,"x_max":488,"o":"m 488 -90 q 456 -119 488 -119 l 445 -119 q 399 -78 412 -119 q 333 156 398 -73 q 258 414 267 385 q 201 616 249 444 q 126 874 153 788 q 99 975 99 960 l 99 985 q 130 1004 99 1004 l 141 1004 q 187 964 174 1004 l 454 29 q 488 -90 488 -87 z "},"]":{"ha":484,"x_min":-6,"x_max":446,"o":"m 182 1004 q 229 1023 182 1023 l 312 1023 l 329 1022 q 382 1021 346 1021 q 432 1007 418 1021 q 446 956 446 993 l 446 925 q 366 382 446 897 q 279 -150 285 -133 q 235 -218 261 -209 q 81 -227 208 -227 l 47 -229 q -6 -207 -6 -229 q 94 -158 -6 -164 q 169 -143 154 -155 q 224 38 199 -120 q 348 875 348 829 q 333 934 348 921 q 262 954 319 947 q 202 964 206 962 q 182 1004 182 974 z "},"^":{"ha":708,"x_min":142,"x_max":643,"o":"m 433 913 l 441 913 q 487 872 464 913 q 576 678 510 830 q 643 519 643 526 q 600 501 643 502 q 499 652 569 501 q 417 804 429 804 q 363 728 416 804 q 278 605 309 652 q 224 530 247 557 q 172 502 202 502 q 142 512 142 502 q 319 785 142 530 q 433 913 408 913 z "},"_":{"ha":696,"x_min":-13,"x_max":621,"o":"m 553 -74 q 621 -90 621 -74 q 587 -144 621 -144 l 551 -145 l 104 -145 l 82 -146 l 54 -146 q -13 -130 -13 -146 q 22 -76 -13 -76 l 540 -74 l 553 -74 z "},"`":{"ha":460,"x_min":166,"x_max":376,"o":"m 166 938 l 166 949 q 212 970 166 970 l 216 970 q 283 936 262 970 q 376 753 376 787 l 376 750 q 356 734 376 734 l 353 734 l 350 734 q 247 826 327 734 q 166 938 166 918 z "},"a":{"ha":709,"x_min":58,"x_max":639,"o":"m 164 248 l 164 227 q 190 119 164 159 q 258 79 215 79 l 272 79 q 357 111 307 79 q 440 196 407 144 q 498 326 474 248 q 522 463 522 405 l 523 477 l 523 504 q 504 562 523 547 q 427 585 473 585 l 420 585 q 251 489 328 585 q 188 373 212 441 q 164 248 164 304 m 639 576 l 639 559 q 611 393 639 538 q 584 207 584 248 q 609 141 584 166 q 633 95 633 117 q 611 53 633 73 q 560 32 588 32 q 499 67 532 32 q 435 102 467 102 q 352 61 427 102 q 216 20 277 20 l 205 20 q 98 75 139 20 q 58 205 58 129 q 172 517 58 379 q 427 646 280 646 q 617 612 498 646 q 639 576 639 606 z "},"b":{"ha":710,"x_min":75,"x_max":673,"o":"m 203 182 l 203 155 q 232 89 203 114 q 314 63 261 63 l 321 63 l 328 64 q 490 160 415 64 q 547 279 526 207 q 569 403 569 352 l 569 417 q 541 532 569 490 q 461 574 512 574 l 448 574 q 361 543 411 574 q 280 462 311 513 q 226 331 249 412 q 203 182 203 250 m 252 994 l 279 994 q 317 976 302 994 q 332 925 332 958 q 309 770 332 893 q 286 617 286 648 q 326 582 286 582 q 398 602 337 582 q 500 622 460 622 q 627 563 581 622 q 673 421 673 505 q 643 257 673 337 q 566 122 614 178 q 326 3 463 3 q 220 23 278 3 q 153 43 162 43 l 121 41 q 75 76 75 41 l 75 87 q 106 248 75 88 l 134 392 l 139 425 l 142 441 q 210 824 210 799 q 199 879 210 850 q 189 932 189 907 q 208 976 189 957 q 252 994 227 994 z "},"c":{"ha":605,"x_min":66,"x_max":589,"o":"m 66 220 l 66 250 q 96 403 66 330 q 285 621 161 561 q 405 653 351 653 l 433 653 q 547 625 505 653 q 589 567 589 597 q 573 522 589 537 q 541 507 557 507 q 482 543 525 507 q 398 578 439 578 q 312 548 357 578 q 232 462 267 518 q 178 229 178 376 q 217 119 178 163 q 312 74 255 74 q 415 94 368 74 l 464 119 q 507 134 493 134 q 529 111 529 134 q 447 34 529 76 q 301 -9 364 -9 l 272 -9 q 125 57 184 -9 q 66 220 66 123 z "},"d":{"ha":730,"x_min":64,"x_max":728,"o":"m 170 260 l 170 227 q 200 118 170 159 q 277 77 230 77 l 291 77 q 367 100 322 77 q 441 171 411 124 q 500 315 472 218 q 528 484 528 412 l 528 504 q 414 583 528 583 l 407 583 q 248 489 320 583 q 192 378 214 445 q 170 260 170 312 m 64 226 q 100 389 64 304 q 192 534 135 475 q 305 616 248 594 q 453 638 361 638 q 565 664 545 638 q 605 819 605 714 q 593 871 605 844 q 581 921 581 898 q 614 970 581 944 q 682 996 648 996 q 728 955 728 996 q 663 581 728 914 q 597 194 597 247 q 597 189 597 191 q 610 111 597 140 q 624 74 624 81 q 559 31 624 31 q 510 50 537 31 q 456 68 484 68 l 448 69 l 432 73 q 405 74 428 74 q 336 49 400 74 q 239 24 272 24 l 225 24 q 110 76 156 24 q 64 208 64 128 l 64 226 z "},"e":{"ha":635,"x_min":68,"x_max":610,"o":"m 423 593 l 406 593 q 264 518 332 593 q 197 380 197 444 l 198 376 l 198 373 q 218 355 198 355 l 226 355 l 231 355 q 442 408 317 355 q 511 490 511 436 l 511 498 l 510 503 q 487 566 510 540 q 423 593 463 593 m 301 -5 l 273 -5 q 126 62 184 -5 q 68 224 68 129 l 68 252 q 99 408 68 328 q 180 543 131 488 q 294 628 229 597 q 425 659 358 659 l 438 659 q 561 617 513 659 q 610 513 610 575 l 610 499 q 550 382 610 421 q 420 326 491 343 q 288 298 349 309 q 214 281 227 287 q 183 213 183 268 q 223 119 183 157 q 343 81 263 81 q 480 127 392 81 q 521 141 508 141 q 538 119 538 141 q 458 38 538 82 q 301 -5 377 -5 z "},"f":{"ha":461,"x_min":-3,"x_max":601,"o":"m 460 911 q 378 859 417 911 q 339 731 339 807 q 350 678 339 692 q 407 648 360 663 q 454 616 454 632 q 394 575 454 596 q 317 522 333 553 q 241 229 283 454 q 180 -46 199 4 q 129 -130 162 -96 q 58 -163 95 -163 l 43 -163 q -3 -140 -3 -163 q 39 -59 -3 -108 q 105 73 81 -11 q 166 464 166 281 l 167 479 l 168 494 q 168 526 168 494 q 151 572 168 545 q 133 616 133 599 q 166 655 133 633 q 211 696 200 678 q 235 748 222 715 l 259 817 q 412 983 309 941 q 500 1000 455 1000 l 518 1000 q 579 985 558 1000 q 601 950 601 970 q 584 912 601 930 q 543 894 567 894 q 510 903 543 894 q 460 911 478 911 z "},"g":{"ha":728,"x_min":41,"x_max":671,"o":"m 176 265 q 307 75 176 75 l 314 76 q 394 100 343 76 q 530 288 489 145 q 557 440 557 380 l 556 448 l 556 455 q 535 547 556 523 q 429 583 504 583 l 413 583 q 322 555 366 583 q 246 482 278 527 q 176 272 176 385 l 176 265 m 214 -2 q 68 214 68 -2 q 99 369 69 289 q 305 598 160 531 q 426 629 373 629 q 503 617 478 629 q 550 588 528 605 q 579 572 572 572 q 602 587 585 572 q 630 603 619 603 q 671 553 671 603 q 634 383 671 537 q 567 53 598 229 q 516 -160 535 -123 q 401 -286 476 -238 q 236 -334 327 -334 l 216 -334 q 99 -305 156 -334 q 41 -243 41 -276 l 41 -231 q 99 -198 41 -198 q 128 -203 112 -198 l 157 -212 q 232 -219 190 -219 q 322 -200 275 -219 q 404 -141 370 -181 q 463 45 463 -72 q 455 71 463 71 q 410 51 448 71 q 351 23 373 32 q 214 -2 288 -2 z "},"h":{"ha":728,"x_min":75,"x_max":637,"o":"m 274 987 q 333 916 332 986 q 307 747 333 879 q 280 588 280 615 q 304 562 280 562 q 383 592 317 562 q 506 623 449 623 q 600 582 562 623 q 637 455 637 541 q 616 290 637 416 q 595 137 595 163 l 600 76 q 553 38 600 38 q 495 134 495 38 q 514 280 495 175 q 532 416 532 385 q 425 555 532 555 q 353 525 393 555 q 282 438 313 495 q 236 313 252 382 q 207 170 220 245 q 191 87 193 94 q 126 14 168 14 l 113 14 q 75 66 75 14 q 100 179 75 72 q 169 528 125 286 q 213 798 213 771 q 207 857 213 825 q 201 890 201 889 q 224 960 201 932 q 274 987 247 987 z "},"i":{"ha":385,"x_min":98,"x_max":366,"o":"m 302 942 l 310 942 l 326 939 q 363 901 363 939 l 366 888 l 366 871 l 363 854 q 346 815 363 836 q 314 794 329 794 q 308 793 310 793 l 298 791 l 294 791 l 291 792 l 287 792 l 278 794 q 237 831 237 794 l 235 846 l 235 863 l 238 880 q 258 922 238 902 q 302 942 278 942 m 98 69 l 98 84 q 112 148 98 94 q 182 496 182 427 q 162 552 182 530 q 143 587 143 573 q 176 634 143 616 q 257 652 208 652 l 264 652 q 303 607 303 652 l 303 598 q 271 413 303 565 q 238 210 238 261 q 261 137 238 158 q 285 106 285 116 q 244 45 285 73 q 151 17 203 17 q 98 69 98 17 z "},"j":{"ha":374,"x_min":-104,"x_max":372,"o":"m 369 857 q 348 811 369 832 q 296 791 328 791 l 283 791 q 277 792 279 792 q 243 829 243 792 q 241 836 241 833 l 240 845 l 240 859 l 243 878 q 262 922 243 902 q 300 941 282 941 l 302 942 l 305 943 l 320 943 q 368 907 368 943 q 370 898 370 900 l 372 884 l 372 879 l 371 876 l 371 869 q 369 857 369 859 m -39 -266 l -61 -266 q -104 -237 -104 -266 l -104 -227 q -89 -198 -104 -216 q -36 -181 -73 -181 q 33 -150 1 -181 q 84 -62 66 -119 q 144 222 102 -5 q 186 486 186 450 q 166 552 186 523 q 145 598 145 582 q 173 631 145 614 q 254 648 200 648 q 288 631 269 648 q 306 573 306 614 l 306 562 q 282 398 306 526 q 251 229 258 270 q 177 -87 214 -1 q 84 -219 141 -173 q -39 -266 26 -266 z "},"k":{"ha":684,"x_min":89,"x_max":621,"o":"m 201 947 q 258 991 201 991 l 276 991 q 312 975 297 991 q 327 938 327 960 q 290 694 327 916 q 253 442 253 473 q 273 411 253 411 q 411 522 275 411 q 568 633 547 633 q 621 617 621 633 q 514 489 621 595 q 408 338 408 382 q 494 167 408 313 q 547 99 516 130 q 578 51 578 68 q 528 20 578 20 q 457 42 477 20 q 380 185 437 63 q 298 308 323 308 q 241 259 262 308 q 211 146 227 224 q 176 44 195 68 q 114 20 157 20 q 89 75 89 20 l 214 848 q 208 894 214 865 q 201 947 201 924 z "},"l":{"ha":375,"x_min":89,"x_max":355,"o":"m 199 949 q 296 999 199 999 l 307 999 q 355 943 355 999 q 290 587 355 940 q 224 187 224 233 q 242 117 224 140 q 261 105 245 113 q 277 86 277 97 q 239 32 277 57 q 160 7 202 7 l 150 7 q 105 27 121 7 q 89 70 89 46 l 89 80 q 111 197 89 99 q 184 567 133 296 q 235 862 235 839 q 217 910 235 886 q 199 949 199 935 z "},"m":{"ha":1082,"x_min":100,"x_max":997,"o":"m 458 545 q 367 510 414 545 q 290 431 319 476 l 275 408 q 237 302 255 370 l 218 221 l 210 196 q 143 62 165 62 q 118 78 136 62 q 100 121 100 95 q 108 194 100 148 l 121 267 q 132 376 130 327 q 149 490 134 426 q 200 592 171 592 q 249 569 224 592 q 283 546 274 546 q 315 559 293 546 l 334 572 q 502 640 440 640 l 529 640 q 627 576 591 640 q 656 537 649 537 q 743 577 675 537 q 861 616 810 616 q 997 470 997 616 q 976 313 997 425 q 955 117 955 201 q 935 34 955 34 q 884 78 903 34 q 865 193 865 122 q 877 290 865 209 q 888 417 888 371 q 861 495 888 463 q 802 527 833 527 q 608 233 683 527 q 597 181 601 206 l 589 132 q 560 34 574 62 q 500 7 545 7 q 455 41 455 7 l 457 66 q 471 129 458 79 q 531 453 531 361 q 458 545 531 545 z "},"n":{"ha":744,"x_min":87,"x_max":661,"o":"m 87 79 q 117 203 87 104 q 145 349 145 300 l 144 411 l 143 424 l 141 463 q 139 490 139 483 q 161 587 139 547 q 219 627 184 627 q 268 577 254 627 q 299 526 281 526 q 347 560 302 526 q 434 613 392 594 q 535 632 475 632 q 627 596 594 632 q 661 493 661 559 l 661 474 q 638 323 661 448 q 615 162 615 199 q 630 100 615 126 q 646 66 646 74 q 578 44 646 44 q 525 75 543 44 q 507 137 507 105 q 527 288 507 170 q 547 450 547 406 q 525 530 547 495 q 465 565 503 565 q 381 535 427 565 q 299 450 335 505 q 237 280 264 396 l 229 243 q 193 87 197 98 q 138 30 170 30 q 87 79 87 30 z "},"o":{"ha":690,"x_min":69,"x_max":659,"o":"m 300 64 l 321 64 q 397 87 356 64 q 528 269 483 134 q 549 385 549 332 l 549 422 q 518 541 549 488 q 428 593 487 593 l 406 593 q 323 567 363 593 q 199 389 234 509 q 178 265 178 313 l 178 228 q 211 115 178 167 q 300 64 244 64 m 308 -8 l 287 -8 q 131 60 192 -8 q 69 237 69 127 l 69 258 q 100 419 69 342 q 286 632 162 570 q 411 664 350 664 l 442 664 q 596 595 534 664 q 659 429 659 526 l 659 398 q 631 253 659 331 q 433 22 573 92 q 308 -8 374 -8 z "},"p":{"ha":727,"x_min":1,"x_max":692,"o":"m 223 178 l 223 157 q 250 89 223 114 q 330 64 277 64 l 337 64 q 514 169 433 64 q 570 278 549 214 q 591 400 591 342 l 591 430 q 561 541 591 496 q 475 586 530 586 l 468 586 l 461 585 q 372 553 416 585 q 248 338 284 491 q 223 178 223 235 m 167 -105 l 178 -196 q 134 -278 178 -239 q 45 -316 90 -316 q 1 -290 1 -316 l 1 -278 q 26 -201 1 -269 q 106 149 51 -132 q 161 460 161 429 q 154 520 161 490 q 147 567 147 549 q 163 599 147 585 q 220 613 178 613 q 246 605 224 613 q 287 597 267 597 q 362 615 306 597 q 468 633 418 633 l 481 633 q 633 573 575 633 q 692 414 692 513 l 692 399 q 656 239 692 317 q 564 105 621 161 q 433 25 507 48 q 304 4 393 13 q 197 -16 215 -5 q 167 -105 167 -34 z "},"q":{"ha":714,"x_min":71,"x_max":676,"o":"m 172 229 q 201 124 172 166 q 276 83 230 83 l 290 83 q 381 114 331 83 q 463 194 432 144 q 518 327 493 244 q 543 486 543 410 l 543 499 q 443 592 543 592 l 422 592 q 252 492 330 592 q 197 383 220 449 q 174 272 174 317 l 172 258 l 172 229 m 528 -283 q 516 -295 528 -283 q 467 -307 505 -307 q 409 -289 429 -307 q 388 -249 388 -271 q 421 -126 388 -227 q 455 33 455 -25 q 429 62 455 62 q 398 54 420 62 q 253 30 329 30 q 124 87 178 30 q 71 241 71 145 l 71 257 q 98 399 71 326 q 297 625 159 560 q 409 653 355 653 q 512 634 463 653 q 570 614 562 614 l 644 633 q 676 597 676 633 q 664 542 676 593 q 640 422 652 490 l 633 389 l 631 373 l 624 340 l 612 275 l 603 226 q 543 -168 543 -92 l 550 -229 q 528 -283 550 -260 z "},"r":{"ha":531,"x_min":90,"x_max":538,"o":"m 166 617 q 214 635 180 635 q 261 616 248 635 q 280 562 275 598 q 295 525 286 525 q 332 551 303 525 q 491 637 426 637 q 538 596 538 637 l 538 588 q 526 562 538 572 q 445 532 496 538 q 328 474 363 524 q 237 157 258 374 q 214 48 231 92 q 154 4 197 4 l 144 4 q 90 52 90 4 l 90 62 q 105 149 90 96 l 119 193 q 143 298 127 222 q 158 413 158 374 q 151 489 158 452 q 144 533 144 526 l 142 551 q 166 617 142 587 z "},"s":{"ha":572,"x_min":44,"x_max":532,"o":"m 136 468 q 199 600 136 547 q 343 652 262 652 l 373 652 q 486 628 439 652 q 532 574 532 603 q 493 524 532 524 q 432 556 477 524 q 340 589 386 589 q 263 562 294 589 q 233 497 233 534 q 269 426 233 459 q 357 370 281 414 q 464 289 433 326 q 495 199 495 251 q 426 51 495 112 q 245 -10 356 -10 q 104 15 164 -10 q 44 84 44 41 q 58 121 44 102 q 96 140 71 140 q 134 116 105 140 q 168 89 163 92 q 267 59 212 59 q 358 91 321 59 q 394 169 394 122 q 350 250 394 215 q 268 298 342 256 q 165 377 193 340 q 136 468 136 414 z "},"t":{"ha":477,"x_min":117,"x_max":458,"o":"m 300 103 l 363 111 q 391 82 391 111 q 353 33 391 54 q 238 1 294 1 l 226 1 q 151 38 179 1 q 123 134 123 75 q 151 333 123 194 q 178 513 178 472 q 155 569 178 554 q 117 604 117 593 q 159 646 117 628 q 214 680 201 663 q 243 748 227 696 q 267 816 259 801 q 322 853 288 853 q 353 814 353 853 l 351 802 l 348 775 q 343 710 343 730 q 354 677 343 690 q 412 652 366 665 q 458 615 458 638 q 393 579 458 592 q 311 532 328 567 q 263 368 290 484 q 237 186 237 252 q 300 103 237 103 z "},"u":{"ha":743,"x_min":105,"x_max":659,"o":"m 200 612 q 267 500 267 612 q 242 352 267 464 q 218 186 218 239 q 240 105 218 133 q 301 77 262 77 q 390 117 340 77 q 477 218 440 157 q 550 459 513 280 q 568 540 565 530 q 613 604 587 604 q 644 587 629 604 q 659 544 659 570 q 652 484 659 517 l 639 410 q 631 296 631 355 l 640 159 q 621 59 640 93 q 568 24 602 24 q 507 71 519 24 q 465 117 494 117 q 444 103 463 117 q 224 18 326 18 q 138 52 172 18 q 105 143 105 86 l 105 161 q 133 338 105 187 q 160 511 160 490 q 149 559 160 532 q 138 593 138 587 q 200 612 138 612 z "},"v":{"ha":677,"x_min":94,"x_max":674,"o":"m 94 585 q 182 637 94 637 q 231 617 212 637 q 267 528 250 597 q 291 294 284 459 q 319 130 298 130 q 348 157 326 130 q 493 377 452 290 q 539 495 533 465 q 549 566 546 526 q 559 616 553 606 q 642 652 584 652 q 674 616 674 652 l 674 604 q 644 509 674 572 q 471 190 535 286 q 286 9 350 9 q 229 48 243 9 q 203 205 214 88 q 172 399 193 321 q 145 487 150 477 q 117 530 140 496 q 94 585 94 563 z "},"w":{"ha":1002,"x_min":127,"x_max":965,"o":"m 663 29 q 556 248 612 29 q 511 378 523 378 q 465 307 509 378 q 352 151 421 235 q 254 66 283 66 q 222 84 242 66 q 197 126 203 102 q 180 237 191 151 q 149 401 170 323 q 127 517 127 479 q 149 627 127 605 l 160 634 l 177 634 q 243 577 224 634 q 263 357 248 565 q 309 149 279 149 q 410 321 332 149 q 469 489 441 391 q 505 597 497 587 q 567 623 525 623 q 623 572 610 623 q 631 497 629 544 q 648 301 632 450 q 682 153 664 153 q 791 319 708 153 q 860 490 831 398 q 895 589 889 582 q 948 626 919 626 q 965 579 965 626 q 941 468 965 532 q 778 115 871 276 q 718 47 750 66 q 663 29 686 29 z "},"x":{"ha":669,"x_min":18,"x_max":656,"o":"m 312 229 q 198 94 300 229 q 91 -4 123 -4 l 77 -4 q 18 29 18 -4 q 73 91 18 55 q 155 157 129 127 q 273 326 273 292 q 205 497 273 401 q 161 534 199 506 q 124 585 124 563 q 134 604 124 596 q 210 629 164 629 q 281 594 256 629 q 330 495 296 573 q 377 417 363 417 q 467 513 391 417 q 510 575 480 530 q 553 629 540 620 q 591 640 566 640 l 606 640 q 656 613 656 640 q 540 490 656 610 q 423 320 423 369 q 500 144 423 271 q 551 96 515 121 q 588 58 588 72 q 577 37 588 45 q 499 15 548 15 q 421 52 450 15 q 366 152 403 75 q 312 229 330 229 z "},"y":{"ha":672,"x_min":37,"x_max":669,"o":"m 282 31 q 237 159 282 51 q 174 348 191 267 q 150 456 157 430 q 122 518 142 483 q 102 561 102 553 q 124 584 102 569 q 178 599 146 599 q 231 568 210 599 q 268 488 252 536 q 302 301 283 439 q 337 163 320 163 q 373 182 353 163 q 460 310 414 220 q 519 445 505 399 q 543 542 534 491 q 560 604 552 592 q 626 639 583 639 q 669 611 669 639 q 605 435 669 583 q 376 -35 446 72 q 220 -214 306 -141 q 73 -286 135 -286 l 62 -286 q 37 -265 37 -286 q 103 -208 37 -231 q 207 -143 170 -185 q 282 31 282 -57 z "},"z":{"ha":640,"x_min":45,"x_max":621,"o":"m 591 644 q 621 613 621 644 q 422 372 621 582 q 224 117 224 162 q 358 85 224 85 q 473 102 434 85 q 526 119 513 119 q 558 76 558 119 q 518 12 558 34 q 416 -9 478 -9 l 399 -9 q 270 0 359 -9 q 131 10 182 10 l 83 8 q 45 37 45 8 q 247 297 45 78 q 449 543 449 516 q 342 564 449 564 q 230 544 292 564 q 155 523 168 523 q 132 564 132 523 q 155 623 132 605 q 277 651 191 651 l 295 651 q 399 644 332 651 q 494 636 466 636 l 591 644 z "},"{":{"ha":488,"x_min":92,"x_max":539,"o":"m 212 400 q 235 370 212 393 q 269 319 258 348 q 281 246 281 291 q 258 102 281 201 q 236 -46 236 2 q 251 -116 236 -94 q 309 -159 266 -139 q 353 -205 353 -179 q 328 -231 353 -231 l 311 -231 q 183 -187 225 -231 q 140 -68 140 -143 q 165 88 140 -23 q 189 248 189 199 q 173 318 189 296 q 124 357 157 341 q 92 396 92 374 q 147 442 92 410 q 224 520 202 474 q 262 722 246 567 q 312 925 278 876 q 511 1022 380 1021 q 539 1004 539 1022 q 475 951 539 972 q 387 882 410 930 q 354 718 363 835 q 326 546 345 602 q 285 466 307 490 q 237 423 262 441 q 212 400 212 404 z "},"|":{"ha":385,"x_min":123,"x_max":308,"o":"m 123 -233 l 123 -221 q 151 109 123 -168 q 198 644 179 385 q 228 983 217 903 q 271 1024 233 1024 l 284 1024 q 308 1009 308 1024 q 302 937 308 994 q 292 819 297 880 q 282 715 286 758 q 252 327 278 673 q 202 -207 227 -19 q 160 -250 197 -250 q 123 -233 123 -250 z "},"}":{"ha":495,"x_min":4,"x_max":446,"o":"m 225 1023 q 398 850 398 1023 q 375 699 398 812 q 352 547 352 586 q 411 440 352 472 q 446 404 446 421 q 392 352 446 381 q 317 273 338 323 q 278 71 296 222 q 228 -132 260 -80 q 37 -229 165 -229 q 4 -217 4 -229 q 68 -160 4 -182 q 155 -93 133 -139 q 190 81 176 -47 q 220 259 203 210 q 272 342 238 309 q 309 374 284 355 q 334 396 334 393 q 309 425 334 399 q 262 549 262 474 q 286 697 262 593 q 310 848 310 800 q 290 920 310 897 q 227 957 282 930 q 193 1006 193 973 q 225 1023 193 1023 z "},"~":{"ha":728,"x_min":107,"x_max":691,"o":"m 523 366 l 502 366 q 387 410 468 366 q 266 455 305 455 q 180 414 227 455 q 120 374 134 374 q 107 389 107 374 l 107 395 q 180 498 107 443 q 275 532 224 532 l 296 532 q 413 487 327 532 q 536 442 499 442 q 616 483 572 442 q 675 524 660 524 q 691 509 691 524 l 691 503 q 634 412 691 458 q 523 366 578 366 z "},"":{"ha":380,"x_min":0,"x_max":0,"o":""},"":{"ha":382,"x_min":62,"x_max":352,"o":"m 297 774 l 313 772 q 352 724 352 772 l 352 707 q 333 658 352 682 q 291 634 314 634 q 284 633 287 633 l 275 631 l 260 631 q 249 633 254 633 q 208 682 208 633 l 208 698 q 211 722 211 711 q 231 753 211 733 q 271 772 250 772 l 285 774 l 297 774 m 273 497 l 273 483 q 264 419 273 474 q 253 342 256 364 q 247 297 250 320 q 241 260 243 274 q 236 226 239 246 q 231 189 233 205 q 175 -156 197 -79 q 104 -203 161 -203 l 96 -203 q 62 -180 62 -203 l 62 -173 q 205 463 62 -83 q 248 510 217 510 l 255 510 q 273 497 273 510 z "},"":{"ha":641,"x_min":104,"x_max":615,"o":"m 204 317 l 204 287 q 232 177 204 232 q 286 123 259 123 l 290 123 q 311 149 304 123 q 417 610 417 572 l 417 616 q 411 623 417 623 l 408 623 q 341 593 389 623 q 262 509 294 562 q 204 317 204 412 m 104 260 l 104 292 q 189 537 104 425 q 342 663 245 612 q 407 701 390 687 q 447 759 424 714 q 488 803 469 803 q 513 772 504 803 q 553 683 531 705 q 615 595 615 621 q 572 555 615 555 q 537 573 567 555 q 498 591 507 591 q 460 556 472 591 q 411 360 448 522 q 374 152 374 198 q 402 122 374 122 q 473 140 431 122 q 526 159 515 159 q 545 142 545 159 q 417 50 545 104 q 370 22 386 37 q 328 -40 354 7 q 277 -87 302 -87 q 261 -46 261 -87 q 250 12 261 -6 q 204 54 247 16 q 133 145 161 91 q 104 260 104 199 z "},"":{"ha":771,"x_min":50,"x_max":743,"o":"m 652 72 q 493 -34 652 -34 l 469 -34 q 340 -25 425 -34 q 220 -17 256 -17 q 146 -22 184 -17 q 102 -26 108 -26 q 50 11 50 -26 q 103 75 50 31 q 172 153 157 119 q 209 329 209 231 q 172 384 209 365 q 134 418 134 404 q 175 465 134 437 q 219 498 216 494 q 237 583 221 503 q 345 840 273 760 q 592 943 439 943 q 697 918 652 943 q 743 860 743 892 l 743 844 q 699 806 743 806 q 632 831 672 806 q 550 856 592 856 q 468 833 508 856 q 405 774 429 810 q 344 559 344 684 q 366 499 344 519 q 450 472 387 480 q 513 437 513 463 q 439 397 513 419 q 339 342 366 376 q 287 240 313 309 q 260 129 260 171 q 283 71 260 87 q 384 54 307 54 q 525 85 461 54 q 604 115 589 115 q 652 72 652 115 z "},"":{"ha":755,"x_min":115,"x_max":711,"o":"m 383 283 l 401 283 q 531 347 477 283 q 585 496 585 411 l 585 501 q 544 613 585 569 q 440 658 503 658 l 429 658 l 422 657 q 293 595 346 657 q 240 450 240 532 l 240 432 q 278 328 240 372 q 383 283 316 283 m 648 561 q 652 540 648 561 q 655 485 655 519 q 644 421 655 450 q 615 358 633 393 q 598 308 598 323 q 625 259 598 292 q 652 213 652 227 q 613 174 652 174 q 568 205 598 174 q 511 237 537 237 q 460 225 507 237 q 378 214 414 214 q 307 222 342 214 l 254 234 q 200 200 237 234 q 149 165 163 165 q 115 203 115 165 l 115 214 q 146 258 115 217 q 178 321 178 298 q 171 363 178 323 q 163 448 163 403 q 189 556 163 493 q 215 630 215 618 q 191 675 215 642 q 167 722 167 708 q 211 762 167 762 q 252 731 223 762 q 309 700 281 700 q 361 712 311 700 q 440 724 412 724 q 518 711 469 724 q 569 697 567 697 q 627 730 589 697 q 675 764 666 764 q 711 726 711 764 q 676 672 711 712 q 642 608 642 631 q 648 561 642 603 z "},"":{"ha":829,"x_min":175,"x_max":823,"o":"m 642 751 q 713 861 699 823 q 767 911 731 911 l 779 911 q 823 884 823 911 l 823 872 q 768 814 822 863 q 650 669 713 765 q 587 524 587 574 q 606 476 587 500 q 625 439 625 452 q 570 397 625 427 q 514 357 514 366 q 552 308 514 336 q 591 271 590 279 q 537 218 591 251 q 450 125 450 165 q 460 96 450 117 q 471 62 471 74 q 439 17 471 33 q 361 1 408 1 q 357 1 359 1 q 285 16 313 1 q 256 52 256 33 q 271 99 256 72 q 286 127 286 126 q 286 128 286 127 q 256 202 286 158 q 227 262 227 247 q 273 307 227 278 q 319 353 319 336 q 278 396 319 369 q 237 425 237 422 q 274 477 237 452 q 310 549 310 501 q 310 551 310 549 q 279 674 310 600 q 212 795 248 749 q 175 867 175 842 q 191 892 175 876 q 253 907 208 907 q 313 886 298 907 q 321 842 321 875 q 386 684 321 830 q 454 538 450 538 q 642 751 471 540 z "},"":{"ha":363,"x_min":112,"x_max":283,"o":"m 239 1022 l 262 1022 q 283 1002 283 1022 l 283 997 l 283 991 l 281 968 q 278 932 279 949 q 276 904 277 916 q 275 885 275 892 l 273 862 l 271 838 q 268 803 269 814 q 267 783 267 791 q 265 762 266 774 q 263 741 264 750 q 262 723 262 732 q 260 705 261 713 q 259 687 260 696 q 258 672 258 678 l 256 648 l 255 625 q 253 605 254 613 q 251 584 252 596 q 249 561 250 572 q 248 542 248 549 q 205 509 248 509 l 199 509 q 168 528 168 509 l 168 539 l 168 545 l 170 568 l 170 574 l 171 580 l 173 615 l 177 663 l 178 668 l 178 674 l 180 709 q 184 757 184 740 l 186 781 q 187 798 187 793 l 189 822 l 191 846 q 197 923 197 901 l 199 953 l 201 977 q 239 1022 201 1022 m 228 237 q 218 119 218 161 l 216 96 l 215 72 q 214 54 214 60 l 212 31 q 208 -11 208 0 q 204 -53 206 -29 q 203 -83 203 -76 l 201 -106 l 199 -130 q 195 -194 195 -167 q 186 -232 195 -221 q 153 -242 176 -242 l 136 -242 q 112 -220 112 -242 l 112 -214 l 113 -208 l 113 -202 l 115 -167 l 117 -143 q 121 -96 121 -106 l 123 -72 l 127 -13 q 130 28 130 18 l 132 52 l 136 112 q 139 144 138 123 q 143 185 141 165 q 144 229 144 205 q 154 262 144 252 q 188 273 163 273 l 205 273 q 228 254 228 273 l 228 237 z "},"":{"ha":688,"x_min":104,"x_max":608,"o":"m 504 389 l 504 420 q 468 530 504 474 q 411 585 451 557 q 353 613 370 613 l 345 613 q 276 572 313 613 q 239 484 239 532 l 239 478 q 271 399 239 433 q 426 267 392 267 l 435 267 q 476 301 449 267 q 504 389 504 334 m 245 722 q 313 880 245 817 q 466 943 381 943 l 484 943 q 566 923 533 943 q 600 878 600 903 q 566 826 600 826 q 521 850 555 826 q 446 873 488 873 q 375 845 404 873 q 346 772 346 816 q 383 685 346 728 q 470 611 400 665 q 574 511 541 558 q 608 407 608 465 q 534 240 608 310 q 503 192 503 210 l 505 178 l 507 163 q 508 105 508 149 q 486 15 508 62 q 431 -61 463 -32 q 249 -130 356 -130 q 145 -104 186 -130 q 104 -45 104 -78 q 139 7 104 7 q 190 -18 145 7 q 283 -43 235 -43 q 362 -13 332 -43 q 391 58 391 17 q 366 131 391 99 q 279 213 341 163 q 187 307 218 263 q 156 407 156 351 q 214 553 156 491 q 239 575 220 558 q 260 597 258 593 q 262 612 262 602 q 254 655 262 622 q 245 722 245 688 z "},"":{"ha":557,"x_min":154,"x_max":524,"o":"m 281 838 l 281 819 q 264 777 281 799 q 230 755 247 755 q 224 754 226 754 l 216 753 l 203 753 q 154 802 154 753 l 154 821 q 156 836 156 827 q 172 864 156 844 q 202 884 188 884 l 218 887 l 229 887 q 242 885 235 885 q 281 838 281 885 m 396 803 l 396 815 q 413 863 396 842 q 444 884 430 884 l 460 888 l 473 888 q 509 872 494 888 q 524 836 524 857 l 524 824 l 521 805 q 504 774 521 796 q 454 753 486 753 l 450 753 l 433 755 q 399 790 399 755 q 396 803 396 798 z "},"":{"ha":1082,"x_min":119,"x_max":1043,"o":"m 617 877 l 591 877 q 438 842 513 877 q 215 602 281 768 q 184 444 184 525 q 286 174 184 279 q 401 94 334 123 q 535 64 468 64 l 574 64 q 732 104 656 64 q 943 339 886 182 q 973 502 973 419 l 972 515 q 867 774 972 664 q 759 847 824 818 q 617 877 694 877 m 614 754 l 640 754 q 750 730 722 754 q 779 668 779 707 q 748 629 779 629 q 692 664 742 629 q 597 698 643 698 q 452 614 507 698 q 409 454 409 547 q 451 307 409 361 q 572 253 494 253 q 652 271 615 253 q 685 289 654 272 q 726 307 717 307 q 748 280 748 307 q 689 211 748 237 q 568 184 631 184 l 555 184 q 387 266 452 184 q 335 429 335 332 l 335 455 q 362 574 335 515 q 519 734 418 696 q 614 754 570 754 m 631 935 q 796 899 717 935 q 929 805 875 863 q 1013 667 983 747 q 1043 511 1043 587 l 1043 496 q 1008 318 1043 409 q 904 156 973 228 q 744 45 834 85 q 559 5 653 5 l 545 5 q 248 120 371 5 q 153 258 187 177 q 119 429 119 338 l 119 445 q 157 629 119 538 q 262 788 195 719 q 419 896 329 857 q 602 935 509 935 l 631 935 z "},"":{"ha":552,"x_min":133,"x_max":503,"o":"m 410 802 q 361 837 410 837 l 353 837 l 349 836 q 241 781 290 836 q 192 675 192 725 l 191 667 l 191 652 q 205 595 191 616 q 245 574 219 574 l 249 574 l 252 574 q 354 636 300 574 q 408 772 408 698 l 410 791 l 410 802 m 466 889 q 471 878 466 889 q 475 824 475 867 q 469 726 475 781 q 462 657 462 672 q 470 634 462 643 q 491 618 479 626 q 503 604 503 610 l 503 592 q 485 554 503 575 q 446 532 467 532 q 411 543 423 533 q 339 568 378 568 q 288 556 333 568 q 212 544 243 544 q 156 566 180 544 q 133 620 133 587 l 133 627 q 167 721 133 669 q 316 912 291 912 l 330 912 l 384 905 q 402 907 389 905 l 428 911 q 466 889 456 911 z "},"":{"ha":686,"x_min":96,"x_max":637,"o":"m 96 349 q 234 487 96 366 q 388 608 372 608 q 403 585 403 608 q 302 463 403 563 q 202 347 202 362 q 261 239 202 332 q 319 121 319 146 q 294 94 319 94 q 216 172 269 94 q 96 344 96 342 l 96 349 m 619 602 q 637 583 637 602 q 541 460 637 564 q 444 346 444 356 q 500 243 444 336 q 557 130 557 151 q 531 100 557 100 q 452 182 513 100 q 339 349 339 332 q 474 484 339 367 q 619 602 610 602 z "},"":{"ha":809,"x_min":112,"x_max":728,"o":"m 667 480 q 714 465 701 480 q 728 411 728 450 l 728 403 q 701 201 728 264 q 684 190 696 190 l 676 190 q 633 233 633 190 l 637 277 q 640 328 640 321 q 599 405 640 393 q 348 410 583 410 q 112 428 112 410 l 112 436 q 137 478 112 478 l 383 480 l 667 480 z "},"":{"ha":524,"x_min":90,"x_max":469,"o":"m 448 417 q 469 401 469 417 l 469 397 l 469 393 q 441 331 469 342 q 260 324 425 324 l 245 324 l 237 323 l 227 323 l 218 323 l 200 323 l 191 322 l 163 322 l 155 321 l 127 321 l 115 321 l 110 321 q 90 337 90 321 l 90 346 q 114 407 90 400 q 298 414 139 414 l 426 417 l 448 417 z "},"":{"ha":959,"x_min":88,"x_max":888,"o":"m 587 719 l 587 740 l 583 762 q 557 806 583 787 q 492 825 530 825 l 461 825 l 458 824 l 452 824 q 442 823 445 823 q 423 795 423 823 q 422 785 422 788 l 417 723 q 417 716 417 720 l 416 703 q 416 696 416 700 l 414 680 l 414 649 q 421 640 414 640 l 437 640 l 441 641 l 507 644 l 519 646 q 568 668 549 646 q 587 719 587 690 m 829 621 l 829 654 q 804 769 829 709 q 644 939 754 890 q 517 968 581 968 l 494 968 q 364 939 428 968 q 253 861 300 911 q 175 744 205 812 q 144 604 144 675 l 144 571 q 170 460 144 518 q 237 362 195 403 q 457 271 332 271 l 479 271 q 601 296 536 271 q 718 372 667 321 q 800 490 770 424 q 829 621 829 557 m 488 865 q 650 739 650 865 q 609 651 650 696 q 568 592 568 606 q 601 529 568 578 q 652 460 633 479 q 670 429 670 441 q 639 407 670 407 q 592 421 608 407 q 544 500 577 436 q 503 574 511 564 q 451 604 480 604 q 425 583 441 604 q 408 533 408 563 q 415 480 408 503 q 422 447 422 456 q 334 409 422 409 q 306 429 306 409 l 306 436 q 319 458 306 444 q 335 494 332 473 q 355 779 355 608 q 354 811 355 806 q 347 827 352 817 q 342 841 342 838 q 445 865 342 865 l 488 865 m 499 1025 l 525 1025 q 669 994 598 1025 q 863 787 807 933 q 888 651 888 723 l 888 637 q 853 478 888 557 q 760 342 818 398 q 470 221 633 221 q 199 324 307 221 q 116 445 144 377 q 88 583 88 513 l 88 609 q 120 761 88 684 q 328 984 182 911 q 499 1025 411 1025 z "},"":{"ha":551,"x_min":140,"x_max":549,"o":"m 549 837 l 549 828 q 503 782 549 782 l 151 782 q 140 794 140 782 l 140 802 q 163 846 140 840 q 361 848 172 848 l 524 849 l 533 849 q 549 837 549 849 z "},"":{"ha":477,"x_min":135,"x_max":479,"o":"m 417 781 l 417 803 q 390 868 417 837 q 320 900 362 900 l 316 900 q 232 861 266 900 q 197 781 197 822 l 197 758 q 225 693 197 724 q 291 661 252 661 l 306 661 q 317 663 313 663 q 384 701 351 663 q 417 781 417 739 m 135 749 l 135 777 q 190 900 135 844 q 317 955 245 955 l 329 955 q 435 911 391 955 q 479 812 479 867 l 479 784 q 427 664 479 721 q 302 606 374 606 l 280 606 q 179 650 223 606 q 135 749 135 694 z "},"":{"ha":758,"x_min":82,"x_max":707,"o":"m 458 541 q 569 518 458 518 q 694 515 681 518 q 707 481 707 511 q 686 444 707 452 q 568 440 675 440 q 451 427 460 440 q 435 321 443 414 q 423 220 427 229 q 391 203 416 203 l 369 203 q 349 240 349 203 l 363 407 q 354 435 363 431 q 230 439 345 439 q 116 464 116 439 l 116 474 q 140 513 116 507 q 257 517 154 517 q 369 527 360 517 q 385 630 377 536 q 395 732 393 724 q 432 758 400 758 l 444 758 q 473 730 473 758 l 458 541 m 116 62 q 82 81 82 62 l 82 94 q 106 136 82 130 q 250 140 120 140 l 375 140 l 382 139 l 460 140 l 644 140 q 672 121 672 140 l 672 115 q 642 64 672 70 q 359 62 631 62 l 347 62 l 116 62 z "},"":{"ha":519,"x_min":121,"x_max":489,"o":"m 379 449 l 318 449 l 305 450 l 281 450 l 268 451 l 205 452 q 121 475 121 452 l 121 484 q 218 590 121 507 q 358 726 315 673 q 402 834 402 779 q 383 885 402 864 q 327 906 364 906 q 250 867 289 906 q 199 829 212 829 q 186 853 186 829 q 238 932 186 897 q 353 968 289 968 q 453 934 416 968 q 489 845 489 901 q 442 728 489 789 q 332 621 421 700 q 243 526 243 541 q 281 518 243 517 q 349 519 319 519 q 407 526 379 519 q 445 534 435 534 q 459 512 459 534 q 434 470 459 490 q 379 449 410 449 z "},"":{"ha":511,"x_min":116,"x_max":469,"o":"m 383 861 q 323 910 383 910 q 256 888 293 910 q 208 866 218 866 q 189 895 189 866 q 234 947 189 923 q 339 971 279 971 l 351 971 q 435 951 400 971 q 469 892 469 930 l 469 881 q 434 795 469 839 q 397 759 425 785 q 368 730 368 732 q 394 711 368 728 q 437 668 420 694 q 453 584 453 642 q 388 474 453 526 q 248 423 323 423 l 235 423 q 146 446 177 423 q 116 482 116 469 l 116 490 q 148 514 116 514 q 191 499 159 514 q 261 484 222 484 q 335 516 300 484 q 370 604 370 548 q 291 685 370 667 q 249 718 249 695 q 292 749 249 724 q 359 800 336 774 q 383 861 383 825 z "},"":{"ha":446,"x_min":193,"x_max":440,"o":"m 387 958 l 412 958 q 440 943 440 958 l 440 940 q 337 819 440 909 q 213 729 235 729 l 210 730 q 193 739 193 730 l 193 741 q 238 817 193 749 q 320 922 284 886 q 387 958 356 958 z "},"":{"ha":757,"x_min":24,"x_max":648,"o":"m 648 142 q 628 63 648 96 q 573 30 608 30 q 503 59 538 30 q 457 89 467 89 q 378 54 447 89 q 241 18 309 18 q 154 -9 174 18 q 125 -79 134 -37 q 109 -162 115 -121 q 93 -220 102 -203 q 36 -258 71 -258 q 26 -224 26 -258 l 25 -210 q 24 -178 24 -181 q 93 180 24 -125 q 159 559 101 216 q 231 611 168 611 q 279 547 279 611 q 250 373 279 503 q 221 195 221 242 q 240 120 221 149 q 308 91 259 91 q 404 125 357 91 q 480 207 451 160 q 548 413 509 254 q 604 572 587 572 q 631 553 616 572 q 646 481 646 535 l 634 342 l 637 275 l 648 158 l 648 142 z "},"":{"ha":785,"x_min":155,"x_max":768,"o":"m 532 -92 q 501 -54 501 -92 q 522 102 501 -31 q 553 397 542 235 q 570 599 564 559 q 585 680 576 639 q 593 736 593 720 q 554 757 593 757 q 503 730 515 757 q 492 661 498 716 q 438 350 487 606 q 385 75 390 94 q 327 1 364 1 q 296 44 296 1 l 300 88 q 307 224 307 173 q 282 468 307 378 q 228 555 273 501 q 169 638 182 610 q 155 727 155 667 q 189 845 155 787 q 278 938 224 903 q 550 996 368 996 l 576 996 q 760 973 726 996 l 768 966 q 739 896 768 950 q 703 802 710 841 q 676 622 695 762 q 647 409 658 481 q 609 154 635 337 q 579 -46 583 -30 q 532 -92 570 -92 z "},"":{"ha":326,"x_min":111,"x_max":263,"o":"m 164 351 q 154 353 160 353 q 129 367 147 353 q 111 408 111 382 l 111 425 l 111 427 l 111 432 q 113 447 113 439 q 134 479 113 454 q 191 503 154 503 l 201 503 q 244 487 228 503 q 261 453 261 470 q 262 446 262 449 l 263 437 l 263 434 l 260 414 q 239 375 260 396 q 201 354 218 354 q 192 352 195 352 l 179 351 l 172 351 l 170 351 l 164 351 z "},"":{"ha":490,"x_min":96,"x_max":320,"o":"m 182 -291 l 155 -291 q 96 -265 96 -291 q 144 -239 96 -239 q 230 -178 230 -239 q 204 -139 230 -156 q 178 -100 178 -121 q 202 -22 178 -62 q 237 -4 212 -4 l 245 -4 q 252 -25 252 -4 l 248 -54 q 284 -90 248 -58 q 320 -157 320 -122 l 320 -173 q 278 -253 320 -214 q 182 -291 235 -291 z "},"":{"ha":439,"x_min":160,"x_max":373,"o":"m 269 451 l 229 451 q 160 485 160 451 l 160 491 q 189 527 160 505 q 229 578 218 549 q 261 827 261 676 q 233 867 261 862 q 189 888 189 876 q 216 916 189 901 q 349 964 309 964 q 373 945 373 964 q 362 888 373 939 q 330 709 351 837 q 310 566 310 581 q 328 531 310 551 q 347 495 347 511 q 327 465 347 479 q 269 451 308 451 z "},"":{"ha":530,"x_min":112,"x_max":519,"o":"m 436 742 l 436 765 q 411 851 436 816 q 351 886 387 886 l 329 886 q 237 828 279 886 q 195 711 195 770 l 193 701 l 193 673 q 195 659 195 663 q 223 587 195 618 q 283 556 251 556 l 297 556 q 393 615 350 556 q 436 742 436 674 m 335 937 l 363 937 q 472 890 425 937 q 519 776 519 843 l 519 755 q 449 580 519 654 q 290 506 380 506 l 269 506 q 157 554 202 506 q 112 682 112 603 q 181 862 112 788 q 335 937 250 937 z "},"":{"ha":684,"x_min":74,"x_max":618,"o":"m 155 572 q 182 602 155 602 q 258 526 205 602 q 372 357 372 359 l 372 352 q 237 218 372 335 q 93 100 102 100 q 74 122 74 100 q 135 201 74 132 q 232 308 195 271 q 269 356 269 345 q 212 460 269 367 q 155 572 155 553 m 312 117 q 373 196 312 126 q 474 306 435 267 q 513 352 513 345 q 454 461 513 359 q 395 586 395 564 q 419 608 395 608 q 504 524 444 608 q 618 357 618 362 l 618 351 q 479 215 618 336 q 330 94 340 94 q 312 111 312 94 l 312 117 z "},"":{"ha":1103,"x_min":178,"x_max":987,"o":"m 779 323 q 727 264 779 323 q 675 202 675 205 q 682 199 675 199 l 831 199 q 854 229 854 199 l 857 244 q 864 290 864 281 l 867 313 q 871 338 871 334 l 878 383 l 881 397 q 883 412 883 409 l 887 436 l 887 439 l 886 440 q 779 323 883 440 m 271 399 l 255 399 q 178 430 178 399 l 178 435 q 208 473 178 451 q 248 523 239 494 q 284 788 284 631 q 278 824 284 817 q 241 839 273 831 q 210 860 210 847 q 229 881 210 872 q 361 929 331 929 l 367 929 q 385 909 385 929 l 385 895 q 377 855 385 892 q 355 725 370 819 l 353 708 q 327 519 327 541 q 347 476 327 498 q 367 439 367 454 q 355 418 367 425 q 271 399 324 399 m 852 916 q 910 957 882 957 q 937 944 937 957 q 885 853 937 930 q 304 17 411 153 q 252 -16 278 -16 q 225 -3 225 -16 q 241 35 225 10 q 852 916 492 418 m 987 171 q 952 127 987 146 q 916 72 916 109 q 896 7 916 35 q 847 -8 884 -8 q 810 28 810 -8 q 818 66 810 41 q 826 101 826 92 q 784 137 826 122 q 687 142 770 142 q 604 173 604 142 q 761 370 604 196 q 942 543 918 543 l 949 543 q 970 514 970 543 q 956 415 970 512 q 942 277 942 317 q 958 216 942 237 l 987 178 l 987 171 z "},"":{"ha":1144,"x_min":197,"x_max":1048,"o":"m 293 401 l 262 401 q 197 433 197 401 l 197 439 q 227 479 197 457 q 265 530 256 501 q 300 784 300 633 q 271 831 300 823 q 227 857 227 844 q 253 884 227 871 q 383 930 347 930 q 402 913 402 930 l 402 901 q 394 849 402 886 q 366 680 387 811 q 345 527 345 549 q 361 483 345 505 q 378 447 378 461 q 359 417 378 432 q 293 401 340 401 m 932 954 q 955 942 955 954 q 914 871 955 930 q 314 26 393 127 q 254 -14 282 -14 q 226 -3 226 -14 q 852 894 226 28 q 932 954 896 954 m 965 395 q 882 476 965 476 q 804 434 846 476 q 755 392 762 392 q 743 412 743 392 q 792 496 743 459 q 904 534 842 534 l 917 534 q 1011 502 974 534 q 1048 419 1048 471 l 1048 407 q 1002 292 1048 355 q 889 182 981 264 q 798 83 798 100 q 869 73 798 73 q 967 81 940 73 q 1002 90 994 90 q 1017 64 1017 90 q 990 21 1017 38 q 930 3 964 3 l 752 9 q 676 38 676 9 q 784 154 676 58 q 928 299 892 250 q 965 395 965 349 z "},"":{"ha":1178,"x_min":118,"x_max":1023,"o":"m 922 438 l 922 443 l 920 443 q 829 344 907 443 q 770 276 825 338 q 715 212 715 213 l 715 210 q 727 208 715 208 l 863 208 q 892 239 892 208 q 896 264 896 259 l 899 287 q 905 324 905 319 l 908 346 q 913 378 913 372 l 916 400 q 922 438 922 431 m 349 934 q 465 862 465 934 l 465 852 q 394 730 465 795 q 361 697 361 701 q 391 675 361 693 q 439 629 421 656 q 457 553 457 602 q 390 430 457 482 q 240 377 323 377 l 228 377 q 138 406 176 377 q 118 429 118 420 q 149 460 118 460 q 194 447 161 460 q 257 434 227 434 q 344 473 310 434 q 378 555 378 511 q 353 621 378 598 q 288 653 329 643 q 247 673 247 663 q 291 713 247 683 q 358 769 336 743 q 381 831 381 794 q 320 877 381 877 q 256 854 302 877 q 205 831 211 831 q 188 853 188 831 q 233 912 188 890 q 349 934 278 934 m 901 932 q 952 962 925 962 q 979 950 979 962 q 945 888 979 939 q 351 22 426 121 q 300 -9 328 -9 q 273 5 273 -9 q 329 98 273 18 q 475 311 384 177 l 683 614 q 696 634 692 627 q 718 666 701 642 l 732 686 q 753 718 749 711 l 768 738 q 789 769 772 744 l 901 932 m 847 45 l 864 111 q 845 136 864 121 q 736 152 827 152 q 646 180 646 152 l 646 185 q 911 498 646 206 q 984 544 952 544 q 1003 514 1003 544 q 990 414 1003 505 q 977 283 977 324 q 1000 216 977 241 q 1023 186 1023 191 q 988 137 1023 159 q 953 80 953 117 q 884 4 953 4 l 876 4 q 847 45 847 4 z "},"":{"ha":593,"x_min":50,"x_max":498,"o":"m 408 635 q 369 649 386 635 q 352 692 352 663 l 352 696 q 375 756 352 734 q 431 779 397 779 l 438 779 l 441 779 l 446 779 l 454 777 q 496 739 496 777 q 497 732 497 734 l 498 721 l 498 716 l 496 697 q 476 657 496 677 q 434 637 456 637 l 420 635 l 408 635 m 157 -22 q 184 -88 157 -59 q 259 -117 212 -117 q 351 -88 307 -117 q 442 -36 431 -36 q 469 -76 469 -36 q 402 -154 469 -116 q 260 -192 335 -192 l 248 -192 q 107 -145 165 -192 q 50 -20 50 -98 q 88 120 50 59 q 207 252 127 181 q 313 360 286 323 q 339 447 339 397 q 347 509 339 498 q 382 521 355 521 q 419 437 419 521 q 389 335 419 379 q 291 223 359 291 q 190 100 223 155 q 157 -22 157 46 z "},"":{"ha":926,"x_min":25,"x_max":829,"o":"m 646 461 q 644 488 644 472 q 620 656 644 503 q 590 828 596 810 q 580 846 583 846 q 460 646 573 846 q 348 437 348 446 q 489 425 348 425 l 552 425 l 564 425 q 646 450 646 425 l 646 461 m 687 1046 l 681 1046 q 563 1138 655 1046 q 471 1238 471 1230 l 471 1245 q 509 1263 471 1263 l 511 1263 l 515 1262 q 579 1231 548 1262 q 701 1059 701 1109 l 701 1057 q 687 1046 701 1046 m 624 969 l 638 969 q 696 862 673 969 q 726 638 699 850 q 763 321 753 427 q 775 199 772 214 q 804 154 779 183 q 829 103 829 124 q 796 58 829 83 q 723 33 763 33 q 640 64 640 33 q 654 104 640 76 q 668 180 668 132 q 648 272 668 229 q 607 329 629 315 q 420 342 585 342 q 287 302 325 342 q 197 163 237 251 q 184 102 189 143 q 166 46 180 61 q 114 32 153 32 l 101 32 q 50 52 74 32 q 25 85 25 73 q 534 897 25 125 q 624 969 582 969 z "},"":{"ha":927,"x_min":98,"x_max":852,"o":"m 578 846 q 457 642 572 846 q 342 436 342 438 q 402 425 342 425 l 565 425 l 583 427 l 607 428 q 640 451 640 428 l 640 456 l 640 463 l 637 497 q 615 676 637 536 q 587 831 593 817 q 578 846 582 846 m 758 1237 l 766 1237 q 802 1200 802 1237 q 734 1092 802 1147 q 633 1037 667 1037 q 575 1007 620 1037 q 517 977 530 977 q 511 987 511 977 l 511 1004 l 513 1016 q 626 1135 513 1032 q 758 1237 739 1237 m 564 939 q 637 994 601 994 q 689 936 673 994 q 733 718 692 926 q 788 405 775 511 q 805 278 800 299 q 831 229 810 258 q 852 178 852 199 q 823 134 852 157 q 762 111 793 111 q 684 148 684 111 q 692 176 684 154 q 700 229 700 198 q 648 367 700 324 q 511 388 623 388 l 477 389 l 442 389 q 333 359 362 389 q 248 231 288 314 q 229 167 235 204 q 217 123 222 130 q 172 104 203 104 q 119 124 141 104 q 98 166 98 144 q 129 218 98 188 q 324 532 181 269 q 564 939 467 795 z "},"":{"ha":922,"x_min":22,"x_max":826,"o":"m 646 450 q 642 500 642 477 q 621 660 642 522 q 592 819 599 798 q 579 840 585 840 q 459 636 574 840 q 345 427 345 433 q 370 420 345 420 l 589 420 q 606 422 601 422 q 646 445 646 422 l 646 450 m 670 1251 l 675 1251 q 734 1202 705 1251 q 753 1172 739 1192 q 792 1111 768 1152 q 817 1064 817 1071 q 791 1048 817 1048 q 717 1112 766 1048 q 656 1175 669 1175 q 573 1109 650 1175 q 468 1044 496 1044 l 463 1044 q 448 1055 448 1044 l 448 1058 q 493 1106 448 1064 q 544 1153 538 1147 q 670 1251 634 1251 m 621 963 l 635 963 q 694 856 670 963 q 723 634 696 844 q 760 315 750 424 q 770 204 770 205 q 801 148 776 177 q 826 97 826 118 q 793 52 826 77 q 720 27 760 27 q 637 58 637 27 q 651 98 637 70 q 665 173 665 125 q 646 265 665 221 q 605 322 627 309 q 418 336 583 336 q 284 296 322 336 q 195 157 234 245 q 181 96 186 137 q 164 40 177 55 q 111 26 151 26 l 98 26 q 47 46 71 26 q 22 79 22 66 q 531 890 22 119 q 621 963 579 963 z "},"":{"ha":926,"x_min":20,"x_max":857,"o":"m 643 446 l 643 457 q 617 672 643 509 q 580 836 591 836 l 577 836 q 547 791 574 836 l 513 732 q 342 427 342 460 q 477 418 342 418 l 576 418 q 643 446 643 418 m 564 1196 l 574 1196 q 660 1165 608 1196 q 738 1133 713 1133 q 799 1164 762 1133 q 843 1195 836 1195 q 857 1183 857 1195 q 812 1107 857 1141 q 721 1073 766 1073 q 625 1099 675 1073 q 548 1126 576 1126 q 483 1095 520 1126 q 442 1064 446 1064 l 437 1064 q 422 1076 422 1064 l 422 1081 q 488 1168 422 1123 q 564 1196 528 1196 m 619 961 l 633 961 q 691 854 667 961 q 722 627 695 835 q 758 313 748 419 q 771 190 768 206 q 799 144 774 174 q 824 95 824 115 q 791 50 824 75 q 718 25 758 25 q 635 56 635 25 q 649 96 635 69 q 663 171 663 123 q 643 262 663 218 q 602 320 624 307 q 415 334 581 334 q 280 292 320 334 q 200 172 239 251 q 179 99 186 144 q 171 51 172 54 q 109 24 157 24 l 96 24 q 44 44 67 24 q 20 77 20 64 l 20 89 q 529 888 20 117 q 619 961 577 961 z "},"":{"ha":922,"x_min":41,"x_max":828,"o":"m 637 458 q 635 504 635 481 q 611 670 635 528 q 583 826 587 813 q 573 838 578 838 q 454 637 568 838 q 341 433 341 435 l 341 429 q 472 419 341 419 l 497 418 l 553 418 l 559 419 l 572 419 l 595 420 q 638 446 638 420 l 637 452 l 637 458 m 590 1150 l 589 1133 q 570 1106 589 1124 q 535 1087 551 1087 l 523 1085 l 508 1085 q 464 1129 464 1085 l 464 1145 l 467 1160 q 484 1192 467 1170 q 528 1213 501 1213 l 543 1213 l 545 1213 l 549 1213 q 557 1211 555 1211 q 591 1168 591 1211 l 591 1152 l 590 1150 m 715 1055 q 689 1069 689 1055 q 680 1093 680 1088 q 678 1099 678 1097 l 677 1103 q 677 1107 677 1105 l 677 1111 q 709 1161 677 1129 q 770 1194 741 1194 q 777 1195 774 1195 l 789 1196 q 819 1166 819 1196 l 821 1154 l 821 1151 l 820 1149 l 820 1144 l 819 1139 l 819 1137 l 818 1134 l 816 1116 q 794 1081 816 1102 q 768 1059 773 1059 q 760 1058 763 1058 l 753 1057 l 748 1057 l 738 1055 l 732 1055 l 722 1055 l 715 1055 m 621 968 l 635 968 q 714 716 682 968 q 740 524 733 570 q 757 387 747 478 l 762 350 q 768 281 764 332 q 776 213 773 229 q 804 165 779 196 q 828 115 828 135 q 797 71 828 95 q 727 47 766 47 q 647 77 647 47 q 659 117 647 93 q 671 187 671 142 q 650 277 671 232 q 608 335 630 321 q 425 348 585 348 q 294 311 329 348 q 207 175 245 260 q 191 112 197 153 q 175 59 186 72 q 125 45 163 45 l 113 45 q 66 64 91 45 q 41 104 41 83 q 77 160 41 125 q 289 495 129 211 q 543 913 449 779 q 621 968 582 968 z "},"":{"ha":924,"x_min":20,"x_max":835,"o":"m 645 1237 q 598 1214 621 1237 q 575 1165 575 1191 l 575 1148 q 593 1105 575 1123 q 633 1087 611 1087 l 649 1087 q 665 1089 657 1089 q 695 1111 673 1089 q 718 1164 718 1133 l 718 1173 q 700 1217 718 1200 q 669 1235 682 1235 l 657 1237 l 645 1237 m 649 458 q 646 494 646 481 q 621 672 646 507 q 581 837 595 837 q 464 637 576 837 q 351 429 351 437 q 484 420 351 420 l 508 420 l 527 420 l 533 420 l 588 421 l 612 422 q 650 446 650 422 l 649 452 l 649 458 m 642 1041 l 626 1041 q 555 1070 588 1041 q 522 1144 522 1099 l 522 1156 q 558 1241 522 1200 q 646 1283 595 1283 l 666 1283 q 738 1254 705 1283 q 771 1184 771 1225 l 771 1164 q 730 1078 771 1115 q 642 1041 688 1041 m 628 968 q 672 940 656 968 q 701 859 688 912 q 742 536 714 805 q 777 223 770 267 q 810 144 785 180 q 835 90 835 108 q 814 54 835 71 q 722 20 771 20 q 627 58 627 20 q 646 99 627 63 q 665 186 665 136 q 622 331 665 291 q 465 349 602 349 q 287 311 327 349 q 199 169 247 273 q 182 68 182 134 q 115 24 182 24 q 45 45 71 24 q 20 77 20 66 l 20 90 q 64 148 20 106 q 279 487 109 189 q 543 913 450 785 q 628 968 584 968 z "},"":{"ha":1252,"x_min":72,"x_max":1227,"o":"m 600 412 q 642 458 642 412 q 672 603 642 483 q 718 768 702 723 q 734 834 734 812 q 722 855 734 855 q 632 732 701 855 q 528 571 564 609 q 418 443 418 452 q 532 416 418 416 l 590 412 l 600 412 m 838 644 q 897 557 838 557 q 957 560 926 557 l 985 563 q 1031 568 1025 568 q 1109 485 1109 568 q 1094 446 1109 460 q 1052 432 1078 432 l 1029 438 l 1008 447 q 956 456 978 456 q 800 404 844 456 q 757 235 757 352 q 779 140 757 165 q 894 98 815 98 q 1053 127 972 98 l 1074 136 q 1107 148 1103 148 q 1135 103 1135 148 q 1083 38 1135 59 q 968 24 1049 24 l 837 27 q 618 38 658 27 q 579 80 579 48 q 601 155 579 86 q 622 270 622 224 q 594 330 622 315 q 514 345 567 345 q 342 291 400 345 q 224 141 285 237 q 199 79 202 107 q 158 37 193 37 q 97 59 122 37 q 72 100 72 81 q 117 160 72 119 q 193 242 163 201 q 276 363 222 283 q 373 499 330 443 q 455 610 415 555 q 553 738 496 665 q 629 840 610 811 l 642 861 l 648 877 q 669 905 658 895 q 884 930 696 930 q 977 932 925 930 l 1109 939 l 1141 939 q 1205 925 1184 939 q 1227 888 1227 910 q 1204 839 1227 839 q 1177 847 1198 839 l 1142 862 q 1013 886 1067 886 q 894 845 926 886 q 857 757 877 823 q 838 644 838 690 z "},"":{"ha":887,"x_min":105,"x_max":922,"o":"m 105 375 l 105 398 q 142 614 105 505 q 433 947 223 848 q 645 994 532 994 q 829 969 757 994 q 890 920 858 959 q 922 860 922 880 q 889 807 922 807 q 831 835 869 807 q 612 902 741 902 q 340 754 452 902 q 259 587 286 682 q 232 402 232 491 q 253 254 232 313 q 505 78 315 78 q 730 149 618 78 q 791 178 777 178 q 815 137 815 178 q 799 103 815 124 q 706 28 758 50 q 494 -13 613 -13 l 472 -13 q 325 16 394 -13 q 132 222 183 76 q 105 375 105 300 m 546 -149 l 546 -168 q 498 -252 546 -216 q 396 -288 450 -288 l 391 -288 q 330 -261 330 -288 l 330 -257 q 369 -239 330 -239 q 429 -217 408 -239 q 451 -172 451 -195 q 427 -133 451 -149 q 403 -104 403 -117 q 430 -33 403 -75 q 471 -18 439 -18 l 475 -18 q 486 -53 486 -18 q 516 -93 486 -68 q 546 -149 546 -117 z "},"":{"ha":811,"x_min":70,"x_max":812,"o":"m 612 1057 l 606 1057 q 491 1136 582 1057 q 401 1241 401 1215 l 401 1253 q 440 1272 401 1272 l 453 1272 q 509 1248 485 1272 q 580 1154 534 1223 q 626 1076 626 1085 l 626 1068 q 612 1057 626 1057 m 730 970 q 812 907 812 970 q 798 853 812 871 q 770 834 783 834 q 724 854 757 834 q 644 886 690 873 q 511 899 597 899 q 392 842 425 899 q 358 741 379 819 q 336 626 336 663 q 360 573 336 589 q 433 557 385 557 q 528 569 482 557 q 592 581 574 581 q 627 560 609 581 q 644 505 644 540 q 622 447 644 470 q 564 424 600 424 l 545 429 l 510 445 q 421 458 477 458 q 294 414 325 458 q 268 314 281 396 q 255 181 255 232 q 273 112 255 130 q 409 79 308 79 q 616 132 510 79 q 684 157 665 157 q 707 130 707 157 q 644 22 707 49 q 471 10 617 10 l 417 9 l 390 9 l 307 9 q 107 20 145 9 q 70 60 70 31 q 94 101 70 68 q 133 183 119 134 q 205 510 146 232 q 264 818 264 789 q 256 863 264 848 l 245 878 q 229 911 229 903 q 279 954 229 945 q 595 970 372 970 l 730 970 z "},"":{"ha":810,"x_min":69,"x_max":812,"o":"m 700 1267 l 720 1267 q 755 1250 755 1267 l 755 1247 q 677 1160 755 1221 q 513 1055 543 1055 l 507 1055 q 493 1067 493 1055 l 493 1069 q 632 1233 493 1112 q 700 1267 671 1267 m 730 969 q 812 906 812 969 q 797 853 812 872 q 770 833 783 833 q 723 854 758 833 q 643 886 688 874 q 510 899 597 899 q 392 842 424 899 q 357 741 378 817 q 336 627 336 665 q 360 573 336 589 q 430 557 385 557 q 527 568 476 557 q 584 580 577 580 q 626 560 609 580 q 644 505 644 540 q 621 447 644 471 q 564 423 598 423 q 520 440 561 423 q 421 457 479 457 q 294 414 326 457 q 268 320 281 396 q 255 187 255 245 q 273 111 255 129 q 407 79 307 79 q 615 132 508 79 q 683 157 663 157 q 707 130 707 157 q 644 22 707 49 q 471 10 618 11 l 416 9 l 279 9 q 106 20 142 9 q 69 59 69 31 q 95 103 69 68 q 136 199 121 138 q 264 824 264 716 q 246 875 264 848 q 229 929 229 902 l 240 940 q 595 969 284 969 l 730 969 z "},"":{"ha":809,"x_min":70,"x_max":812,"o":"m 404 1057 l 395 1057 q 380 1068 380 1057 l 380 1072 q 476 1169 380 1073 q 599 1265 572 1265 l 604 1264 l 608 1264 q 663 1218 633 1264 q 746 1076 746 1089 l 746 1072 q 721 1059 746 1059 q 645 1119 695 1059 q 587 1179 594 1179 q 504 1118 583 1179 q 404 1057 425 1057 m 730 966 q 812 903 812 966 q 798 850 812 869 q 770 831 783 831 q 724 851 758 831 q 643 883 690 871 q 511 896 597 896 q 392 839 425 896 q 358 738 379 816 q 336 623 336 661 q 361 570 336 586 q 432 554 385 554 q 527 566 479 554 q 592 578 576 578 q 627 557 609 578 q 644 502 644 537 q 622 444 644 467 q 564 420 599 420 l 545 426 l 528 434 l 510 441 q 421 454 477 454 q 294 412 324 454 q 268 311 281 393 q 255 178 255 229 q 273 109 255 127 q 373 77 308 77 q 616 130 512 77 q 684 154 664 154 q 707 127 707 154 q 645 19 707 45 q 471 7 618 7 l 417 6 l 280 6 q 107 17 145 6 q 70 57 70 28 q 94 98 70 65 q 132 177 119 131 q 205 505 146 224 q 264 815 264 786 q 256 860 264 844 l 245 876 q 229 908 229 901 q 279 950 229 941 q 595 966 370 966 l 730 966 z "},"":{"ha":810,"x_min":73,"x_max":816,"o":"m 401 1143 q 405 1163 405 1156 q 421 1192 405 1171 q 466 1213 438 1213 l 480 1213 l 482 1213 l 487 1213 q 494 1211 492 1211 q 528 1162 528 1211 l 528 1156 q 510 1110 528 1133 q 472 1087 492 1087 l 462 1085 l 446 1085 q 401 1131 401 1085 l 401 1143 m 772 1169 l 772 1151 q 770 1135 770 1145 q 750 1106 770 1125 q 712 1086 731 1086 l 702 1085 l 694 1085 q 644 1132 644 1085 l 644 1144 q 663 1191 644 1167 q 709 1214 682 1214 l 726 1214 q 736 1212 734 1212 q 772 1169 772 1212 m 340 624 q 435 555 340 555 l 437 555 q 533 567 484 555 q 588 578 583 578 q 631 558 614 578 q 648 503 648 538 q 625 445 648 469 q 568 422 602 422 q 524 439 565 422 q 425 456 483 456 q 297 412 330 456 q 273 333 288 399 q 258 197 258 267 q 277 110 258 128 q 412 77 311 77 q 619 130 513 77 q 687 155 669 155 q 711 127 711 155 q 648 20 711 47 q 503 9 623 9 l 448 8 l 420 7 l 283 7 q 110 18 147 7 q 73 58 73 29 q 100 102 73 66 q 140 198 126 138 q 268 823 268 743 q 250 874 268 847 q 233 928 233 901 l 243 939 q 599 968 288 968 l 734 968 q 816 905 816 968 q 801 851 816 871 q 774 832 787 832 q 727 852 761 832 q 646 885 692 873 q 513 897 600 897 q 395 840 427 897 q 361 738 382 816 q 340 624 340 661 z "},"":{"ha":435,"x_min":60,"x_max":438,"o":"m 410 1068 l 410 1062 q 394 1050 410 1050 l 391 1050 l 388 1051 q 298 1105 352 1051 q 184 1237 184 1219 l 184 1240 q 222 1262 184 1262 l 242 1262 q 301 1232 275 1262 q 410 1068 410 1105 m 174 5 l 149 5 q 71 27 98 5 q 60 54 60 37 q 94 99 60 72 q 138 169 128 127 q 197 473 165 277 q 243 735 231 669 q 255 820 255 802 q 232 862 255 838 q 210 910 210 886 q 246 949 210 935 q 335 964 282 964 l 372 964 q 438 924 438 964 q 407 879 438 903 q 368 824 376 854 q 302 477 361 795 q 243 142 243 159 q 266 102 243 126 q 288 58 288 78 q 258 21 288 37 q 174 5 229 5 z "},"":{"ha":437,"x_min":64,"x_max":545,"o":"m 495 1261 l 502 1261 q 545 1242 545 1261 l 545 1239 q 392 1092 545 1211 q 304 1049 337 1049 l 301 1049 q 286 1059 286 1049 l 286 1064 q 302 1093 286 1071 q 495 1261 428 1261 m 178 5 l 154 5 q 76 27 105 5 q 64 53 64 36 q 99 99 64 71 q 143 169 134 128 q 205 492 171 286 q 250 750 239 698 q 260 820 260 802 q 237 861 260 838 q 214 907 214 884 q 247 947 214 930 q 353 964 280 964 l 366 964 q 443 924 443 964 q 411 878 443 903 q 370 814 380 852 q 308 478 367 800 q 248 141 248 156 q 270 101 248 125 q 292 56 292 77 q 261 20 292 35 q 178 5 230 5 z "},"":{"ha":440,"x_min":61,"x_max":536,"o":"m 193 1050 l 184 1050 q 171 1059 171 1050 l 171 1062 q 266 1162 171 1067 q 389 1257 360 1257 l 393 1257 q 458 1200 418 1257 q 536 1069 536 1087 q 511 1051 536 1051 q 432 1111 487 1051 q 375 1171 377 1171 q 294 1111 373 1171 q 193 1050 216 1050 m 175 3 l 151 3 q 73 24 102 3 q 61 51 61 33 q 95 97 61 68 q 140 166 130 125 q 238 703 168 283 l 243 728 q 256 810 256 809 q 234 860 256 836 q 211 901 211 884 q 349 961 211 961 l 362 961 q 439 922 439 961 q 408 875 439 900 q 366 807 376 850 q 300 457 355 765 q 245 136 245 149 q 267 99 245 123 q 289 54 289 75 q 258 18 289 33 q 175 3 227 3 z "},"":{"ha":441,"x_min":65,"x_max":558,"o":"m 238 1076 q 193 1120 193 1076 l 193 1141 q 213 1188 193 1168 q 259 1209 234 1209 l 266 1209 q 317 1154 317 1209 l 317 1152 q 299 1102 317 1124 q 267 1080 281 1080 q 258 1078 260 1078 l 248 1076 l 238 1076 m 558 1145 q 556 1130 556 1139 q 539 1101 556 1122 q 507 1080 523 1080 q 500 1078 503 1078 l 492 1077 l 478 1077 q 437 1111 437 1077 q 435 1116 435 1114 l 434 1124 l 434 1141 q 437 1160 437 1152 q 453 1187 437 1168 q 486 1207 469 1207 q 492 1208 490 1208 l 503 1210 l 509 1210 q 555 1174 555 1210 q 557 1168 557 1170 l 558 1160 l 558 1145 m 192 3 l 155 3 q 77 24 107 3 q 65 51 65 33 q 99 96 65 68 q 142 154 133 123 q 202 455 172 260 q 247 726 233 649 q 262 821 262 803 q 238 862 262 838 q 215 903 215 885 q 368 962 215 962 q 447 922 447 962 q 415 877 447 902 q 375 820 383 851 q 332 589 368 789 q 273 283 296 389 q 251 150 251 177 q 273 98 251 122 q 296 53 296 73 q 265 18 296 32 q 192 3 235 3 z "},"":{"ha":960,"x_min":71,"x_max":932,"o":"m 393 452 q 292 421 310 452 q 263 273 287 412 q 239 125 239 135 q 256 79 239 87 q 337 71 273 71 l 351 71 q 775 345 659 71 q 819 547 819 448 q 819 553 819 550 q 799 705 819 647 q 500 894 736 894 q 378 853 398 894 q 338 697 357 812 q 318 566 318 583 q 336 540 318 549 q 430 523 353 531 q 507 492 507 515 q 433 453 507 453 q 393 452 407 452 m 932 574 l 932 556 q 880 321 932 433 q 547 32 775 97 q 283 3 447 3 l 231 3 q 71 33 71 3 q 97 78 71 44 q 134 147 124 112 q 176 437 176 294 q 138 458 176 452 q 100 479 100 464 q 142 525 100 514 q 212 568 199 539 q 241 816 241 635 q 226 871 241 843 q 211 912 211 900 q 228 931 211 924 q 482 959 298 959 l 536 959 q 699 930 623 959 q 905 730 852 871 q 932 574 932 659 z "},"":{"ha":1016,"x_min":69,"x_max":1038,"o":"m 589 1210 l 609 1210 q 687 1180 638 1210 q 764 1151 736 1151 q 826 1180 791 1151 q 869 1208 861 1208 q 886 1194 886 1208 q 843 1116 886 1156 q 755 1076 799 1076 l 741 1076 q 656 1106 713 1076 q 574 1137 599 1137 q 516 1108 549 1137 q 469 1080 482 1080 q 456 1094 456 1080 l 456 1099 q 500 1169 456 1128 q 589 1210 545 1210 m 897 924 q 909 934 897 924 q 963 945 922 945 q 1021 929 1004 945 q 1038 894 1038 914 q 1006 839 1038 873 q 964 769 975 805 q 907 512 935 670 q 864 275 879 354 q 843 159 848 197 l 839 129 l 832 71 q 784 26 823 26 q 679 143 751 26 q 513 472 655 182 q 344 762 372 762 q 326 748 332 762 q 273 496 319 733 q 227 230 227 260 q 231 177 227 200 l 236 154 q 245 111 245 115 q 208 41 245 68 q 132 14 170 14 q 81 22 93 14 q 69 58 69 29 q 96 107 69 64 q 136 195 123 151 q 175 388 148 239 q 227 658 202 536 q 252 853 252 780 l 247 877 l 233 914 q 279 941 233 941 q 372 909 324 941 q 451 834 420 878 q 623 504 481 791 q 774 218 765 218 q 798 275 783 218 q 845 519 812 332 q 878 756 878 707 l 872 873 q 897 924 872 903 z "},"":{"ha":994,"x_min":101,"x_max":972,"o":"m 216 426 l 216 390 q 216 386 216 388 q 236 270 216 326 q 464 90 298 91 q 743 241 630 90 q 856 594 856 393 l 856 606 q 800 815 856 735 q 617 918 728 918 l 593 918 q 451 877 520 918 q 330 767 382 836 q 247 605 277 697 q 216 426 216 513 m 701 1056 l 701 1050 q 687 1041 701 1041 l 684 1041 q 568 1127 667 1041 q 469 1235 469 1214 l 469 1238 q 505 1257 469 1257 l 517 1257 q 527 1255 524 1255 q 608 1185 562 1255 q 667 1109 633 1149 q 701 1056 701 1070 m 972 561 q 926 346 972 453 q 644 41 832 123 q 465 1 553 1 q 207 98 302 1 q 129 224 156 151 q 101 377 101 297 l 101 408 q 142 625 101 515 q 257 817 184 735 q 424 941 331 898 q 615 983 516 983 l 630 983 q 767 955 701 983 q 880 872 833 925 q 972 591 972 765 l 972 576 l 972 561 z "},"":{"ha":994,"x_min":98,"x_max":969,"o":"m 454 90 l 478 90 q 619 131 547 90 q 747 250 692 172 q 858 607 858 406 l 857 618 q 788 836 857 755 q 619 918 719 918 l 595 918 q 456 877 525 918 q 248 601 311 792 q 216 413 216 505 l 216 401 l 216 389 q 235 273 216 334 q 364 109 271 153 q 454 90 405 90 m 781 1256 l 794 1256 q 827 1239 827 1256 q 739 1147 827 1216 q 581 1038 597 1038 l 572 1038 q 559 1046 559 1038 l 559 1049 q 715 1226 559 1090 q 781 1256 749 1256 m 968 560 q 927 358 968 468 q 812 167 886 249 q 647 43 738 85 q 471 1 555 1 l 440 1 q 305 29 370 1 q 127 217 178 85 q 98 376 98 296 l 98 422 q 140 628 98 519 q 256 818 183 738 q 420 941 329 899 q 596 983 511 983 l 627 983 q 761 955 694 983 q 875 873 827 928 q 969 593 969 765 l 969 590 l 968 575 l 968 560 z "},"":{"ha":994,"x_min":100,"x_max":972,"o":"m 860 583 l 860 606 q 842 726 860 665 q 602 913 786 913 q 458 873 530 913 q 332 761 387 833 q 247 595 277 688 q 216 412 216 503 l 216 400 l 216 388 q 216 384 216 386 q 235 269 216 326 q 361 107 271 153 q 451 86 404 86 l 475 86 q 748 240 627 86 q 829 397 798 304 q 860 583 860 490 m 671 1242 l 676 1242 l 681 1241 q 741 1188 705 1241 q 817 1064 817 1080 q 792 1049 817 1049 q 709 1107 768 1049 q 647 1166 651 1166 q 610 1138 643 1166 q 467 1039 491 1039 l 462 1039 q 446 1048 446 1039 l 446 1050 q 480 1089 446 1061 q 541 1144 515 1118 q 671 1242 639 1242 m 972 600 l 972 570 q 925 339 972 467 q 827 174 895 258 q 661 43 759 91 q 474 -5 562 -5 l 444 -5 q 308 24 373 -5 q 125 226 175 81 q 100 371 100 299 l 100 401 q 141 617 100 506 q 258 812 182 728 q 428 937 335 897 q 605 978 521 978 q 944 753 860 978 q 972 600 971 680 z "},"":{"ha":994,"x_min":100,"x_max":971,"o":"m 859 584 l 859 608 q 840 731 859 674 q 610 907 779 907 q 464 872 535 907 q 336 763 393 836 q 247 595 279 690 q 216 418 216 500 l 216 381 q 236 260 216 317 q 466 81 298 81 q 745 235 629 81 q 828 397 798 305 q 859 584 859 489 m 855 1177 q 809 1104 855 1139 q 722 1069 763 1069 q 625 1098 681 1069 q 543 1126 568 1126 q 484 1095 517 1126 q 441 1065 450 1065 l 437 1065 q 422 1078 422 1065 l 422 1082 q 469 1153 422 1117 q 559 1188 515 1188 q 654 1161 603 1188 q 731 1134 705 1134 q 795 1165 758 1134 q 837 1196 832 1196 l 841 1196 q 855 1182 855 1196 l 855 1177 m 971 597 l 971 566 q 928 347 971 460 q 812 154 886 233 q 458 -9 660 -9 q 205 88 300 -9 q 127 214 155 140 q 100 368 100 288 l 100 398 q 140 613 100 503 q 256 806 180 723 q 613 974 408 974 l 629 974 q 764 946 697 974 q 941 755 890 893 q 971 597 971 676 z "},"":{"ha":994,"x_min":100,"x_max":972,"o":"m 450 85 l 474 85 q 614 122 546 85 q 738 231 683 160 q 824 397 792 301 q 856 595 856 492 l 855 608 q 789 824 855 735 q 711 889 757 868 q 623 911 665 911 l 599 911 q 469 879 539 911 q 339 771 398 847 q 248 600 280 695 q 216 412 216 504 l 216 400 l 217 389 q 283 171 217 257 q 360 107 316 129 q 450 85 404 85 m 589 1143 q 587 1128 587 1134 q 571 1101 587 1122 q 538 1081 555 1081 q 530 1079 532 1079 l 519 1078 l 511 1078 q 462 1124 462 1078 l 462 1137 q 479 1181 462 1160 q 513 1203 496 1203 q 521 1205 519 1205 l 531 1206 l 540 1206 q 590 1156 590 1206 l 590 1152 l 589 1149 l 589 1143 m 734 1061 q 703 1087 703 1061 l 701 1095 q 701 1099 701 1097 l 701 1105 l 701 1107 l 701 1109 l 701 1114 q 704 1131 704 1131 q 724 1173 704 1147 q 763 1198 745 1198 l 779 1202 l 789 1202 q 822 1172 822 1202 l 824 1160 l 824 1149 q 801 1091 824 1119 q 756 1063 778 1063 l 747 1061 l 734 1061 m 972 600 l 972 570 q 972 566 972 570 q 933 360 972 465 q 670 47 854 144 q 474 -5 571 -5 l 444 -5 q 311 22 376 -5 q 197 102 245 49 q 100 386 100 210 l 100 401 q 140 612 100 505 q 248 801 179 720 q 412 929 317 882 q 599 977 508 977 l 630 977 q 633 977 631 977 q 762 951 699 977 q 942 759 890 899 q 972 600 972 680 z "},"":{"ha":741,"x_min":130,"x_max":649,"o":"m 649 595 q 550 487 649 582 q 452 379 452 391 q 530 275 452 366 q 609 172 609 184 q 593 144 609 160 q 562 128 577 128 q 468 220 547 128 q 385 312 389 312 q 278 220 374 312 q 173 129 183 129 q 130 160 130 129 q 229 269 130 174 q 328 377 328 364 q 250 480 328 389 q 172 583 172 570 q 188 612 172 596 q 219 628 205 628 q 313 536 233 628 q 397 444 392 444 q 503 536 403 444 q 607 628 602 628 q 649 595 649 628 z "},"":{"ha":993,"x_min":138,"x_max":960,"o":"m 222 417 l 222 376 q 244 242 222 309 q 290 176 267 176 l 296 176 q 323 191 307 176 q 515 419 427 296 q 751 810 751 752 q 716 878 751 852 q 634 903 682 903 l 624 903 q 472 867 542 903 q 267 624 336 796 q 222 417 222 515 m 837 673 l 837 699 q 809 797 837 797 l 804 797 q 695 633 793 797 q 474 302 597 470 q 350 122 350 135 l 350 115 q 366 86 350 103 q 408 69 381 69 l 416 69 q 560 118 488 69 q 695 256 631 167 q 798 468 758 346 q 837 673 837 591 m 692 967 l 789 961 q 860 971 821 961 l 869 971 q 915 928 915 971 q 910 866 910 888 q 935 756 910 844 q 960 604 960 669 l 960 587 q 918 365 960 480 q 798 164 876 249 q 427 -5 643 -5 l 284 4 q 216 -7 257 4 l 207 -7 q 164 39 164 -7 q 182 132 182 109 q 168 199 182 155 q 145 275 153 243 q 138 366 138 308 q 183 617 138 505 q 692 967 324 967 z "},"":{"ha":975,"x_min":159,"x_max":992,"o":"m 677 1057 l 669 1057 q 555 1135 644 1057 q 465 1244 465 1213 l 465 1247 q 510 1270 465 1270 l 513 1270 q 574 1246 551 1270 q 644 1154 598 1223 q 690 1074 690 1084 l 690 1068 q 677 1057 690 1057 m 272 956 q 387 906 387 956 q 368 851 387 892 q 342 783 348 810 q 266 277 266 430 q 285 188 266 227 q 469 79 336 79 q 624 127 559 79 q 723 245 690 174 q 801 524 757 315 q 846 803 846 732 q 834 864 846 825 q 823 911 823 903 q 849 946 823 938 q 935 955 876 955 q 973 932 954 955 q 992 901 992 910 l 992 883 q 966 830 992 865 q 932 768 941 794 q 898 587 923 741 q 853 346 872 433 q 788 182 833 258 q 466 13 686 13 q 237 83 315 13 q 159 278 159 154 l 159 328 q 179 492 159 353 q 215 704 200 632 q 230 796 230 777 q 221 831 230 815 l 211 845 q 195 876 195 868 q 218 933 195 910 q 272 956 242 956 z "},"":{"ha":975,"x_min":159,"x_max":992,"o":"m 834 1250 l 834 1244 q 736 1140 834 1226 q 594 1055 637 1055 l 585 1055 q 572 1064 572 1055 l 572 1069 q 709 1231 572 1094 q 781 1265 744 1265 l 798 1265 q 834 1250 834 1265 m 272 956 q 387 905 387 956 q 367 850 387 890 q 342 782 348 811 q 266 277 266 429 q 285 187 266 227 q 469 79 336 79 q 625 127 562 79 q 723 244 689 175 q 801 522 756 313 q 846 802 846 732 q 834 863 846 824 q 823 911 823 902 q 848 945 823 937 q 935 954 874 954 q 973 932 954 954 q 992 901 992 909 l 992 882 q 966 829 992 865 q 932 768 940 792 q 898 585 924 745 q 852 342 871 425 q 787 179 834 260 q 656 55 739 98 q 480 12 573 12 q 333 28 388 12 q 240 80 278 45 q 159 277 159 155 l 159 328 q 180 496 159 355 q 216 706 201 637 q 230 794 230 774 q 221 830 230 814 l 211 844 q 195 875 195 867 q 219 933 195 909 q 272 956 243 956 z "},"":{"ha":975,"x_min":159,"x_max":992,"o":"m 697 1260 q 743 1215 713 1260 q 826 1073 826 1085 l 826 1069 q 800 1056 826 1056 q 723 1116 774 1056 q 665 1177 673 1177 q 584 1116 663 1177 q 483 1055 505 1055 l 478 1055 q 460 1067 460 1055 q 555 1166 460 1071 q 679 1261 650 1261 l 683 1261 q 697 1260 692 1260 m 272 954 q 387 903 387 954 q 367 848 387 887 q 342 779 348 808 q 266 274 266 427 q 285 184 266 224 q 469 77 336 77 q 614 118 547 77 q 719 233 682 159 q 801 518 755 307 q 846 800 846 729 q 834 860 846 821 q 823 909 823 899 q 848 943 823 934 q 935 951 874 951 q 973 929 954 951 q 992 898 992 907 l 992 880 q 966 826 992 863 q 932 766 940 789 q 898 582 924 742 q 852 339 871 422 q 786 175 833 255 q 655 52 738 95 q 481 9 572 9 q 235 81 312 9 q 159 275 159 152 l 159 325 q 180 493 159 352 q 216 703 201 634 q 230 792 230 772 q 221 827 230 812 l 211 842 q 195 872 195 865 q 219 930 195 907 q 272 954 243 954 z "},"":{"ha":975,"x_min":158,"x_max":991,"o":"m 597 1150 q 593 1129 593 1140 q 571 1100 593 1118 q 522 1082 549 1082 q 469 1132 469 1082 l 469 1140 q 487 1187 469 1164 q 522 1209 505 1209 q 528 1211 526 1211 l 536 1212 l 549 1212 q 595 1175 595 1212 l 597 1162 l 597 1150 m 842 1152 l 841 1141 q 822 1104 841 1124 q 785 1085 802 1085 l 773 1083 l 762 1083 l 748 1086 q 714 1131 714 1086 l 714 1141 l 718 1160 q 734 1190 718 1168 q 770 1211 751 1211 l 783 1213 l 793 1213 q 806 1211 800 1211 q 843 1162 843 1211 l 843 1154 l 842 1152 m 271 953 q 387 903 387 953 q 367 846 387 889 q 342 779 347 803 q 266 274 266 421 q 323 127 266 178 q 464 76 381 76 q 614 118 546 76 q 719 234 682 159 q 800 518 755 308 q 845 800 845 728 q 833 860 845 823 q 822 908 822 898 q 848 943 822 934 q 934 951 873 951 q 970 933 949 951 q 991 898 991 915 l 991 880 q 965 824 991 862 q 931 762 939 787 q 894 563 922 736 q 845 316 864 389 q 466 9 764 9 q 174 177 230 9 q 158 297 158 226 q 182 512 158 368 q 218 715 205 656 q 230 792 230 774 q 220 827 230 810 l 211 841 q 194 871 194 864 q 217 929 194 906 q 271 953 241 953 z "},"":{"ha":844,"x_min":157,"x_max":869,"o":"m 703 1258 l 713 1258 q 755 1240 755 1258 l 755 1237 q 655 1132 755 1219 q 515 1044 556 1044 l 511 1044 q 494 1056 494 1044 l 494 1059 q 511 1088 494 1068 q 632 1224 623 1216 q 703 1258 671 1258 m 330 869 q 326 832 326 844 q 435 589 326 821 q 469 549 454 549 q 491 566 475 549 q 683 802 593 674 q 712 862 702 828 q 728 903 722 896 q 825 937 758 937 l 838 937 q 869 924 869 937 q 827 879 869 912 q 739 782 784 846 q 524 452 585 568 q 471 293 492 390 q 450 171 450 196 q 467 115 450 146 q 484 66 484 83 q 456 31 484 50 q 387 12 429 12 l 351 12 q 282 28 300 12 q 264 61 264 45 q 293 113 264 77 q 330 184 321 149 q 355 395 355 278 q 277 713 355 511 q 215 832 243 800 q 157 905 157 899 q 212 925 157 925 q 307 907 268 925 q 330 869 330 897 z "},"":{"ha":776,"x_min":79,"x_max":781,"o":"m 340 285 l 360 285 q 484 308 419 285 q 650 456 608 351 q 671 564 671 509 l 671 571 q 620 694 671 646 q 472 743 568 743 q 358 695 376 743 q 317 500 351 675 q 284 305 284 325 q 340 285 284 285 m 185 10 l 156 10 q 79 50 79 10 q 112 101 79 67 q 157 182 145 136 q 232 550 191 313 q 273 819 273 788 q 254 873 273 849 q 235 924 235 898 q 311 957 235 957 q 427 923 361 957 q 456 871 456 908 q 494 808 456 833 q 592 775 501 804 q 718 715 684 747 q 781 558 781 656 l 781 541 q 750 422 781 479 q 447 242 663 264 q 341 228 354 233 q 303 196 328 222 q 278 142 278 169 l 292 100 q 255 36 292 61 q 185 10 217 10 z "},"":{"ha":762,"x_min":-37,"x_max":700,"o":"m 571 786 q 494 864 571 864 q 405 820 452 864 q 319 696 357 775 q 231 347 282 616 q 146 -5 179 77 q 0 -167 82 -167 q -37 -139 -37 -167 q -21 -106 -37 -125 l -6 -90 q 21 -58 14 -68 q 119 304 84 40 q 155 578 153 568 q 212 735 167 645 q 343 899 257 825 q 516 972 429 972 q 651 925 603 972 q 700 811 700 877 q 631 670 700 745 q 563 524 563 596 q 614 420 563 495 q 679 310 665 346 q 693 225 693 273 q 618 64 693 135 q 429 -7 545 -7 q 342 13 381 -7 q 303 60 303 32 q 347 100 303 100 q 391 90 357 100 q 454 79 424 79 q 546 123 506 79 q 585 226 585 167 q 522 383 585 286 q 459 532 459 480 q 515 668 459 583 q 571 786 571 752 z "},"":{"ha":710,"x_min":68,"x_max":643,"o":"m 172 280 l 172 245 q 201 139 172 175 q 271 102 230 102 l 277 102 q 370 137 321 103 q 503 341 469 206 q 528 500 528 439 l 528 521 q 435 604 528 604 l 420 604 q 254 507 334 604 q 197 400 221 467 q 172 280 172 334 m 522 767 l 522 761 q 507 749 522 749 l 500 749 q 421 827 479 749 q 317 967 317 965 l 317 972 q 349 989 317 989 l 362 989 q 427 950 402 989 q 522 767 522 797 m 643 578 l 643 570 q 616 406 643 549 q 589 222 589 262 q 613 158 589 182 q 637 111 637 134 q 614 67 637 88 q 551 46 591 46 q 502 80 536 46 q 446 115 467 115 q 356 75 425 115 q 218 35 287 35 q 108 89 149 35 q 68 221 68 142 q 97 381 68 299 q 181 528 125 463 q 300 624 237 592 q 425 656 364 656 l 597 626 q 643 578 643 626 z "},"":{"ha":710,"x_min":63,"x_max":646,"o":"m 170 271 l 170 243 q 196 142 170 181 q 264 103 223 103 l 271 103 q 364 138 313 103 q 448 224 414 172 q 505 355 481 275 q 529 506 529 435 l 529 519 q 508 584 529 562 q 432 606 488 606 l 425 606 q 335 579 381 606 q 250 501 289 552 q 190 381 211 450 q 170 271 170 313 m 646 968 l 646 963 q 536 846 646 943 q 419 749 427 749 l 416 749 l 413 750 q 398 760 398 750 l 398 763 q 544 960 398 793 q 597 983 565 983 l 618 983 q 646 968 646 983 m 637 562 q 611 404 637 545 q 584 223 584 262 q 608 159 584 184 q 633 113 633 135 q 610 69 633 91 q 546 47 587 47 q 496 82 528 47 q 443 116 465 116 q 351 76 420 116 q 213 36 282 36 q 103 90 144 36 q 63 222 63 144 q 91 381 63 300 q 172 524 119 461 q 289 622 224 586 q 420 657 354 657 l 593 627 q 638 580 638 627 l 637 571 l 637 562 z "},"":{"ha":710,"x_min":68,"x_max":643,"o":"m 172 268 l 172 246 q 198 139 172 178 q 265 99 224 99 l 278 99 q 371 135 319 99 q 511 349 477 208 q 532 495 532 433 q 510 578 532 556 q 431 600 488 600 l 425 600 q 336 572 382 600 q 195 384 244 518 q 172 268 172 321 m 311 755 l 302 755 q 290 764 290 755 l 290 767 q 338 825 290 772 l 342 829 l 346 832 l 399 888 q 505 981 477 981 l 509 981 q 557 938 534 981 q 639 770 639 784 q 616 756 639 756 q 546 826 594 756 q 490 897 497 897 q 407 826 484 897 q 311 755 331 755 m 68 210 l 68 236 q 99 382 68 304 q 303 621 164 549 q 425 651 362 651 l 437 651 q 615 620 478 651 q 643 581 643 614 l 643 566 q 616 398 643 541 q 589 216 589 255 q 613 155 589 177 q 637 107 637 132 q 615 62 637 83 q 563 41 592 41 q 502 76 534 41 q 448 111 470 111 q 358 71 427 111 q 234 31 289 31 l 211 31 q 112 80 156 31 q 68 210 68 129 z "},"":{"ha":711,"x_min":66,"x_max":682,"o":"m 170 270 l 170 234 q 198 138 170 176 q 263 101 225 101 l 283 101 q 374 139 325 101 q 455 226 424 177 q 509 353 487 275 q 532 498 532 431 l 532 505 q 510 578 532 556 q 437 600 488 600 l 422 600 q 338 575 384 600 q 193 386 245 526 q 170 270 170 325 m 401 909 l 417 909 q 494 879 448 909 q 567 850 540 850 q 627 879 594 850 q 664 909 659 909 l 668 909 q 682 891 682 909 q 638 819 682 852 q 554 786 594 786 q 460 814 513 786 q 378 843 406 843 q 317 813 349 843 q 278 784 284 784 l 274 784 q 259 800 259 784 q 309 872 259 835 q 401 909 358 909 m 66 211 l 66 238 q 96 382 66 302 q 290 616 155 539 q 423 653 354 653 q 506 639 445 653 q 591 623 566 625 q 620 619 615 621 q 642 578 642 610 q 614 401 642 547 q 587 217 587 256 q 611 156 587 178 q 635 110 635 134 q 613 64 635 86 q 561 43 590 43 q 500 77 532 43 q 445 112 468 112 q 356 72 422 112 q 221 32 289 32 q 110 83 153 32 q 66 211 66 134 z "},"":{"ha":711,"x_min":68,"x_max":654,"o":"m 172 278 l 172 243 q 198 143 172 182 q 266 104 225 104 l 272 104 l 279 104 q 372 141 323 104 q 450 225 420 178 q 504 351 480 272 q 528 498 528 429 l 528 531 q 503 585 528 566 q 439 604 479 604 l 418 604 q 253 505 334 604 q 196 398 221 465 q 172 278 172 332 m 376 930 q 423 895 423 930 q 425 889 425 892 l 426 881 l 426 869 l 423 855 q 404 821 423 840 q 357 802 385 802 l 349 802 q 300 850 300 802 l 300 860 l 304 878 q 320 907 304 888 q 352 927 336 927 q 358 928 356 928 l 368 930 l 376 930 m 654 867 l 652 852 q 633 811 652 835 q 601 788 614 788 l 594 786 l 581 786 l 574 787 q 539 825 539 787 l 537 833 l 537 846 q 545 879 545 869 q 563 906 545 888 q 597 924 581 924 q 603 926 601 926 l 614 927 l 616 927 q 631 923 628 923 q 654 886 654 923 l 654 867 m 68 216 l 68 242 q 100 393 68 315 q 302 627 170 560 q 425 657 363 657 l 437 657 q 507 644 454 657 q 587 628 559 630 q 621 623 614 626 q 642 580 642 614 l 642 572 q 615 404 642 547 q 588 223 588 260 q 612 161 588 185 q 637 113 637 136 q 614 68 637 90 q 562 47 591 47 q 502 82 534 47 q 448 117 469 117 q 357 77 426 117 q 233 37 288 37 l 210 37 q 112 86 155 37 q 68 216 68 135 z "},"":{"ha":710,"x_min":66,"x_max":642,"o":"m 479 961 q 435 941 460 961 q 410 899 410 921 q 407 888 407 890 l 407 868 q 409 849 409 860 q 429 823 409 839 q 465 808 448 808 l 481 808 q 497 810 488 810 q 528 831 506 810 q 549 873 549 853 l 551 888 l 551 901 q 549 916 549 907 q 533 942 549 926 q 503 959 516 959 l 491 961 l 479 961 m 167 267 l 167 238 q 194 132 167 172 q 260 92 222 92 l 273 92 q 364 127 311 92 q 450 210 417 161 q 507 341 484 258 q 531 490 531 424 l 531 524 q 505 582 531 564 q 441 600 479 600 l 420 600 q 418 600 418 600 q 327 571 372 600 q 188 379 233 511 q 167 267 167 319 m 444 763 q 382 795 411 763 q 354 865 354 828 l 354 881 q 396 970 354 932 q 486 1008 439 1008 l 494 1008 q 569 980 533 1008 q 604 908 604 952 l 604 888 q 562 799 604 836 q 477 762 520 762 l 456 762 q 444 763 448 763 m 66 216 l 66 242 q 98 391 66 311 q 182 533 129 471 q 299 626 235 594 q 422 659 363 659 q 620 625 530 659 q 642 581 642 617 l 642 573 q 614 409 642 553 q 587 225 587 266 q 611 160 587 184 q 635 113 635 136 q 612 69 635 90 q 561 48 589 48 q 499 83 532 48 q 446 117 467 117 q 356 78 425 117 q 233 38 288 38 l 210 38 q 106 91 146 38 q 66 216 66 144 z "},"":{"ha":937,"x_min":94,"x_max":951,"o":"m 465 575 l 452 575 q 375 550 420 575 q 291 471 331 526 q 228 347 252 416 q 205 233 205 277 l 205 201 q 224 131 205 161 q 276 101 244 101 l 288 101 q 363 132 317 101 q 431 200 410 163 q 495 368 452 238 q 538 524 538 497 l 538 535 q 520 561 538 546 q 465 575 501 575 m 600 395 l 600 389 q 622 361 600 361 l 640 361 q 657 363 650 363 q 804 435 723 363 q 850 532 850 475 l 850 549 q 806 596 850 596 l 784 598 q 678 545 726 598 q 600 395 600 457 m 585 252 q 711 102 585 102 q 810 128 753 102 l 865 155 q 886 164 884 164 q 897 153 897 164 q 821 65 897 113 q 673 18 745 18 l 656 18 q 510 98 576 18 q 470 137 478 137 q 378 80 461 137 q 232 23 294 23 q 132 71 170 23 q 94 196 94 119 l 94 214 q 132 363 94 281 q 228 505 170 446 q 480 621 343 620 q 556 627 524 621 q 601 633 589 633 q 631 625 612 633 q 664 616 650 616 q 722 632 679 616 q 825 648 766 648 q 917 614 884 648 q 951 530 951 581 l 951 514 q 896 400 951 441 q 689 314 825 349 q 616 292 628 298 q 585 252 585 276 z "},"":{"ha":631,"x_min":81,"x_max":622,"o":"m 81 258 l 81 273 q 114 428 81 351 q 199 562 146 505 q 454 679 304 679 q 562 654 520 679 q 622 583 622 617 q 606 549 622 564 q 576 533 589 533 q 541 549 563 533 q 492 577 518 564 q 421 590 465 590 q 335 564 377 590 q 261 492 293 537 q 199 275 199 403 q 239 131 199 182 q 353 79 278 79 q 500 121 428 79 q 543 138 530 138 q 569 104 569 138 q 487 30 569 71 q 338 -11 406 -11 q 147 62 212 -11 q 81 258 81 135 m 340 -22 q 351 -46 351 -22 q 381 -97 351 -71 q 411 -160 411 -123 l 411 -165 q 365 -253 411 -216 q 263 -290 319 -290 l 258 -290 l 254 -290 q 196 -268 196 -290 l 196 -256 q 230 -241 196 -241 q 290 -223 264 -241 q 317 -179 317 -204 q 293 -136 317 -155 q 269 -108 269 -117 q 298 -33 269 -70 q 331 -23 306 -23 l 340 -22 z "},"":{"ha":610,"x_min":77,"x_max":595,"o":"m 414 614 l 401 614 q 275 550 333 614 q 200 403 200 467 l 200 399 l 201 395 q 224 373 201 373 l 228 373 q 241 374 236 374 q 416 421 330 374 q 503 511 503 469 l 503 524 q 479 587 503 561 q 414 614 455 614 m 483 770 l 483 764 q 463 751 483 751 l 459 751 q 401 789 431 751 q 286 970 286 938 l 286 979 q 317 996 286 996 l 330 996 q 377 976 362 996 q 405 924 391 955 q 451 835 419 892 q 483 770 483 778 m 77 238 l 77 265 q 110 424 77 347 q 194 557 141 500 q 427 667 295 666 q 552 625 509 667 q 595 516 595 583 q 531 403 595 448 q 297 319 467 357 q 216 297 231 304 q 189 228 189 282 q 227 137 189 174 q 340 100 266 100 q 409 114 378 100 q 470 145 439 127 q 509 163 500 163 q 526 134 526 163 q 443 58 526 100 q 279 17 360 17 q 137 79 197 17 q 77 238 77 142 z "},"":{"ha":610,"x_min":74,"x_max":618,"o":"m 422 615 l 409 615 q 278 550 343 615 q 224 470 250 522 q 198 395 198 418 l 199 391 q 214 372 199 372 l 230 372 q 416 425 299 372 q 505 513 505 466 l 505 534 q 479 592 505 570 q 422 615 454 615 m 393 750 l 391 750 q 373 762 373 750 l 373 764 q 498 948 373 805 q 582 986 532 986 l 585 986 q 618 971 618 986 l 618 968 q 509 847 618 944 q 393 750 400 750 m 524 142 q 444 61 524 104 q 275 18 363 18 q 131 84 187 18 q 74 252 74 151 l 75 266 l 75 279 q 107 425 75 347 q 309 643 174 584 q 423 667 366 667 l 437 667 q 550 625 508 667 q 593 518 593 583 q 544 415 593 454 q 294 320 471 357 q 214 298 228 306 q 186 225 186 282 q 228 135 186 168 q 332 101 269 101 q 467 146 395 101 q 506 163 495 163 q 524 142 524 163 z "},"":{"ha":610,"x_min":77,"x_max":606,"o":"m 199 394 l 199 387 l 200 383 q 216 366 200 366 l 224 366 q 237 368 234 368 q 436 426 308 368 q 507 506 507 458 l 507 519 q 480 585 507 562 q 412 609 454 609 l 408 608 q 271 536 343 608 q 224 465 248 513 q 199 394 199 416 m 277 752 l 267 752 q 256 760 256 752 l 256 763 q 295 813 256 777 q 366 886 334 849 q 469 980 446 980 l 473 980 q 522 938 500 980 q 537 909 526 928 q 576 838 537 909 q 606 777 606 787 l 606 773 q 584 760 606 760 q 510 828 562 760 q 454 897 457 897 q 372 824 450 897 q 277 752 294 752 m 77 233 l 77 260 q 103 401 77 328 q 179 535 129 475 q 427 661 284 661 q 551 620 507 661 q 595 511 595 579 q 531 397 595 443 q 297 314 466 352 q 216 292 231 299 q 189 223 189 277 q 227 132 189 170 q 329 95 266 95 q 470 140 392 95 q 509 157 500 157 q 526 128 526 157 q 443 53 526 94 q 280 12 360 12 q 138 73 199 12 q 77 233 77 134 z "},"":{"ha":610,"x_min":80,"x_max":618,"o":"m 203 404 l 203 393 q 224 373 203 373 l 228 373 q 241 374 237 374 q 437 433 308 374 q 506 515 506 465 l 506 523 l 505 528 q 483 588 505 563 q 425 614 460 614 l 407 614 q 281 551 338 614 q 203 404 203 464 m 300 804 q 273 836 273 804 q 271 842 271 840 l 270 851 l 270 859 l 271 861 l 273 876 q 273 885 273 878 q 289 911 273 892 q 322 931 305 931 l 332 933 l 348 933 l 359 930 q 391 885 391 930 l 391 871 l 389 857 q 372 825 389 845 q 340 804 356 804 q 334 803 336 803 l 326 802 l 314 802 l 312 802 l 308 802 q 300 804 304 804 m 562 787 l 555 787 q 519 802 538 787 q 500 832 500 816 l 498 846 l 498 850 q 523 905 498 880 q 572 930 548 930 l 577 930 q 618 882 618 930 l 618 861 l 616 846 q 599 808 616 829 q 562 787 583 787 m 416 667 l 443 667 q 552 629 505 667 q 598 533 598 591 l 598 520 q 415 351 598 401 q 285 318 336 329 q 219 298 233 307 q 192 226 192 283 q 234 135 192 169 q 328 101 276 101 q 429 123 379 101 q 470 145 437 127 q 512 163 503 163 q 530 142 530 163 q 450 62 530 105 q 304 18 370 18 l 277 18 q 136 86 191 18 q 80 252 80 154 l 80 266 q 107 411 80 335 q 304 638 163 568 q 416 667 362 667 z "},"":{"ha":365,"x_min":98,"x_max":315,"o":"m 150 987 l 165 987 q 222 960 205 987 q 315 758 315 811 l 315 756 q 301 743 315 743 l 295 743 q 230 791 272 743 q 118 962 118 920 l 118 968 q 150 987 118 987 m 98 82 l 98 97 q 132 308 98 155 q 166 496 166 460 q 146 554 166 532 q 126 585 126 576 q 159 632 126 612 q 235 652 191 652 l 241 652 l 248 652 q 281 602 281 652 l 281 593 q 248 412 281 587 q 216 193 216 236 q 245 140 216 151 q 274 104 274 129 q 232 54 274 80 q 149 27 189 27 l 142 27 q 98 82 98 27 z "},"":{"ha":366,"x_min":105,"x_max":454,"o":"m 401 979 l 418 979 q 454 958 454 979 q 357 840 454 937 q 241 743 260 743 l 238 743 q 216 755 216 743 l 216 758 q 345 947 216 800 q 401 979 374 979 m 222 185 q 245 144 222 152 q 281 118 281 131 q 239 54 281 81 q 156 27 197 27 l 149 27 q 105 75 105 27 l 105 96 q 141 309 105 124 q 176 513 176 494 q 157 555 176 531 q 137 592 137 578 q 163 629 137 605 q 245 653 189 653 l 252 653 q 291 611 291 653 l 291 586 q 257 407 291 564 q 224 208 224 250 q 222 185 222 193 z "},"":{"ha":372,"x_min":94,"x_max":429,"o":"m 94 765 q 181 873 94 768 q 298 977 269 977 q 346 949 327 977 q 397 848 366 922 q 429 770 429 774 q 406 751 429 751 l 401 751 q 315 848 374 751 q 288 880 296 880 q 212 817 288 880 q 116 754 137 754 q 94 765 94 754 m 100 78 l 100 93 q 135 307 100 155 q 170 494 170 458 q 150 550 170 529 q 131 587 131 572 q 157 626 131 603 q 239 649 184 649 l 247 649 q 286 598 286 649 l 286 589 q 271 488 286 557 q 237 313 256 419 q 218 177 218 206 q 240 140 218 149 q 276 116 276 127 q 238 54 276 84 q 151 24 199 24 l 144 24 q 100 78 100 24 z "},"":{"ha":374,"x_min":105,"x_max":456,"o":"m 226 859 q 207 807 226 831 q 168 783 187 783 l 156 783 l 142 786 q 105 831 105 786 l 105 849 l 106 851 l 106 861 q 109 878 109 869 q 126 905 109 888 q 152 922 144 922 l 167 926 l 172 926 l 186 923 q 222 890 222 923 q 224 882 224 884 l 226 871 l 226 859 m 456 884 l 456 867 q 437 822 456 846 q 393 798 418 798 l 376 798 q 332 846 332 798 l 332 860 l 333 862 l 333 867 q 334 879 334 871 q 352 909 334 886 q 396 931 370 931 l 409 931 q 421 929 415 929 q 456 884 456 929 m 290 614 l 290 589 q 257 410 290 562 q 223 208 223 259 q 245 148 223 156 q 282 122 282 134 q 242 59 282 87 q 157 32 201 32 l 151 32 q 106 86 106 32 l 106 94 l 107 101 q 142 316 107 129 q 176 505 176 503 q 156 559 176 535 q 136 588 136 584 q 172 639 136 621 q 244 656 208 656 l 252 656 q 290 614 290 656 z "},"":{"ha":690,"x_min":71,"x_max":647,"o":"m 426 581 l 413 581 q 271 505 325 581 q 168 249 168 361 l 168 220 q 206 104 168 151 q 292 58 243 58 l 307 58 q 397 85 352 58 q 475 164 442 113 q 549 408 549 282 l 549 415 q 507 541 549 486 q 426 581 477 581 m 442 607 q 504 652 504 607 q 454 747 504 720 q 374 763 435 758 q 313 777 313 768 q 338 812 313 795 q 393 867 393 848 q 360 924 393 886 q 328 963 328 962 q 371 990 328 990 q 448 955 397 990 q 518 920 500 920 q 571 931 537 920 q 619 942 606 942 q 640 918 640 942 q 598 865 640 909 q 574 793 574 838 q 595 724 574 780 q 647 452 647 590 l 647 434 q 620 266 647 347 q 545 125 593 184 q 433 33 496 66 q 312 -1 369 -1 l 276 -1 q 195 18 239 -1 q 71 237 71 73 q 102 387 71 316 q 185 510 134 458 q 293 584 236 561 q 442 607 351 607 z "},"":{"ha":735,"x_min":106,"x_max":694,"o":"m 407 917 l 422 917 q 499 887 444 917 q 580 858 555 858 q 636 886 605 858 q 681 915 668 915 q 694 896 694 915 q 651 822 694 862 q 563 783 608 783 l 553 783 q 469 813 520 783 q 392 844 417 844 q 329 816 367 844 q 287 787 291 787 q 273 806 273 787 q 320 880 273 843 q 407 917 368 917 m 564 54 q 499 172 499 54 q 518 308 499 201 q 537 464 537 414 q 515 541 537 513 q 461 570 494 570 q 381 533 429 570 q 292 426 334 497 q 216 169 250 355 q 197 83 202 96 q 151 37 177 37 q 122 55 138 37 q 106 98 106 73 q 135 222 106 123 q 163 399 163 321 q 155 458 163 420 q 146 507 146 495 q 178 606 146 545 q 218 637 194 637 q 272 580 258 637 q 300 523 286 523 q 347 557 305 523 q 534 635 442 635 q 616 599 587 635 q 646 512 646 563 q 624 339 646 462 q 601 174 601 216 q 614 113 601 132 q 626 100 615 111 q 637 81 637 88 q 564 54 637 54 z "},"":{"ha":673,"x_min":78,"x_max":648,"o":"m 304 87 l 319 87 q 465 174 399 87 q 520 282 498 217 q 543 410 543 347 l 543 431 q 508 563 543 512 q 420 613 473 613 l 406 613 q 323 587 364 613 q 199 406 237 530 q 180 283 180 340 l 180 269 q 215 139 180 191 q 304 87 250 87 m 486 755 l 477 755 q 396 832 447 755 q 342 897 388 844 q 296 966 296 949 q 296 967 296 966 l 296 975 q 326 990 296 990 l 332 991 l 345 991 q 404 958 383 991 q 501 771 501 803 l 501 769 q 486 755 501 755 m 78 247 l 78 277 q 78 281 78 279 q 106 422 78 348 q 286 637 161 572 q 406 671 352 671 l 435 671 q 520 651 478 671 q 588 600 562 631 q 648 433 648 530 l 648 422 l 648 412 q 621 269 648 349 q 543 130 595 190 q 302 7 438 8 q 139 75 200 7 q 78 247 78 143 z "},"":{"ha":673,"x_min":74,"x_max":644,"o":"m 296 89 l 317 89 q 389 111 349 89 q 522 292 475 159 q 544 412 544 355 l 544 441 q 510 565 544 516 q 428 614 476 614 l 406 614 q 325 587 366 614 q 199 405 237 530 q 178 283 178 335 l 178 254 q 213 139 178 189 q 296 89 247 89 m 625 973 l 625 967 q 525 854 625 955 q 397 754 425 754 l 394 754 q 376 763 376 754 l 376 766 q 516 956 376 797 q 583 987 543 987 l 591 987 q 625 973 625 987 m 74 248 l 74 279 q 74 282 74 280 q 102 423 74 347 q 290 642 155 572 q 411 673 349 673 l 431 673 q 514 653 472 673 q 584 602 556 634 q 644 433 644 531 l 644 424 l 644 414 q 617 271 644 350 q 540 132 591 193 q 298 9 434 9 l 288 9 q 133 78 193 9 q 74 248 74 148 z "},"":{"ha":673,"x_min":77,"x_max":648,"o":"m 179 286 l 179 256 q 214 135 179 186 q 304 84 249 84 l 311 84 l 318 85 q 402 112 361 85 q 473 180 444 138 q 547 410 547 285 l 547 418 l 547 425 q 512 558 547 508 q 425 609 477 609 l 410 609 q 338 588 379 609 q 259 518 297 568 q 200 398 221 469 q 179 286 179 328 m 288 756 l 279 756 q 263 765 263 756 l 263 768 q 358 877 263 773 q 479 981 454 981 l 484 981 q 528 952 510 981 q 613 781 613 813 l 613 777 q 586 763 613 763 q 513 830 559 763 q 461 897 467 897 q 380 826 456 897 q 288 756 304 756 m 312 3 l 292 3 q 137 73 197 3 q 77 253 77 142 l 77 263 l 78 273 q 78 276 78 274 q 106 418 78 345 q 302 641 165 575 q 425 667 357 667 q 584 600 519 667 q 648 438 648 532 l 648 408 q 648 404 648 406 q 618 258 648 336 q 424 32 559 98 q 312 3 367 3 z "},"":{"ha":673,"x_min":75,"x_max":658,"o":"m 300 85 l 314 85 q 466 174 397 85 q 523 283 500 219 q 545 410 545 348 l 545 433 q 511 557 545 507 q 416 608 476 608 l 410 607 l 402 607 q 400 607 401 607 q 330 585 369 607 q 198 404 244 537 q 177 288 177 343 l 177 252 q 212 135 177 186 q 300 85 247 85 m 658 897 q 614 824 658 861 q 526 788 571 788 q 433 817 481 788 q 355 846 385 846 q 295 816 325 846 q 253 787 266 787 l 249 787 q 235 800 235 787 l 235 804 q 282 876 235 841 q 386 911 329 911 q 464 883 412 911 q 540 855 516 855 q 597 885 564 855 q 640 916 631 916 q 658 901 658 916 l 658 897 m 75 243 l 75 283 q 106 425 75 351 q 291 637 168 576 q 412 668 352 668 l 422 668 q 581 601 517 668 q 645 439 645 533 l 645 399 q 612 250 645 331 q 430 37 551 100 q 309 4 366 4 l 289 4 q 135 73 194 4 q 75 243 75 142 z "},"":{"ha":673,"x_min":79,"x_max":649,"o":"m 305 88 l 320 88 q 473 188 401 88 q 525 298 505 233 q 545 411 545 363 l 545 440 q 511 563 545 513 q 421 612 477 612 l 407 612 q 331 589 374 612 q 257 520 289 566 q 182 304 182 414 l 181 290 l 181 260 q 216 138 181 189 q 305 88 250 88 m 353 933 q 401 880 401 933 l 401 878 q 382 827 401 851 q 330 804 363 804 l 326 804 q 277 839 277 804 l 275 847 l 275 850 l 274 857 l 274 859 l 275 861 q 292 908 275 887 q 324 930 309 930 l 340 933 l 353 933 m 633 872 l 630 857 q 611 820 630 844 q 575 795 591 795 q 567 793 569 793 l 555 791 l 549 791 q 509 829 509 791 l 509 848 q 513 873 513 861 q 533 905 513 884 q 570 926 554 926 q 576 927 574 927 l 584 928 l 596 928 q 606 926 602 926 q 630 901 630 926 q 631 895 631 897 l 633 887 l 633 872 m 79 248 l 79 278 q 107 423 79 348 q 183 553 136 498 q 291 640 230 608 q 406 672 353 672 l 437 672 q 585 605 522 672 q 649 444 649 538 l 649 403 q 617 257 649 335 q 540 125 585 178 q 433 41 494 73 q 313 9 371 9 l 283 9 q 139 78 198 9 q 79 248 79 147 z "},"":{"ha":756,"x_min":125,"x_max":702,"o":"m 412 555 q 366 572 383 555 q 349 605 349 589 l 349 615 q 373 655 349 631 q 430 678 396 678 l 450 678 q 474 675 463 675 q 499 657 485 675 q 513 629 513 640 l 513 618 q 492 581 513 602 q 450 559 470 559 q 440 557 443 557 l 427 555 l 412 555 m 361 456 l 581 456 q 702 435 702 456 l 701 429 l 701 423 q 674 384 701 388 q 401 379 646 379 l 389 379 l 369 378 l 260 378 q 125 399 125 378 l 125 405 l 125 411 q 155 451 125 446 q 361 456 184 456 m 402 243 q 454 195 454 243 l 454 180 q 435 133 454 156 q 385 111 417 111 l 369 111 q 320 146 320 111 q 317 157 317 155 l 317 175 l 320 190 q 338 223 320 205 q 371 241 356 241 q 378 242 375 242 l 387 243 l 402 243 z "},"":{"ha":665,"x_min":85,"x_max":642,"o":"m 184 273 l 184 248 q 209 160 184 160 q 350 339 222 160 q 478 547 478 517 l 478 551 q 423 598 478 598 l 406 598 q 326 571 369 598 q 252 494 283 543 q 184 273 184 389 m 253 115 l 253 101 q 286 66 253 66 l 301 66 q 303 66 302 66 q 379 94 340 66 q 515 305 460 150 q 536 410 536 365 l 538 421 l 538 439 l 538 461 q 525 515 538 515 q 451 409 519 515 q 318 212 382 302 q 253 115 253 121 m 85 229 l 85 265 q 119 422 85 338 q 212 564 153 505 q 331 643 270 622 q 492 664 392 664 q 559 679 524 664 q 603 694 593 694 l 610 694 q 631 668 631 694 q 622 634 631 661 q 613 595 613 608 q 627 526 613 583 q 642 422 642 469 l 641 410 q 608 246 641 327 q 520 109 575 165 q 406 27 466 52 q 279 3 346 3 q 197 -2 212 3 q 173 -11 182 -6 q 145 -22 165 -16 q 123 -28 125 -28 l 117 -28 q 95 4 95 -28 q 104 37 95 13 q 113 92 113 60 q 113 96 113 94 q 99 144 113 97 q 85 229 85 191 z "},"":{"ha":732,"x_min":120,"x_max":640,"o":"m 492 755 l 486 755 q 385 845 465 755 q 306 966 306 936 l 306 972 q 342 992 306 992 l 356 992 q 417 957 395 992 q 507 774 507 814 l 507 768 q 492 755 507 755 m 209 616 q 277 519 277 616 q 251 359 277 472 q 224 189 224 247 q 296 86 224 86 q 377 124 327 86 q 469 231 427 163 q 544 452 510 300 q 604 604 578 604 q 624 588 608 604 q 640 537 640 571 l 640 522 q 626 436 640 514 q 612 335 612 359 q 619 253 612 311 l 623 221 q 629 174 629 183 q 557 39 629 39 q 507 81 519 39 q 475 138 489 138 q 433 113 468 138 q 234 28 315 28 l 218 28 q 144 65 169 28 q 120 153 120 102 l 120 171 q 148 343 120 202 q 176 511 176 484 q 161 564 176 538 q 146 591 146 589 q 209 616 146 616 z "},"":{"ha":732,"x_min":119,"x_max":638,"o":"m 593 984 l 600 984 q 637 968 637 984 l 637 965 q 535 845 637 935 q 411 754 433 754 l 408 755 q 391 764 391 755 l 391 767 q 520 948 391 801 q 593 984 551 984 m 208 617 q 275 521 275 617 q 249 360 275 473 q 223 189 223 248 q 294 87 223 87 q 381 129 332 87 q 470 237 431 172 q 543 453 510 302 q 602 604 576 604 q 623 588 608 604 q 638 538 638 572 l 638 522 q 624 437 638 515 q 610 335 610 359 q 618 254 610 311 l 622 222 q 628 175 628 184 q 555 40 628 40 q 505 81 518 40 q 474 138 488 138 q 431 113 465 138 q 233 28 318 28 q 119 154 119 28 l 119 172 q 147 343 119 200 q 175 513 175 487 q 160 564 175 538 q 144 592 144 590 q 208 617 144 617 z "},"":{"ha":732,"x_min":119,"x_max":639,"o":"m 494 988 l 499 988 q 540 962 522 988 q 629 780 629 834 l 629 776 q 604 761 629 761 q 531 830 578 761 q 480 899 483 899 q 401 829 477 899 q 303 760 326 760 l 298 760 q 281 772 281 760 q 327 830 281 779 q 389 899 373 880 q 494 988 465 988 m 557 37 q 506 78 519 37 q 475 136 487 136 q 435 113 467 136 q 237 25 272 25 q 233 26 235 25 q 149 57 178 26 q 119 151 119 89 l 119 169 q 148 337 119 197 q 176 507 176 478 q 170 546 176 536 q 154 569 163 556 q 145 584 145 583 q 208 614 145 614 q 261 590 245 614 q 276 522 276 566 q 250 357 276 479 q 224 186 224 235 q 296 84 224 84 q 382 126 333 84 q 471 235 432 169 q 544 451 510 300 q 603 602 577 602 q 624 585 609 602 q 639 534 639 568 l 639 519 q 625 436 639 510 q 612 310 612 362 l 629 157 q 557 37 629 37 z "},"":{"ha":732,"x_min":121,"x_max":656,"o":"m 357 928 l 364 928 q 413 892 413 928 q 414 886 414 888 l 416 879 l 416 867 l 413 852 q 395 819 413 838 q 361 801 376 801 l 349 799 l 334 799 q 292 836 292 799 l 290 847 l 290 857 l 293 876 q 310 906 293 885 q 357 928 327 928 m 656 867 l 654 857 q 634 819 654 840 q 587 799 614 799 l 578 799 q 530 848 530 799 l 530 856 q 551 907 530 886 q 598 928 572 928 l 606 928 q 618 926 612 926 q 653 895 653 926 q 655 887 655 890 l 656 878 l 656 869 l 656 867 m 210 623 q 278 526 278 623 q 252 366 278 479 q 226 195 226 253 q 297 92 226 92 q 385 135 334 92 q 474 244 435 178 q 546 460 513 311 q 605 610 578 610 q 626 593 611 610 q 641 553 641 576 q 627 447 641 530 q 614 333 614 364 q 623 238 614 289 l 627 217 q 631 180 631 185 q 558 45 631 45 q 508 86 520 45 q 476 144 490 144 q 438 121 468 144 q 239 33 274 33 q 235 34 237 33 q 121 159 121 34 l 121 177 q 150 350 121 193 q 178 525 178 507 q 162 569 178 543 q 147 597 147 595 q 210 623 147 623 z "},"":{"ha":659,"x_min":33,"x_max":643,"o":"m 557 979 l 581 979 q 612 963 612 979 l 612 960 l 611 957 q 510 841 611 930 q 395 753 408 753 l 385 753 q 368 762 368 753 l 368 767 q 500 949 368 798 q 557 979 527 979 m 199 -135 q 277 30 277 -43 q 165 469 277 104 q 134 531 155 501 q 112 566 112 561 q 135 586 112 571 q 184 602 158 602 q 267 503 230 602 q 307 311 290 444 q 337 178 325 178 q 369 197 349 178 q 462 340 414 240 q 517 477 509 440 q 529 552 525 515 q 537 597 533 589 q 601 639 558 639 q 643 607 643 639 q 485 208 643 543 q 198 -214 347 -84 q 76 -283 119 -283 q 33 -257 33 -283 q 95 -204 33 -224 q 199 -135 157 -184 z "},"":{"ha":699,"x_min":-23,"x_max":659,"o":"m 295 56 l 316 56 q 411 87 363 56 q 492 163 459 118 q 566 395 566 265 l 566 403 q 528 527 566 480 q 442 574 491 574 l 429 574 q 346 541 387 574 q 224 306 264 475 q 204 161 204 220 l 204 140 q 229 79 204 102 q 295 56 254 56 m 475 600 q 606 541 553 600 q 659 394 659 482 q 538 102 659 222 q 425 27 486 50 q 281 -4 363 4 q 175 -30 199 -12 q 151 -127 151 -48 l 152 -144 l 153 -161 q 118 -287 153 -250 q 9 -324 82 -324 q -23 -294 -23 -324 q 0 -235 -23 -284 q 45 -83 23 -186 q 227 861 227 739 q 222 892 227 870 q 217 932 217 913 q 256 977 217 977 l 266 977 q 310 951 294 977 q 326 878 326 925 l 325 862 l 324 845 q 323 807 323 827 q 317 733 323 786 q 311 627 311 680 q 347 573 311 573 q 404 586 360 573 q 475 600 448 600 z "},"":{"ha":658,"x_min":33,"x_max":642,"o":"m 311 800 l 295 800 q 252 850 252 800 l 252 854 l 253 857 l 255 873 q 256 882 256 875 q 273 909 256 888 q 315 930 290 930 l 328 930 l 341 928 q 371 895 371 928 q 372 889 372 891 l 374 879 l 374 871 l 371 854 q 354 821 371 842 q 311 800 337 800 m 547 800 l 538 800 q 492 847 492 800 l 492 859 l 494 876 q 511 911 494 894 q 539 928 528 928 l 555 931 l 569 931 q 579 929 575 929 q 614 878 614 929 l 614 876 l 613 873 q 613 869 613 871 l 610 851 q 591 819 610 838 q 547 800 572 800 m 198 -127 q 275 43 275 -31 q 165 478 275 117 q 134 539 155 510 q 113 575 113 569 q 122 588 113 581 q 195 610 153 610 q 220 595 205 610 q 307 322 277 538 q 337 186 325 186 q 369 206 349 186 q 463 352 416 253 q 517 489 509 450 q 528 561 526 527 q 537 607 531 595 q 601 648 559 648 q 642 615 642 648 q 587 456 642 597 q 384 26 474 170 q 210 -195 293 -117 q 70 -274 127 -274 q 33 -249 33 -274 q 96 -195 33 -215 q 198 -127 159 -174 z "},"":{"ha":370,"x_min":97,"x_max":290,"o":"m 237 642 l 251 642 q 290 593 290 642 l 290 585 q 253 393 290 570 q 216 166 216 216 q 263 116 216 116 q 289 89 289 116 q 241 32 289 61 q 149 2 193 2 q 97 55 97 2 l 97 78 q 134 298 97 127 q 170 497 170 469 q 152 538 170 526 q 119 576 119 560 q 148 617 119 592 q 237 642 176 642 z "},"":{"ha":780,"x_min":65,"x_max":732,"o":"m 65 41 q 94 92 65 58 q 143 186 122 125 q 163 328 163 247 q 137 357 163 353 q 97 380 97 362 q 136 441 97 403 q 186 506 175 479 q 259 806 259 690 q 237 854 259 830 q 216 891 216 879 q 241 919 216 903 q 330 935 266 935 q 417 919 394 935 q 441 885 441 902 q 415 836 441 869 q 357 629 358 765 q 389 574 357 574 q 460 593 403 574 q 548 612 517 612 q 560 596 560 612 q 465 517 560 568 q 332 412 370 467 q 287 288 309 376 q 266 176 266 199 q 304 93 266 119 q 429 66 342 66 q 584 99 515 66 q 643 134 600 106 q 709 162 686 162 q 732 140 732 162 l 732 125 q 701 19 732 45 q 602 -8 671 -8 l 579 -8 l 557 -7 l 467 -6 l 444 -5 l 215 0 q 65 41 65 0 z "},"":{"ha":412,"x_min":63,"x_max":419,"o":"m 93 391 q 63 413 63 391 q 125 480 63 435 q 189 575 163 509 q 220 709 194 589 q 246 859 246 829 q 223 903 246 888 q 199 935 199 918 q 312 983 199 982 q 369 915 369 983 q 358 853 369 909 l 351 822 q 323 636 323 676 q 345 595 323 595 l 354 597 l 376 602 q 406 605 393 605 q 419 585 419 605 l 419 576 q 364 525 419 560 q 295 457 309 490 q 235 179 235 316 q 262 122 235 147 q 282 111 269 115 q 294 88 294 106 q 251 39 294 70 q 167 9 208 9 q 109 25 125 9 q 92 81 92 41 q 118 204 92 82 q 144 369 144 326 q 123 395 144 395 l 93 391 z "},"":{"ha":1038,"x_min":65,"x_max":1078,"o":"m 654 1058 l 650 1058 q 634 1074 634 1058 q 790 1249 634 1111 q 859 1279 824 1279 l 863 1278 l 867 1278 q 918 1253 918 1278 l 918 1250 q 782 1124 918 1230 q 654 1058 696 1058 m 267 94 q 136 33 267 33 q 65 64 65 33 l 65 82 q 86 119 65 93 l 119 161 q 157 274 130 180 q 273 831 273 680 q 262 881 273 859 l 251 901 q 237 930 237 923 q 286 957 237 957 q 387 933 334 957 q 469 871 440 910 q 637 547 498 831 q 780 262 776 262 q 837 399 805 262 q 902 767 902 680 l 895 815 q 892 855 892 847 q 914 922 892 904 q 1007 941 936 941 q 1078 897 1078 941 q 1019 828 1078 896 q 886 380 972 772 q 843 136 847 205 q 837 61 838 66 q 798 26 829 26 q 676 174 757 26 q 633 267 665 194 q 375 775 414 774 q 352 747 363 775 q 288 478 341 719 q 235 207 235 237 q 245 149 235 177 l 254 127 q 267 94 267 98 z "},"":{"ha":747,"x_min":92,"x_max":692,"o":"m 634 1006 l 650 1006 q 692 981 692 1006 l 692 978 q 580 854 692 954 q 444 755 468 755 l 439 755 q 420 769 420 755 l 420 772 q 567 977 420 812 q 634 1006 593 1006 m 657 115 q 666 110 657 115 q 674 97 674 104 q 640 71 674 90 q 570 52 606 52 q 520 69 534 52 q 497 143 497 100 q 524 296 497 152 q 551 482 551 439 q 531 551 551 524 q 484 578 511 578 q 408 547 456 578 q 251 280 296 473 q 201 99 218 138 q 141 43 176 43 q 111 61 130 43 q 92 113 92 79 q 123 238 92 146 q 153 401 153 330 q 142 457 153 418 q 131 529 131 496 q 161 602 131 561 q 220 644 191 644 q 264 628 250 644 q 285 571 278 612 q 304 530 292 530 q 349 554 317 530 q 414 601 380 578 q 548 646 484 646 l 565 646 q 649 612 621 646 q 676 530 676 578 q 651 359 676 481 q 627 189 627 237 q 640 125 627 140 q 657 115 640 125 z "},"":{"ha":1327,"x_min":136,"x_max":1306,"o":"m 739 784 q 612 890 739 890 l 591 890 q 338 736 452 890 q 259 574 288 669 q 231 390 231 479 l 231 378 q 290 176 231 255 q 367 109 323 132 q 449 86 410 86 l 481 86 q 582 111 534 86 q 655 189 629 136 q 707 370 682 241 q 733 604 733 498 q 736 661 736 650 l 737 706 l 739 762 l 739 784 m 1185 102 q 1176 93 1181 98 q 1141 61 1158 75 q 1082 32 1121 46 q 995 18 1043 18 q 870 35 947 18 q 787 52 793 52 q 667 25 781 52 q 488 -2 553 -2 l 458 -2 q 330 24 389 -2 q 161 213 206 79 q 136 359 136 283 l 136 390 q 173 594 136 490 q 429 907 249 810 q 611 956 522 956 l 639 956 q 787 934 694 956 q 895 911 880 911 q 955 925 909 911 q 1042 946 1000 938 q 1140 955 1083 955 q 1251 922 1196 955 q 1306 865 1306 890 q 1299 865 1306 865 q 1209 871 1291 865 q 1055 877 1126 877 q 948 830 983 877 q 914 746 933 810 q 896 640 896 683 q 981 546 896 546 l 982 546 q 1066 556 1020 546 q 1128 566 1112 566 q 1181 543 1166 566 q 1188 504 1188 532 q 1170 452 1188 475 q 1112 428 1152 428 q 1057 441 1109 428 q 960 454 1005 454 q 890 439 914 454 q 824 167 824 398 q 852 112 824 134 q 939 89 881 89 l 1173 100 q 1185 102 1179 100 z "},"":{"ha":1059,"x_min":87,"x_max":1045,"o":"m 536 448 q 425 608 536 608 l 418 608 q 269 516 333 608 q 216 407 239 474 q 194 290 194 339 l 193 275 l 192 245 q 224 116 192 163 q 311 69 256 69 l 317 69 q 511 276 449 69 q 534 397 534 351 l 536 418 l 536 448 m 646 395 l 646 389 q 667 371 646 371 l 679 371 q 691 372 687 372 q 883 423 790 372 q 935 505 935 451 l 936 513 l 936 530 q 935 543 935 538 q 915 584 935 564 q 860 604 895 604 l 856 604 l 852 604 q 724 540 788 604 q 667 453 688 504 q 646 395 646 401 m 672 312 q 638 236 638 298 q 675 132 638 174 q 787 90 713 90 q 855 105 825 90 q 915 135 886 119 q 949 151 944 151 q 972 130 972 151 q 885 37 972 81 q 755 3 817 3 q 660 18 694 3 q 589 69 625 33 q 546 104 552 104 q 498 72 540 104 q 303 -1 405 -1 q 302 -1 303 -1 q 144 68 201 -1 q 87 245 87 137 l 87 264 q 115 416 88 340 q 302 642 173 576 q 429 674 364 674 q 529 656 493 674 q 598 604 566 639 q 644 570 631 570 q 684 601 646 570 q 768 650 722 632 q 884 669 813 669 q 1000 626 955 669 q 1045 515 1045 583 q 986 378 1045 417 q 761 326 926 338 q 672 312 694 321 z "},"":{"ha":738,"x_min":87,"x_max":739,"o":"m 517 1021 l 499 1021 q 450 1067 486 1021 q 388 1194 388 1145 l 388 1198 q 425 1225 388 1225 q 492 1182 461 1225 q 530 1138 523 1138 q 561 1161 532 1138 q 651 1222 589 1184 q 728 1259 714 1259 l 732 1259 q 739 1254 739 1259 l 739 1251 q 694 1197 739 1245 q 642 1137 650 1149 l 625 1112 q 576 1045 600 1069 q 517 1021 552 1021 m 707 811 q 684 803 699 803 q 637 838 669 803 q 494 917 568 917 q 375 879 420 917 q 331 779 331 840 q 380 668 331 718 q 499 582 405 642 q 635 467 593 522 q 677 321 677 412 q 652 216 677 272 q 485 68 604 113 q 361 44 422 44 l 339 44 q 217 62 297 44 q 123 90 138 81 q 87 164 87 115 q 103 241 87 214 q 137 269 119 269 q 191 226 155 269 q 252 166 227 182 q 377 134 302 134 q 499 183 451 134 q 547 297 547 233 q 492 414 547 362 q 382 493 467 438 q 262 591 298 547 q 208 743 208 656 q 232 841 208 791 q 298 926 256 891 q 493 996 382 996 l 514 996 q 578 988 536 996 q 656 980 621 980 q 707 964 692 980 q 734 901 734 934 l 734 884 q 707 811 734 839 z "},"":{"ha":544,"x_min":61,"x_max":585,"o":"m 568 977 l 576 977 q 585 969 585 977 q 545 918 585 962 q 469 822 505 875 q 425 762 432 769 q 366 736 399 736 l 355 736 q 310 781 341 736 q 243 926 243 878 l 243 930 q 280 951 243 951 q 347 898 316 951 q 382 845 378 845 q 413 870 386 845 q 497 936 441 896 q 568 977 554 977 m 155 501 q 213 633 155 581 q 361 685 271 685 l 375 685 q 474 661 429 685 q 518 616 518 637 q 475 562 518 562 q 425 592 465 562 q 346 622 385 622 q 284 595 306 622 q 262 533 262 569 q 296 463 262 496 q 368 410 312 448 q 454 331 425 371 q 484 235 484 290 q 413 92 484 150 q 255 35 342 35 l 241 35 q 114 60 168 35 q 61 124 61 86 q 104 184 61 184 q 162 145 113 184 q 259 106 211 106 q 339 135 307 106 q 372 204 372 163 q 349 271 372 245 q 271 333 326 296 q 185 410 216 371 q 155 501 155 448 z "},"":{"ha":824,"x_min":160,"x_max":854,"o":"m 370 1126 l 372 1149 q 390 1178 372 1157 q 427 1200 407 1200 l 439 1202 l 455 1202 q 497 1159 497 1202 l 497 1144 q 478 1095 497 1119 q 429 1071 458 1071 l 412 1071 q 372 1099 372 1071 q 371 1105 371 1103 l 370 1116 l 370 1124 l 370 1126 m 747 1142 l 746 1125 q 728 1094 746 1116 q 677 1071 709 1071 l 665 1071 l 663 1072 l 659 1072 q 652 1073 654 1073 q 621 1110 621 1073 l 621 1131 q 624 1154 624 1144 q 642 1182 624 1164 q 675 1200 659 1200 q 682 1201 680 1201 l 692 1202 l 703 1202 q 715 1200 709 1200 q 748 1159 748 1200 l 748 1145 l 747 1142 m 351 14 q 262 57 262 14 q 290 117 262 79 q 328 194 317 155 q 353 408 353 286 q 273 701 353 492 q 202 829 244 777 q 160 886 160 881 q 228 915 160 915 q 317 897 295 915 q 326 845 326 888 q 427 599 326 819 q 460 555 448 555 q 670 789 494 555 q 701 850 691 817 q 717 891 711 883 q 819 926 745 926 q 854 915 854 926 l 854 907 q 812 863 854 900 q 738 783 770 826 q 529 461 623 629 q 473 304 498 405 q 449 173 449 204 q 464 114 449 141 q 479 70 479 86 q 449 34 479 54 q 385 13 418 13 l 368 14 l 351 14 z "},"":{"ha":818,"x_min":52,"x_max":851,"o":"m 786 1249 l 786 1241 q 688 1140 786 1230 q 557 1050 589 1050 l 552 1050 l 547 1050 q 498 1098 528 1050 q 419 1238 419 1227 l 419 1242 q 447 1259 419 1259 l 452 1259 q 524 1203 477 1259 q 583 1146 572 1146 q 661 1202 593 1146 q 765 1259 729 1259 q 786 1249 786 1259 m 553 -6 l 156 6 q 69 15 87 6 q 52 58 52 24 q 338 450 52 82 q 386 504 342 455 q 545 690 430 553 q 661 847 661 827 q 490 879 661 879 q 366 868 403 879 q 288 826 330 857 q 223 795 247 795 q 203 855 203 795 q 220 902 203 875 q 273 944 237 928 q 419 959 308 959 l 521 959 l 547 958 l 731 959 l 782 959 q 851 936 851 959 l 851 918 q 625 625 851 893 q 417 361 593 587 q 242 123 242 135 q 288 88 242 96 q 448 80 334 80 q 598 93 562 80 q 676 134 635 106 q 732 163 718 163 q 757 125 757 163 q 693 20 757 60 q 553 -6 652 -6 z "},"":{"ha":628,"x_min":47,"x_max":623,"o":"m 403 762 l 393 762 q 348 807 376 762 q 269 964 269 936 l 269 968 q 296 985 269 985 q 372 922 323 985 q 425 859 420 859 q 454 883 429 859 q 597 986 566 986 l 602 986 q 623 974 623 986 l 623 970 q 527 859 623 956 q 403 762 430 762 m 330 578 q 239 564 273 578 q 162 530 165 530 q 130 560 130 530 q 155 633 130 610 q 260 669 195 669 l 277 669 q 387 660 319 669 q 487 651 454 651 q 551 656 520 651 q 591 661 581 661 q 622 633 622 661 q 407 372 622 604 q 249 172 311 267 q 228 126 228 140 q 260 95 228 102 q 362 89 292 89 q 450 97 432 89 q 489 118 467 105 q 524 131 510 131 q 556 89 556 131 q 516 20 556 47 q 412 -7 475 -7 l 395 -7 q 264 7 356 -7 q 110 20 173 20 q 47 39 47 20 q 154 208 47 89 q 178 235 165 221 l 202 262 q 238 302 226 289 l 262 329 q 287 356 275 343 q 441 547 441 532 q 330 578 441 578 z "},"":{"ha":597,"x_min":-76,"x_max":674,"o":"m 538 888 q 449 832 490 888 q 408 699 408 777 q 433 640 408 660 q 459 629 441 634 l 490 622 q 526 591 526 608 q 461 554 526 568 q 368 482 397 540 q 286 187 339 424 q 193 -117 233 -50 q 101 -219 153 -184 q 1 -254 48 -254 q -76 -214 -76 -254 q -61 -188 -76 -205 q -24 -172 -47 -172 l 4 -173 q 74 -138 42 -173 q 123 -51 106 -103 q 184 200 140 1 q 229 460 229 400 q 219 538 229 520 q 195 567 209 557 q 182 585 182 577 q 224 625 182 598 q 277 668 266 652 q 317 766 278 669 q 398 903 357 863 q 571 973 471 973 q 650 955 626 973 q 674 924 674 937 q 658 880 674 898 q 626 862 642 862 q 581 875 610 862 q 538 888 551 888 z "},"":{"ha":552,"x_min":175,"x_max":536,"o":"m 395 975 l 405 975 q 454 936 434 975 q 505 841 473 896 q 536 773 536 785 l 536 769 q 504 752 536 752 q 433 817 482 752 q 380 881 383 881 q 299 816 370 881 q 201 751 229 751 l 197 752 l 192 752 q 175 763 175 752 l 175 767 q 269 873 175 771 q 395 975 362 975 z "},"":{"ha":525,"x_min":203,"x_max":567,"o":"m 338 736 q 333 736 338 736 l 328 736 q 283 782 309 736 q 203 941 203 922 q 228 960 203 960 l 233 960 q 307 897 258 960 q 363 833 355 833 q 441 897 367 833 q 543 960 515 960 l 547 960 q 567 947 567 960 q 399 764 567 917 q 338 736 369 736 z "},"":{"ha":530,"x_min":185,"x_max":555,"o":"m 185 880 l 185 891 q 212 916 185 916 l 217 916 q 247 884 232 916 q 355 813 280 813 q 483 876 431 813 q 529 916 517 916 l 534 916 q 555 901 555 916 q 530 846 555 886 q 475 782 505 805 q 349 735 412 735 l 332 735 q 231 777 277 735 q 185 880 185 819 z "},"":{"ha":437,"x_min":252,"x_max":399,"o":"m 315 760 q 268 775 283 760 q 252 814 252 791 l 252 828 q 271 885 252 862 q 311 907 289 907 l 326 909 l 343 909 q 355 907 349 907 q 399 850 399 907 l 399 844 l 395 821 q 379 784 395 804 q 342 763 362 763 q 334 762 336 762 l 323 760 l 315 760 z "},"":{"ha":503,"x_min":197,"x_max":459,"o":"m 323 924 q 310 923 319 923 q 277 900 300 923 q 254 848 254 877 l 254 831 q 273 786 254 805 q 320 768 292 768 l 325 768 q 380 795 359 768 q 402 847 402 822 l 402 862 q 384 905 402 887 q 351 923 366 923 l 336 925 l 331 925 l 329 924 l 323 924 m 323 718 l 311 718 q 232 749 267 718 q 197 828 197 779 l 197 841 q 241 937 197 898 q 337 975 285 975 l 342 975 q 425 945 390 975 q 459 869 459 914 l 459 852 q 415 757 459 796 q 323 718 372 718 z "},"":{"ha":477,"x_min":85,"x_max":328,"o":"m 313 -212 q 328 -232 328 -212 q 291 -272 328 -252 q 201 -292 253 -292 l 195 -292 q 115 -264 145 -292 q 85 -193 85 -237 l 85 -188 q 142 -69 85 -132 q 289 20 224 20 l 294 20 q 306 13 306 20 q 275 -21 306 5 q 184 -160 184 -98 q 256 -222 184 -222 l 313 -212 z "},"":{"ha":572,"x_min":163,"x_max":599,"o":"m 302 910 l 317 910 q 397 881 345 910 q 477 851 450 851 q 536 880 505 851 q 583 908 567 908 q 599 891 599 908 l 599 886 q 554 811 599 852 q 468 770 509 770 l 447 770 q 365 800 416 770 q 286 830 315 830 q 225 802 256 830 q 181 774 195 774 q 163 790 163 774 l 163 795 q 213 872 163 833 q 302 910 262 910 z "},"":{"ha":633,"x_min":213,"x_max":667,"o":"m 433 956 q 460 939 460 956 l 460 937 q 362 813 460 911 q 237 715 264 715 l 231 715 q 213 725 213 715 l 213 728 q 232 766 213 738 q 348 932 326 908 q 400 957 369 957 l 422 957 q 433 956 429 956 m 605 956 l 623 956 q 667 939 667 956 l 667 936 q 566 815 667 916 q 435 715 466 715 l 425 715 q 409 727 409 715 l 409 730 q 551 930 409 767 q 605 956 574 956 z "},"":{"ha":736,"x_min":79,"x_max":690,"o":"m 101 323 q 79 340 79 323 l 79 347 q 104 397 79 391 q 402 401 118 401 l 640 401 l 654 401 q 690 390 690 401 l 690 378 q 652 326 690 326 l 640 325 l 606 325 l 585 324 l 176 324 l 155 323 l 101 323 z "},"":{"ha":1160,"x_min":73,"x_max":1119,"o":"m 1089 401 q 1119 386 1119 401 l 1119 376 q 1084 327 1119 332 q 572 324 1063 324 l 324 324 l 291 323 l 212 323 l 201 324 l 179 324 l 113 323 q 73 347 73 323 q 86 390 73 381 q 130 398 100 398 l 152 399 l 1067 401 l 1089 401 z "},"":{"ha":335,"x_min":157,"x_max":333,"o":"m 157 727 l 157 762 q 210 910 157 827 q 310 994 262 994 l 313 994 q 333 976 333 994 l 333 972 q 311 941 332 968 q 274 890 289 913 q 259 844 259 867 q 274 792 259 822 q 289 737 289 762 q 269 694 289 712 q 226 677 249 677 l 205 677 q 157 727 157 677 z "},"":{"ha":344,"x_min":149,"x_max":337,"o":"m 168 667 q 149 686 149 667 l 149 688 q 171 718 149 696 q 229 828 229 776 q 218 867 229 845 q 207 920 207 890 q 228 968 207 949 q 279 986 248 986 l 296 986 q 337 944 337 986 l 337 918 l 334 892 q 273 752 334 836 q 168 667 212 667 z "},"":{"ha":342,"x_min":36,"x_max":227,"o":"m 227 92 q 225 70 227 92 q 163 -77 225 8 q 55 -162 102 -162 q 36 -144 36 -162 l 36 -140 q 53 -116 36 -133 q 116 -2 116 -53 q 103 41 116 14 q 90 96 90 67 q 111 143 90 124 q 170 162 132 162 l 182 162 q 227 106 227 162 l 227 97 l 227 92 z "},"":{"ha":551,"x_min":153,"x_max":566,"o":"m 153 730 l 153 751 q 208 911 153 825 q 315 998 263 998 q 334 981 334 998 l 334 977 q 315 949 334 971 q 258 840 258 886 q 271 797 258 823 q 284 745 284 770 q 267 699 284 719 q 216 679 249 679 l 204 679 q 153 730 153 679 m 543 998 l 550 998 q 566 980 566 998 l 566 977 q 545 948 566 975 q 507 895 524 922 q 490 836 490 867 q 503 796 490 830 q 517 741 517 762 q 499 699 517 720 q 449 679 481 679 l 437 679 q 385 730 385 679 l 385 747 l 385 751 l 385 760 q 387 773 387 768 q 445 918 387 838 q 543 998 503 998 z "},"":{"ha":558,"x_min":142,"x_max":564,"o":"m 332 941 l 332 920 q 288 779 332 848 q 208 687 243 709 q 162 664 172 664 q 142 685 142 664 q 163 713 142 691 q 224 821 224 783 q 213 863 224 838 q 201 918 201 888 q 222 966 201 947 q 282 985 243 985 l 287 984 q 332 941 332 984 m 505 984 l 522 984 q 564 933 564 984 l 563 929 l 563 925 q 522 782 563 848 q 432 682 480 717 q 394 664 407 664 q 374 682 374 664 l 374 684 q 392 711 374 690 q 433 762 411 732 q 455 818 455 792 q 444 864 455 844 q 433 916 433 884 q 453 966 433 947 q 505 984 474 984 z "},"":{"ha":563,"x_min":31,"x_max":456,"o":"m 31 -151 l 31 -144 q 53 -114 31 -136 q 112 -3 112 -55 q 100 35 112 5 q 88 92 88 65 q 109 138 88 119 q 161 157 130 157 l 178 157 q 220 114 220 157 l 220 88 q 167 -66 220 8 q 50 -166 94 -166 q 31 -151 31 -166 m 290 -166 l 282 -166 q 266 -149 266 -166 l 266 -146 q 286 -118 266 -138 q 347 -1 347 -57 q 336 36 347 7 q 324 92 324 64 q 346 138 324 119 q 401 157 368 157 l 414 157 q 456 115 456 157 l 456 88 q 454 66 454 76 q 392 -81 454 5 q 290 -166 330 -166 z "},"":{"ha":646,"x_min":107,"x_max":631,"o":"m 631 661 q 611 629 631 645 q 539 614 590 614 l 523 614 q 479 615 507 615 q 404 550 421 615 q 358 234 403 548 q 306 -104 313 -79 q 261 -129 299 -129 q 229 -92 229 -129 q 267 233 229 -77 l 274 299 q 296 465 285 404 q 307 556 307 526 q 235 614 307 614 l 200 612 q 159 610 178 610 q 124 626 140 610 q 107 653 107 641 q 129 682 107 665 q 193 700 151 700 l 275 693 q 334 721 321 693 q 347 841 347 749 q 364 957 347 934 q 423 979 381 979 q 465 952 465 979 q 443 845 465 944 q 422 721 422 746 q 484 696 422 696 l 563 701 q 631 661 631 701 z "},"":{"ha":661,"x_min":70,"x_max":650,"o":"m 70 179 l 70 195 q 95 223 70 216 q 178 229 109 227 q 263 249 248 231 q 290 320 279 266 q 329 572 329 497 q 317 612 329 600 q 267 625 304 625 l 245 624 l 223 623 q 158 621 194 621 q 122 656 122 621 q 203 709 122 709 l 224 708 l 245 706 q 311 703 289 703 q 359 745 351 703 q 362 789 361 755 l 364 833 q 373 941 370 932 q 432 980 386 980 q 479 956 479 980 q 457 843 479 939 q 435 721 435 748 q 475 704 435 704 l 600 711 q 650 675 650 711 q 634 635 650 646 q 559 623 617 623 l 538 625 q 494 626 509 626 q 423 587 438 626 q 408 500 411 555 q 395 391 404 444 q 385 317 385 338 q 406 241 385 257 q 480 232 418 232 q 560 226 542 232 q 578 198 578 220 q 534 151 578 165 q 444 147 521 147 q 351 116 366 147 q 340 10 344 100 q 331 -97 336 -81 q 272 -137 319 -137 q 224 -117 224 -137 l 268 117 q 169 143 268 139 q 70 179 70 146 z "},"":{"ha":573,"x_min":144,"x_max":474,"o":"m 144 398 l 144 420 q 194 536 144 480 q 307 591 245 591 l 318 593 l 329 593 l 334 592 q 432 550 390 592 q 474 444 474 508 l 473 438 q 420 314 473 367 q 299 260 367 260 l 283 260 q 187 300 231 260 q 144 398 144 339 z "},"":{"ha":1002,"x_min":64,"x_max":889,"o":"m 221 75 l 220 62 q 198 13 220 35 q 138 -9 176 -9 l 130 -9 q 84 5 101 -9 q 67 37 67 20 q 66 44 66 42 l 64 57 l 64 65 q 84 123 64 99 q 125 147 104 147 l 145 151 l 158 151 l 176 148 q 205 134 188 148 q 222 90 222 120 l 222 77 l 221 75 m 463 -9 q 417 5 434 -9 q 400 37 400 20 q 399 44 399 42 l 397 54 l 397 67 q 401 92 401 81 q 420 127 401 103 q 478 151 440 151 l 488 151 q 555 87 555 151 l 555 80 l 554 77 q 554 72 554 75 l 553 61 q 533 17 553 41 q 486 -7 513 -7 q 479 -8 482 -8 l 469 -9 l 463 -9 m 732 63 q 753 125 732 100 q 808 151 774 151 l 828 151 q 847 149 836 149 q 874 133 859 149 q 889 93 889 118 l 889 75 q 869 18 889 43 q 823 -6 848 -6 l 808 -8 l 792 -8 q 779 -6 784 -6 q 735 35 735 -6 l 732 58 l 732 63 z "},"":{"ha":1423,"x_min":125,"x_max":1364,"o":"m 419 756 l 418 779 q 393 844 418 819 q 340 869 368 869 l 328 869 q 238 811 280 869 q 196 675 196 753 l 196 647 q 218 571 196 603 q 275 538 241 538 l 293 538 q 380 598 342 538 q 418 713 418 659 l 419 723 l 420 742 l 420 751 l 419 756 m 605 159 q 629 96 605 123 q 684 68 654 68 l 698 68 q 793 129 749 68 q 837 253 837 189 l 838 258 l 838 262 l 839 276 l 839 300 q 838 314 838 309 q 812 374 838 349 q 759 399 787 399 l 745 399 q 651 338 695 399 q 606 214 606 277 q 605 201 605 205 l 604 196 q 604 186 604 191 l 604 177 l 604 172 q 605 159 605 163 m 1047 169 q 1072 88 1047 116 q 1131 60 1097 60 l 1140 60 q 1230 117 1188 60 q 1271 250 1271 174 l 1271 283 q 1249 360 1271 328 q 1192 391 1227 391 l 1179 391 q 1090 334 1132 391 q 1049 216 1049 277 l 1047 193 l 1047 169 m 339 911 l 366 911 q 466 864 427 911 q 505 750 505 818 l 505 723 q 485 627 505 679 q 433 541 465 575 q 286 469 366 469 l 272 469 q 168 514 210 469 q 125 631 125 559 l 125 651 q 189 829 125 749 q 261 889 220 867 q 339 911 303 911 m 867 926 q 892 916 892 926 q 871 876 892 905 q 251 74 589 486 q 170 14 201 14 l 159 14 q 134 25 134 14 q 168 83 134 36 q 798 895 513 560 q 856 926 825 926 l 867 926 m 522 168 l 522 195 q 589 370 522 292 q 741 448 656 448 l 761 448 q 870 401 827 448 q 913 277 913 354 l 913 263 q 846 80 913 159 q 688 2 778 2 l 681 2 q 567 47 612 2 q 522 168 522 93 m 972 168 l 972 195 q 1040 371 972 293 q 1198 449 1107 449 l 1205 449 q 1321 402 1277 449 q 1364 270 1364 355 l 1364 263 q 1297 80 1364 158 q 1145 3 1230 3 l 1124 3 q 1016 50 1060 3 q 972 168 972 97 z "},"":{"ha":460,"x_min":102,"x_max":412,"o":"m 312 463 q 262 410 312 463 q 212 348 212 357 q 272 241 212 339 q 332 123 332 144 q 302 96 332 96 q 220 178 278 96 q 184 226 201 205 q 135 292 168 246 q 102 345 102 338 l 102 351 q 235 484 102 359 q 389 608 367 608 q 412 588 412 608 q 312 463 412 569 z "},"":{"ha":461,"x_min":85,"x_max":391,"o":"m 192 606 l 197 606 q 272 527 216 606 q 391 355 391 358 q 254 215 391 336 q 108 95 117 95 l 102 95 q 85 114 85 95 q 185 239 85 132 q 286 356 286 347 q 226 463 286 366 q 167 583 167 559 q 192 606 167 606 z "},"":{"ha":439,"x_min":-139,"x_max":624,"o":"m 589 938 q 624 923 624 938 q 269 430 624 898 q -104 -38 -87 -38 q -139 -24 -139 -38 q 327 618 -139 -11 q 589 938 564 938 z "},"":{"ha":836,"x_min":80,"x_max":807,"o":"m 572 382 q 477 342 572 353 q 345 311 382 330 q 307 256 307 292 q 362 143 307 189 q 497 98 416 98 q 612 124 532 98 q 694 151 691 151 q 719 137 719 151 q 697 98 719 130 q 621 34 676 66 q 484 3 566 3 q 191 191 269 3 l 173 241 q 148 306 153 298 q 101 348 143 313 q 80 389 80 366 q 127 417 80 399 q 162 459 162 431 q 149 497 162 487 q 110 528 110 528 q 141 571 110 549 q 253 694 172 592 q 376 831 333 796 q 481 889 419 867 q 627 911 543 911 q 759 881 710 911 q 807 803 807 852 q 768 766 807 766 q 684 803 755 766 q 575 823 644 823 q 441 765 507 823 q 375 647 375 707 q 411 601 375 612 q 538 584 448 590 q 628 550 628 578 q 591 520 628 530 q 454 511 555 511 q 329 503 353 511 q 290 461 290 491 q 320 424 290 431 q 461 416 350 416 q 572 382 572 416 z "},"":{"ha":1127,"x_min":121,"x_max":1080,"o":"m 517 927 l 517 909 q 498 871 517 871 q 463 885 494 871 q 399 899 432 899 q 355 852 363 899 q 332 595 332 727 q 343 556 332 578 q 354 530 354 535 q 275 489 354 489 l 266 489 q 214 522 214 489 q 230 555 214 538 q 250 595 245 572 q 271 849 271 694 q 222 897 271 897 q 174 881 205 897 q 142 865 142 865 q 121 888 121 865 l 121 896 q 149 954 121 946 q 303 954 152 954 l 432 955 q 452 956 442 955 l 479 958 q 517 927 517 958 m 652 952 q 711 905 688 952 q 767 764 725 876 q 814 651 809 651 q 883 770 819 651 q 972 921 947 889 q 1039 952 998 952 q 1080 934 1080 952 l 1080 924 l 1072 899 q 1066 873 1067 884 q 1062 828 1065 863 l 1057 771 q 1044 610 1044 627 q 1047 574 1044 594 l 1049 559 l 1053 545 l 1057 532 q 1024 500 1057 500 q 973 514 991 500 q 954 547 954 528 q 963 575 954 547 q 976 692 971 603 q 981 802 981 781 q 975 822 981 822 q 890 674 968 822 q 789 526 812 526 q 715 673 763 526 q 658 820 667 820 q 652 812 654 820 q 629 591 629 716 l 629 575 q 630 547 630 560 q 564 500 630 500 l 551 500 q 536 515 536 500 q 548 543 536 523 q 564 584 559 564 q 580 741 568 604 q 593 895 593 878 l 585 930 q 652 952 585 952 z "},"":{"ha":755,"x_min":100,"x_max":701,"o":"m 100 372 l 100 383 q 127 433 100 428 q 422 435 144 435 l 685 436 q 701 427 701 436 l 701 416 q 668 366 701 371 q 386 363 656 363 l 144 363 l 117 363 q 100 372 100 363 z "}}}
